<svg width="582" height="593" viewBox="0 0 582 593" fill="none" xmlns="http://www.w3.org/2000/svg">
<style>
	.blink {
		text-decoration: blink;
		-webkit-animation-name: blinker;
		-webkit-animation-duration: 0.6s;
		-webkit-animation-iteration-count:infinite;
		-webkit-animation-timing-function:ease-in-out;
		-webkit-animation-direction: alternate;
	}
	@-webkit-keyframes blinker {
	  from {opacity: 1.0;}
	  to {opacity: 0.5;}
	}
</style>
<path class="blink" d="M106.608 121.75L125.975 125.256C128.604 125.694 130.883 127.446 131.934 129.9L140.084 147.864C142.888 153.999 151.476 154.349 154.718 148.39L164.007 131.039C165.234 128.673 167.6 127.096 170.317 126.833L189.946 124.642C196.694 123.941 199.586 115.791 194.941 110.884L181.271 96.6877C179.431 94.7599 178.642 92.0433 179.168 89.4144L183.199 70.1355C184.601 63.5632 177.766 58.2177 171.631 61.1095L153.842 69.6973C151.388 70.8366 148.584 70.7489 146.218 69.4345L129.13 59.7074C123.259 56.3774 116.073 61.1971 117.037 67.8571L119.666 87.3988C120.016 90.0278 119.052 92.7443 117.037 94.497L102.577 107.642C97.5824 112.198 99.9484 120.523 106.608 121.75Z" fill="#21A3EC" fill-opacity="0.1"/>
<path class="blink" d="M245.68 92.4814L265.047 95.9867C267.676 96.4248 269.954 98.1775 271.006 100.631L279.156 118.596C281.96 124.73 290.548 125.08 293.79 119.121L303.079 101.77C304.306 99.4043 306.672 97.827 309.389 97.5641L329.018 95.3733C335.766 94.6722 338.658 86.5225 334.013 81.6152L320.343 67.4189C318.503 65.491 317.714 62.7745 318.24 60.1455L322.271 40.8667C323.673 34.2944 316.838 28.9489 310.703 31.8407L292.914 40.3409C290.46 41.4801 287.656 41.3925 285.29 40.078L268.202 30.351C262.33 27.021 255.145 31.8407 256.109 38.5007L258.738 58.0424C259.088 60.6713 258.124 63.3879 256.109 65.1405L241.562 78.3728C236.654 83.0173 239.02 91.2546 245.68 92.4814Z" fill="#21A3EC" fill-opacity="0.1"/>
<path class="blink" d="M384.752 63.3L404.119 66.8053C406.748 67.2434 409.026 68.996 410.078 71.4497L418.228 89.4141C421.032 95.5483 429.62 95.8988 432.862 89.9399L442.151 72.5889C443.378 70.2229 445.744 68.6455 448.461 68.3826L468.09 66.1918C474.838 65.4908 477.73 57.3411 473.085 52.4338L459.415 38.2375C457.575 36.3096 456.786 33.5931 457.312 30.9641L461.343 11.6853C462.745 5.11294 455.91 -0.232559 449.775 2.65927L431.986 11.2471C429.532 12.3863 426.728 12.2987 424.362 10.9842L407.274 1.08191C401.402 -2.24808 394.217 2.57164 395.181 9.2316L397.809 28.7733C398.16 31.4023 397.196 34.1189 395.181 35.8715L380.634 49.1038C375.726 53.7482 378.092 62.0732 384.752 63.3Z" fill="#21A3EC" fill-opacity="0.1"/>
<path class="blink" d="M73.3083 239.088L92.675 242.593C95.3039 243.032 97.5824 244.784 98.6339 247.238L106.784 265.202C109.588 271.336 118.176 271.687 121.418 265.728L130.707 248.377C131.934 246.011 134.3 244.434 137.017 244.171L156.646 241.98C163.394 241.279 166.286 233.129 161.641 228.222L147.971 214.026C146.13 212.098 145.342 209.381 145.868 206.752L149.899 187.473C151.301 180.901 144.465 175.556 138.331 178.447L120.542 187.035C118.088 188.174 115.284 188.087 112.918 186.772L95.8297 177.045C89.9584 173.715 82.7725 178.535 83.7365 185.195L86.3655 204.737C86.716 207.366 85.752 210.082 83.7365 211.835L69.2772 225.067C64.2822 229.624 66.6483 237.949 73.3083 239.088Z" fill="#21A3EC" fill-opacity="0.1"/>
<path class="blink" d="M212.38 209.907L231.747 213.412C234.376 213.85 236.654 215.603 237.706 218.057L245.856 236.021C248.66 242.155 257.248 242.506 260.49 236.547L269.779 219.196C271.006 216.83 273.372 215.252 276.089 214.99L295.718 212.799C302.466 212.098 305.358 203.948 300.713 199.041L287.043 184.844C285.202 182.917 284.414 180.2 284.94 177.571L288.971 158.292C290.373 151.72 283.537 146.374 277.403 149.266L259.614 157.854C257.16 158.993 254.356 158.906 251.99 157.591L234.902 147.864C229.03 144.534 221.844 149.354 222.808 156.014L225.437 175.556C225.788 178.185 224.824 180.901 222.808 182.654L208.262 195.886C203.354 200.355 205.72 208.68 212.38 209.907Z" fill="#21A3EC" fill-opacity="0.1"/>
<path class="blink" d="M351.452 180.638L370.819 184.144C373.448 184.582 375.726 186.334 376.778 188.788L384.928 206.753C387.732 212.887 396.32 213.237 399.562 207.278L408.851 189.927C410.078 187.561 412.444 185.984 415.161 185.721L434.79 183.53C441.538 182.829 444.43 174.68 439.785 169.772L426.115 155.576C424.274 153.648 423.486 150.931 424.011 148.303L428.042 129.024C429.445 122.451 422.609 117.106 416.475 119.998L398.686 128.586C396.232 129.725 393.428 129.637 391.062 128.323L373.974 118.596C368.102 115.266 360.916 120.085 361.88 126.745L364.509 146.287C364.86 148.916 363.896 151.633 361.88 153.385L347.333 166.617C342.426 171.174 344.792 179.499 351.452 180.638Z" fill="#21A3EC" fill-opacity="0.1"/>
<path class="blink" d="M578.77 140.591L565.099 126.395C563.259 124.467 562.47 121.75 562.996 119.121L567.027 99.8425C568.429 93.2702 561.594 87.9247 555.459 90.8165L537.67 99.4044C535.216 100.544 532.412 100.456 530.046 99.1415L512.958 89.4144C507.087 86.0844 499.901 90.9042 500.865 97.5641L503.494 117.106C503.844 119.735 502.88 122.451 500.865 124.204L486.318 137.436C481.323 141.993 483.689 150.318 490.349 151.457L509.716 154.963C512.344 155.401 514.623 157.153 515.675 159.607L523.824 177.571C526.629 183.706 535.216 184.056 538.459 178.097L547.748 160.746C548.975 158.38 551.341 156.803 554.057 156.54L573.687 154.349C580.522 153.56 583.502 145.411 578.77 140.591Z" fill="#21A3EC" fill-opacity="0.1"/>
<path class="blink" d="M128.341 345.648L114.671 331.451C112.83 329.524 112.042 326.807 112.567 324.178L116.598 304.899C118.001 298.327 111.165 292.981 105.031 295.873L87.2418 304.461C84.7881 305.6 81.9839 305.513 79.6178 304.198L62.5296 294.471C56.6582 291.141 49.4724 295.961 50.4364 302.621L53.0653 322.163C53.4158 324.791 52.4519 327.508 50.4364 329.261L35.9771 342.493C30.9821 347.05 33.3481 355.375 40.0081 356.514L59.3748 360.019C62.0038 360.457 64.2822 362.21 65.3338 364.664L73.4836 382.628C76.2878 388.762 84.8757 389.113 88.1181 383.154L97.4071 365.803C98.6339 363.437 101 361.859 103.717 361.597L123.346 359.406C130.094 358.617 132.986 350.467 128.341 345.648Z" fill="#21A3EC" fill-opacity="0.1"/>
<path class="blink" d="M267.413 316.379L253.743 302.183C251.902 300.255 251.114 297.538 251.639 294.909L255.67 275.63C257.073 269.058 250.237 263.713 244.103 266.604L226.314 275.192C223.86 276.331 221.056 276.244 218.69 274.929L201.602 265.202C195.73 261.872 188.544 266.692 189.508 273.352L192.137 292.894C192.488 295.523 191.524 298.239 189.508 299.992L174.961 313.224C169.966 317.781 172.332 326.106 178.992 327.245L198.359 330.75C200.988 331.189 203.267 332.941 204.318 335.395L212.468 353.359C215.272 359.493 223.86 359.844 227.102 353.885L236.391 336.534C237.618 334.168 239.984 332.591 242.701 332.328L262.33 330.137C269.166 329.348 272.058 321.286 267.413 316.379Z" fill="#21A3EC" fill-opacity="0.1"/>
<path class="blink" d="M406.485 287.198L392.814 273.001C390.974 271.074 390.186 268.357 390.711 265.728L394.742 246.449C396.145 239.877 389.309 234.531 383.175 237.423L365.386 246.011C362.932 247.15 360.128 247.063 357.762 245.748L340.673 236.021C334.802 232.691 327.616 237.511 328.58 244.171L331.209 263.713C331.56 266.342 330.596 269.058 328.58 270.811L314.033 284.043C309.038 288.6 311.404 296.925 318.064 298.064L337.431 301.569C340.06 302.007 342.338 303.76 343.39 306.214L351.54 324.178C354.344 330.312 362.932 330.663 366.174 324.704L375.463 307.353C376.69 304.987 379.056 303.409 381.773 303.147L401.402 300.956C408.15 300.167 411.13 292.017 406.485 287.198Z" fill="#21A3EC" fill-opacity="0.1"/>
<path class="blink" d="M531.886 243.733C530.046 241.805 529.257 239.088 529.783 236.459L533.814 217.18C535.216 210.608 528.381 205.263 522.247 208.154L504.458 216.742C502.004 217.881 499.2 217.794 496.834 216.479L479.745 206.752C473.874 203.422 466.688 208.242 467.652 214.902L470.281 234.444C470.632 237.073 469.668 239.789 467.652 241.542L453.105 254.774C448.11 259.331 450.476 267.656 457.136 268.795L476.503 272.3C479.132 272.739 481.41 274.491 482.462 276.945L490.612 294.909C493.416 301.043 502.004 301.394 505.246 295.435L514.535 278.084C515.762 275.718 518.128 274.141 520.845 273.878L540.474 271.687C547.222 270.986 550.114 262.836 545.469 257.929L531.886 243.733Z" fill="#21A3EC" fill-opacity="0.1"/>
<path class="blink" d="M81.3704 448.79C79.5302 446.862 78.7415 444.145 79.2673 441.516L83.2983 422.237C84.7005 415.665 77.8652 410.319 71.7309 413.211L53.9416 421.799C51.4879 422.938 48.6837 422.851 46.3176 421.536L29.2294 411.809C23.3581 408.479 16.1722 413.299 17.1362 419.959L19.7652 439.501C20.1157 442.13 19.1517 444.846 17.1362 446.599L2.67693 459.831C-2.3181 464.388 0.0479662 472.713 6.708 473.852L26.0747 477.357C28.7036 477.795 30.9821 479.548 32.0336 482.002L40.1834 499.966C42.9876 506.1 51.5756 506.451 54.818 500.492L64.1069 483.141C65.3338 480.775 67.6999 479.198 70.4164 478.935L90.046 476.744C96.7937 476.043 99.6855 467.893 95.041 462.986L81.3704 448.79Z" fill="#21A3EC" fill-opacity="0.1"/>
<path class="blink" d="M220.442 419.521C218.602 417.593 217.813 414.876 218.339 412.247L222.37 392.969C223.772 386.396 216.937 381.051 210.803 383.943L193.014 392.53C190.56 393.67 187.756 393.582 185.39 392.267L168.301 382.54C162.43 379.21 155.244 384.03 156.208 390.69L158.837 410.232C159.188 412.861 158.224 415.577 156.208 417.33L141.661 430.562C136.666 435.119 139.032 443.444 145.692 444.583L165.059 448.088C167.688 448.527 169.966 450.279 171.018 452.733L179.168 470.697C181.972 476.831 190.56 477.182 193.802 471.223L203.091 453.872C204.318 451.506 206.684 449.929 209.401 449.666L229.03 447.475C235.778 446.774 238.67 438.624 234.025 433.717L220.442 419.521Z" fill="#21A3EC" fill-opacity="0.1"/>
<path class="blink" d="M359.514 390.34C357.674 388.412 356.885 385.695 357.411 383.066L361.442 363.787C362.844 357.215 356.009 351.87 349.875 354.761L332.086 363.349C329.632 364.488 326.828 364.401 324.462 363.086L307.373 353.359C301.502 350.029 294.316 354.849 295.28 361.509L297.909 381.051C298.26 383.68 297.296 386.396 295.28 388.149L280.821 401.381C275.826 405.938 278.192 414.263 284.852 415.402L304.219 418.907C306.848 419.345 309.126 421.098 310.178 423.552L318.327 441.516C321.132 447.65 329.719 448.001 332.962 442.042L342.251 424.691C343.478 422.325 345.844 420.748 348.56 420.485L368.19 418.294C374.938 417.593 377.829 409.443 373.185 404.536L359.514 390.34Z" fill="#21A3EC" fill-opacity="0.1"/>
<path class="blink" d="M498.586 361.158C496.746 359.231 495.957 356.514 496.483 353.885L500.514 334.606C501.916 328.034 495.081 322.688 488.947 325.58L471.157 334.168C468.704 335.307 465.9 335.22 463.533 333.905L446.445 324.178C440.574 320.848 433.388 325.668 434.352 332.328L436.981 351.87C437.332 354.498 436.368 357.215 434.352 358.968L419.805 372.2C414.81 376.757 417.176 385.082 423.836 386.221L443.203 389.726C445.832 390.164 448.11 391.917 449.162 394.371L457.312 412.335C460.116 418.469 468.704 418.82 471.946 412.861L481.235 395.51C482.462 393.144 484.828 391.566 487.545 391.304L507.174 389.113C513.922 388.412 516.814 380.262 512.169 375.355L498.586 361.158Z" fill="#21A3EC" fill-opacity="0.1"/>
<path class="blink" d="M187.23 536.947C185.39 535.019 184.601 532.302 185.127 529.673L189.158 510.394C190.56 503.822 183.725 498.476 177.59 501.368L159.801 509.956C157.347 511.095 154.543 511.008 152.177 509.693L135.089 499.966C129.218 496.636 122.032 501.456 122.996 508.116L125.625 527.658C125.975 530.287 125.011 533.003 122.996 534.756L108.449 547.988C103.454 552.545 105.82 560.87 112.48 562.009L131.846 565.514C134.475 565.952 136.754 567.705 137.805 570.159L145.955 588.123C148.759 594.257 157.347 594.608 160.59 588.649L169.879 571.298C171.106 568.932 173.472 567.355 176.188 567.092L195.818 564.901C202.565 564.2 205.457 556.05 200.813 551.143L187.23 536.947Z" fill="#21A3EC" fill-opacity="0.1"/>
<path class="blink" d="M326.214 507.765C324.374 505.838 323.585 503.121 324.111 500.492L328.142 481.213C329.544 474.641 322.709 469.295 316.575 472.187L298.785 480.775C296.332 481.914 293.527 481.827 291.161 480.512L274.073 470.785C268.202 467.455 261.016 472.275 261.98 478.935L264.609 498.476C264.959 501.105 263.995 503.822 261.98 505.575L247.521 518.807C242.526 523.364 244.892 531.689 251.552 532.828L270.918 536.333C273.547 536.771 275.826 538.524 276.877 540.978L285.027 558.942C287.831 565.076 296.419 565.427 299.662 559.468L308.951 542.117C310.178 539.751 312.544 538.173 315.26 537.91L334.89 535.72C341.637 535.019 344.529 526.869 339.885 521.962L326.214 507.765Z" fill="#21A3EC" fill-opacity="0.1"/>
<path class="blink" d="M465.286 478.497C463.446 476.569 462.657 473.852 463.183 471.223L467.214 451.944C468.616 445.372 461.781 440.027 455.647 442.918L437.857 451.506C435.404 452.645 432.599 452.558 430.233 451.243L413.145 441.516C407.274 438.186 400.088 443.006 401.052 449.666L403.681 469.208C404.031 471.837 403.067 474.553 401.052 476.306L386.505 489.538C381.51 494.095 383.876 502.42 390.536 503.559L409.903 507.064C412.532 507.502 414.81 509.255 415.862 511.709L424.011 529.673C426.816 535.807 435.404 536.158 438.646 530.199L447.935 512.848C449.162 510.482 451.528 508.905 454.244 508.642L473.874 506.451C480.622 505.75 483.514 497.6 478.869 492.693L465.286 478.497Z" fill="#21A3EC" fill-opacity="0.1"/>
</svg>
