<svg width="370" height="375" viewBox="0 0 370 375" fill="none" xmlns="http://www.w3.org/2000/svg">
<path d="M224.776 354.574C304.632 354.574 369.369 344.765 369.369 332.666C369.369 320.566 304.632 310.758 224.776 310.758C144.92 310.758 80.1832 320.566 80.1832 332.666C80.1832 344.765 144.92 354.574 224.776 354.574Z" fill="#21A3EC"/>
<path d="M360.693 320.835C360.08 315.402 358.678 310.232 355.26 305.938C352.368 302.17 348.425 299.191 344.043 297.087C340.187 295.072 335.806 293.582 331.512 292.531C328.62 291.742 325.728 291.216 322.836 290.69C313.547 289.201 304.171 288.675 294.794 289.113C277.618 289.989 259.916 294.196 244.756 302.608C244.493 302.783 244.318 302.959 244.055 303.222C240.813 306.113 238.008 309.531 235.818 313.387C233.89 316.804 232.575 320.835 233.013 324.779C233.452 329.248 236.168 333.279 239.673 335.996C243.179 338.625 245.37 339.15 249.313 340.728C256.236 340.465 265.35 340.991 272.273 342.48C279.809 344.145 287.082 347.125 293.217 351.857C299 356.238 303.031 362.373 308.552 367.017C313.635 371.311 319.857 373.414 326.604 372.538C327.656 372.363 328.708 372.187 329.759 371.924C342.992 369.296 353.595 358.342 357.889 345.46C358.415 343.882 358.853 342.217 359.203 340.552C361.044 334.155 361.394 327.32 360.693 320.835Z" fill="#E2EDFD"/>
<path opacity="0.46" d="M256.849 308.129C259.04 313.212 262.02 317.33 266.314 320.835C271.046 324.779 275.953 328.985 282 330.738C288.572 332.578 295.846 330.563 301.98 328.196C307.939 325.918 313.547 322.851 318.717 319.17C323.099 316.103 327.481 313.036 332.388 310.933C337.033 308.918 342.203 308.041 347.198 309.268C351.93 310.407 356.224 313.124 358.853 317.243C359.554 318.382 360.167 319.696 360.693 320.923C360.693 320.835 360.693 320.748 360.693 320.748C360.08 315.315 358.678 310.144 355.26 305.851C352.368 302.082 348.425 299.103 344.043 297C340.187 294.984 335.806 293.495 331.512 292.443C328.62 291.654 325.728 291.129 322.836 290.603C313.547 289.113 304.171 288.587 294.794 289.025C280.685 289.726 266.138 292.706 252.993 298.49C254.308 301.82 255.447 304.974 256.849 308.129Z" fill="#E2EDFD"/>
<path d="M345.007 318.119C340.538 317.681 336.682 320.222 333.44 322.939C329.934 325.918 326.867 329.424 324.589 333.455C321.96 338.099 320.382 343.444 320.382 348.878C320.382 351.156 320.558 355.012 322.135 357.378C322.661 358.517 323.537 359.481 324.852 360.007C328.269 361.496 332.651 360.27 335.893 358.868C343.78 355.45 349.827 347.738 352.281 339.589C354.384 332.666 354.909 319.083 345.007 318.119Z" fill="#FFFEFF"/>
<path d="M96.3951 325.831C97.0086 320.573 99.8128 314 103.143 309.706C106.035 305.938 108.751 302.696 113.133 300.68C116.989 298.665 121.283 297.263 125.577 296.211C128.468 295.423 130.133 295.247 133.025 294.809C142.227 293.319 151.428 291.567 160.717 291.917C177.718 292.706 195.332 296.737 210.317 304.887C210.58 305.062 210.755 305.237 211.018 305.413C214.173 308.217 217.064 311.547 219.168 315.315C221.095 318.645 222.41 322.588 221.972 326.444C221.534 330.826 218.905 334.769 215.399 337.486C211.982 340.114 209.791 340.553 205.847 342.13C198.925 341.867 189.898 342.481 183.151 343.97C175.702 345.635 168.429 348.615 162.382 353.259C156.686 357.641 152.655 363.6 147.222 368.156C142.139 372.363 136.881 372.713 130.309 371.925C129.257 371.837 128.206 371.574 127.154 371.311C114.097 368.858 102.529 359.832 98.323 347.213C97.7973 345.635 97.3591 344.058 97.0086 342.393C94.993 336.259 95.6065 332.14 96.3951 325.831Z" fill="#E2EDFD"/>
<path opacity="0.46" d="M198.399 340.114C191.564 339.501 184.728 339.15 177.981 338.362C174.3 337.924 170.619 337.398 166.851 336.872C163.521 336.346 160.104 335.82 156.861 334.944C152.918 333.98 149.062 332.666 145.031 332.14C141.526 331.702 136.881 331.614 135.129 335.382C133.902 338.011 134.69 341.078 135.129 343.707C135.391 345.285 135.654 346.774 135.742 348.352C135.742 349.841 135.479 351.156 135.129 352.558C134.515 354.836 133.376 356.94 131.623 358.605C129.871 360.27 127.592 361.409 125.314 362.11C119.793 363.775 113.922 363.424 108.664 361.058C106.736 360.182 104.808 359.13 103.055 357.904C108.751 365.79 117.602 371.311 127.329 373.151C128.381 373.414 129.432 373.589 130.484 373.765C137.144 374.641 142.49 374.203 147.572 369.909C153.093 365.264 157.124 359.13 162.82 354.661C168.954 349.929 176.228 346.862 183.764 345.197C190.6 343.707 199.713 343.094 206.636 343.357C208.214 342.743 209.528 342.305 210.755 341.779C206.811 340.903 202.605 340.465 198.399 340.114Z" fill="#E2EDFD"/>
<path d="M103.493 342.042C105.334 350.367 110.679 358.517 118.303 362.548C121.458 364.213 125.664 365.703 129.17 364.563C130.572 364.125 131.448 363.249 132.061 362.197C133.814 360.007 134.34 356.151 134.515 353.872C134.953 348.527 133.902 343.094 131.623 338.186C129.695 333.98 126.891 330.212 123.649 326.97C120.669 323.99 116.989 321.098 112.519 321.186C102.529 321.274 101.916 334.944 103.493 342.042Z" fill="#FFFEFF"/>
<path d="M290.588 272.463C288.835 266.066 285.943 260.02 282.876 254.148C279.721 248.014 276.566 241.968 273.938 235.658C271.659 230.137 269.819 224.529 268.329 218.745C263.509 219.622 258.602 220.323 253.782 220.936C246.071 222.075 238.008 222.601 229.771 222.601C224.601 222.601 219.606 222.338 214.698 221.9H214.786C214.611 221.9 214.523 221.9 214.348 221.812C212.332 221.637 210.317 221.374 208.301 221.111C200.239 220.147 192.177 218.921 184.378 216.993C180.96 225.756 176.754 234.168 171.846 242.318C164.836 253.973 156.861 265.453 152.655 278.51C149.15 289.464 148.098 301.907 152.655 312.774C157.562 324.428 168.779 332.228 180.084 337.047C192.265 342.13 205.585 343.97 218.642 344.058C231.787 344.145 245.457 343.094 257.726 338.187C277.881 330.125 291.464 309.706 292.34 288.149C292.516 282.804 291.99 277.458 290.588 272.463Z" fill="#E2EDFD"/>
<path d="M265.7 280.438C265.788 278.773 265.788 277.108 265.788 275.443C265.613 265.277 264.473 255.112 262.896 245.122C262.107 240.04 261.231 235.045 260.355 230.05C259.741 226.807 259.04 223.565 257.989 220.41C256.586 220.586 255.272 220.761 253.87 220.936C246.158 222.075 238.096 222.601 229.859 222.601C224.688 222.601 219.693 222.338 214.786 221.9H214.874C214.698 221.9 214.611 221.9 214.435 221.812C212.42 221.637 210.404 221.374 208.389 221.111C202.78 220.41 197.172 219.622 191.563 218.57C183.764 232.942 179.646 249.153 177.455 265.277C175.264 281.402 177.192 300.943 192.265 310.583C199.713 315.315 209.178 317.155 217.765 318.119C226.529 319.083 235.642 318.645 243.88 315.49C250.715 312.861 256.937 308.217 260.968 302.17C262.984 299.191 264.473 295.861 265.174 292.268C266.138 288.412 266.051 284.381 265.7 280.438Z" fill="#FFFEFF"/>
<path opacity="0.46" d="M178.419 261.422C195.332 257.303 214.348 258.442 229.333 267.819C238.622 273.602 245.369 282.716 250.277 292.443C252.818 297.526 254.483 302.959 256.762 308.129C258.952 313.212 261.932 317.33 266.226 320.836C268.855 323.026 271.571 325.305 274.463 327.233C285.067 317.155 291.639 302.871 292.253 287.974C292.428 282.716 291.902 277.458 290.5 272.376C288.747 265.978 285.855 259.932 282.788 254.061C279.634 247.926 276.479 241.88 273.85 235.57C271.571 230.05 269.731 224.441 268.241 218.658C263.422 219.534 258.514 220.235 253.695 220.848C245.983 221.988 237.921 222.513 229.683 222.513C224.513 222.513 219.518 222.251 214.611 221.812H214.698C214.523 221.812 214.435 221.812 214.26 221.725C212.245 221.549 210.229 221.287 208.214 221.024C200.151 220.06 192.089 218.833 184.29 216.905C180.872 225.668 176.666 234.081 171.759 242.23C166.15 251.607 159.841 260.896 155.459 270.886C162.645 266.592 170.444 263.437 178.419 261.422Z" fill="#E2EDFD"/>
<path d="M146.959 295.598C140.649 296.036 134.603 297.175 128.468 298.577C123.123 299.804 117.514 301.382 112.87 304.273C103.756 309.969 99.3746 321.624 98.7612 331.965C98.4107 337.486 98.9365 344.233 101.828 349.141C102.004 349.403 102.266 349.228 102.266 348.965C101.565 345.635 100.601 342.481 100.426 338.975C100.251 335.821 100.514 332.666 101.127 329.511C102.354 323.202 105.071 316.454 109.102 311.371C113.22 306.201 119.618 303.748 125.752 301.82C132.762 299.629 139.948 297.876 147.134 296.387C147.485 296.211 147.397 295.51 146.959 295.598Z" fill="#E2EDFD"/>
<path d="M355.698 313.299C355.435 312.773 354.734 313.124 354.822 313.65C357.1 324.691 357.889 336.434 352.631 346.774C350.265 351.331 347.023 355.45 342.904 358.517C338.435 361.759 333.264 363.687 328.445 366.316C328.269 366.404 328.357 366.754 328.62 366.667C339.662 364.301 349.739 357.553 354.822 347.388C359.992 336.872 360.343 324.165 355.698 313.299Z" fill="#E2EDFD"/>
<path d="M112.257 19.1214C103.055 17.7193 93.5033 18.6833 84.7401 22.0133C80.2709 23.6783 76.0645 25.869 72.2087 28.5856C68.6158 31.1269 64.76 34.1064 62.7445 38.1374C60.729 42.0808 61.3424 46.55 62.6568 50.6687C63.9713 54.9626 65.9869 59.0812 68.1777 62.937C72.9098 70.9991 79.3069 78.0096 86.9309 83.4427C94.2044 88.7006 103.143 93.1698 112.169 94.0461C119.793 94.7471 126.891 91.5924 133.551 87.9119C140.386 85.7211 146.871 81.953 150.815 75.9941C155.547 68.9836 156.248 59.8699 153.794 51.8955C148.361 34.194 130.046 21.9256 112.257 19.1214Z" fill="#21A3EC"/>
<path d="M119.442 74.5043C112.169 66.6175 102.617 60.9215 92.1888 58.2049C88.9464 57.4162 81.1472 54.8749 80.4461 60.2204C80.1832 62.4112 81.4101 64.602 82.4617 66.3546C83.7761 68.4577 85.2659 70.3856 86.9309 72.1383C87.5443 72.7517 88.1577 73.3651 88.8588 73.9785C93.4157 78.623 99.3746 82.0406 105.597 83.8808C109.803 85.1077 115.411 86.2469 119.618 84.6695C121.37 84.0561 122.86 82.654 122.948 80.7261C123.123 78.3601 121.02 76.2569 119.442 74.5043Z" fill="#FBDDEA"/>
<path opacity="0.51" d="M153.706 51.9831C148.361 34.1064 130.046 21.838 112.257 19.1214C103.055 17.7193 93.5033 18.6833 84.7401 22.0133C80.5338 23.5906 76.5027 25.6938 72.7345 28.2351C73.5232 28.0598 74.2243 27.9722 75.013 27.8846C79.5698 27.2711 84.1267 27.9722 88.4207 29.3743C92.7146 30.7764 96.6581 33.2301 99.9004 36.3848C103.143 39.5395 105.597 43.4829 107.174 47.6892C109.102 52.6842 109.715 58.2049 109.54 63.5504C109.452 66.4423 109.102 69.3341 108.488 72.1383C107.963 74.5043 107.086 76.7827 106.122 78.9735C104.37 83.0046 101.916 87.2108 98.0602 89.5769C97.8849 89.6645 97.7096 89.8398 97.4467 89.9274C102.091 92.1182 107.086 93.6956 112.081 94.2213C119.705 94.9224 126.803 91.7677 133.463 88.0872C140.299 85.8964 146.784 82.1282 150.727 76.1693C155.459 69.0712 156.16 59.9576 153.706 51.9831Z" fill="#21A3EC"/>
<path d="M247.56 43.6582C246.596 51.8956 248.875 60.7463 254.746 66.7929C259.741 71.9631 266.752 74.5044 273.85 75.4684C281.036 77.8344 288.572 79.7623 295.933 77.7468C304.696 75.2931 312.671 69.2465 318.893 62.8495C325.377 56.1895 330.46 48.1274 333.703 39.3643C335.28 35.158 336.419 30.7765 337.033 26.3073C337.558 22.0133 337.383 17.5442 334.666 13.9513C331.95 10.3584 327.656 8.08 323.625 6.15211C319.331 4.13659 314.774 2.7345 310.13 1.85819C300.928 0.193198 291.376 0.894236 282.525 3.8737C265.525 9.83261 249.663 25.1681 247.56 43.6582Z" fill="#21A3EC"/>
<path d="M283.227 66.6175C283.665 68.5454 285.417 69.597 287.258 69.9475C291.727 70.7362 296.985 68.6331 300.928 66.7052C306.712 63.8133 311.97 59.4318 315.65 53.9987C316.176 53.2976 316.702 52.5966 317.228 51.8079C318.542 49.7924 319.681 47.6016 320.645 45.3232C321.434 43.3077 322.223 41.0292 321.609 38.9261C319.944 33.7559 312.759 37.6116 309.691 39.0137C299.877 43.4829 291.464 50.7563 285.68 59.8699C284.366 61.7102 282.701 64.1639 283.227 66.6175Z" fill="#FBDDEA"/>
<path opacity="0.51" d="M323.625 56.8028C319.857 58.3801 315.563 58.9059 311.532 58.5554C309.604 58.3801 307.763 57.942 305.923 57.2409C304.083 56.5399 302.418 55.4883 300.928 54.3491C297.511 51.8078 294.706 48.5654 292.603 44.9725C290.412 41.292 289.01 37.1734 288.309 32.9671C287.608 28.7608 287.696 24.4669 288.572 20.3482C289.448 16.2295 291.201 12.1985 293.83 8.86852C295.144 7.20353 296.634 5.53852 298.387 4.31169C300.052 3.17248 301.98 2.29617 303.908 1.68275C304.346 1.59512 304.696 1.41987 305.135 1.33223C297.598 0.718816 289.887 1.59513 282.701 4.04881C265.7 9.92009 249.839 25.2555 247.648 43.7457C246.684 51.983 248.962 60.8338 254.834 66.8803C259.829 72.0506 266.839 74.5919 273.938 75.5558C281.123 77.9219 288.66 79.8497 296.021 77.8342C304.784 75.3806 312.759 69.334 318.98 62.9369C320.908 60.9214 322.749 58.7306 324.501 56.4522C324.151 56.5399 323.888 56.6275 323.625 56.8028Z" fill="#21A3EC"/>
<path d="M323.274 128.661C323.274 126.47 323.187 124.367 322.924 122.176C316.79 52.9472 264.035 25.4311 202.43 30.9518C140.825 36.4726 93.7662 72.8395 99.9004 142.068C100.076 144.259 100.339 146.362 100.777 148.465C96.1323 156.615 93.9415 165.203 94.7301 173.966C98.0602 211.384 154.583 240.478 220.57 234.607C286.557 228.735 337.033 190.09 333.703 152.672C333.001 143.908 329.321 135.846 323.274 128.661Z" fill="#E2EDFD"/>
<path opacity="0.46" d="M248.524 177.033C250.014 193.683 236.782 208.492 218.992 210.07C201.203 211.647 185.605 199.466 184.115 182.729C182.625 166.079 195.857 152.321 213.647 150.744C231.436 149.254 247.035 160.383 248.524 177.033Z" fill="#F6D7D7"/>
<path opacity="0.46" d="M323.274 128.661C323.274 126.47 323.187 124.367 322.924 122.176C316.79 52.9472 264.035 25.4311 202.43 30.9518C178.331 33.055 156.511 39.9778 139.247 51.6328C143.979 49.7049 148.799 48.0399 153.706 46.6378C159.841 44.7976 166.063 43.3078 172.284 41.9057C177.893 40.5913 183.414 39.4521 189.11 38.751C200.502 37.4365 212.069 37.5242 223.374 39.3644C234.503 41.2047 245.37 44.8852 255.184 50.4936C263.947 55.5762 271.484 62.2362 277.706 70.2106C283.402 77.484 287.959 85.6337 291.376 94.1339C294.794 102.809 297.072 112.011 298.124 121.3C299.176 130.501 298.913 139.965 297.335 149.079C295.758 158.105 292.954 167.043 288.66 175.193C284.366 183.342 278.757 190.703 271.922 196.925C266.226 202.095 259.916 206.477 253.256 210.245C246.509 214.013 239.411 217.08 232.049 219.622C224.338 222.251 216.451 224.266 208.476 225.668C200.239 227.158 191.826 228.034 183.414 228.297C175.089 228.56 166.764 228.21 158.439 227.246C153.356 226.632 148.186 225.756 143.191 224.617C164.748 233.117 191.739 237.236 220.482 234.694C286.469 228.823 336.945 190.178 333.615 152.759C333.001 143.908 329.321 135.846 323.274 128.661Z" fill="#E2EDFD"/>
<path d="M318.279 146.712C318.279 146.625 318.104 146.625 318.104 146.712C318.104 148.991 316.527 152.145 314.073 151.006C312.583 150.305 311.093 147.501 310.568 145.924C310.392 145.485 309.779 145.573 309.779 146.099C310.13 149.341 311.532 153.635 315.037 153.285C318.104 153.109 319.068 149.604 318.279 146.712Z" fill="black"/>
<path d="M315.563 138.037C315.475 137.774 315.212 138.037 315.212 138.212C315.738 140.666 314.686 142.944 312.233 142.594C310.568 142.331 309.516 141.279 308.377 139.965C308.202 139.79 308.026 140.053 308.026 140.228C308.465 141.455 309.078 143.12 310.13 143.908C311.181 144.785 312.671 144.872 313.898 144.522C315.125 144.171 316.001 143.558 316.176 142.068C316.351 140.666 316.176 139.264 315.563 138.037Z" fill="black"/>
<path d="M311.094 148.114C310.042 140.228 306.011 132.954 299.614 128.66C287.17 120.248 270.169 124.98 262.984 138.3C258.777 146.187 258.339 155.563 261.669 163.888C261.757 164.151 262.195 164.063 262.107 163.713C258.339 149.604 264.21 133.655 277.618 128.397C283.577 126.031 290.149 126.382 295.933 129.361C302.155 132.604 306.274 138.3 308.026 145.223C309.078 149.254 309.691 153.372 309.779 157.579C309.779 158.981 309.867 160.558 309.867 162.223C311.532 157.053 311.707 153.022 311.094 148.114Z" fill="black"/>
<path d="M109.89 165.29C109.89 165.203 110.066 165.203 110.066 165.29C110.504 167.481 112.607 170.373 114.798 168.795C116.112 167.831 117.076 164.852 117.339 163.187C117.427 162.661 118.128 162.749 118.128 163.275C118.391 166.517 117.69 170.986 114.184 171.337C111.205 171.512 109.628 168.27 109.89 165.29Z" fill="black"/>
<path d="M111.03 156.177C111.117 155.914 111.38 156.089 111.38 156.264C111.293 158.805 112.782 160.909 115.061 160.032C116.638 159.507 117.514 158.28 118.391 156.79C118.478 156.615 118.741 156.79 118.741 156.965C118.566 158.28 118.216 160.032 117.339 160.996C116.463 162.048 114.973 162.398 113.746 162.223C112.432 162.135 111.468 161.61 111.03 160.208C110.679 158.981 110.679 157.579 111.03 156.177Z" fill="black"/>
<path d="M117.252 165.378C116.901 157.403 119.53 149.604 125.138 144.171C135.917 133.655 153.444 135.32 162.908 147.238C168.429 154.249 170.532 163.45 168.692 172.213C168.604 172.564 168.166 172.476 168.253 172.125C169.48 157.579 160.892 142.944 146.784 140.14C140.474 138.913 134.077 140.403 128.907 144.346C123.386 148.64 120.319 154.95 119.793 162.135C119.442 166.342 119.618 170.46 120.319 174.579C120.582 175.981 120.757 177.559 121.107 179.224C118.391 174.316 117.427 170.285 117.252 165.378Z" fill="black"/>
<path opacity="0.65" d="M133.188 219.735C142.829 218.877 149.912 209.935 149.006 199.763C148.1 189.591 139.55 182.041 129.908 182.899C120.266 183.757 113.184 192.699 114.09 202.871C114.995 213.043 123.546 220.594 133.188 219.735Z" fill="#8FCCF2"/>
<path d="M323.888 129.274L323.8 129.186C324.326 123.403 323.975 117.531 323.011 111.748C321.434 101.407 318.104 91.2419 313.284 81.953C310.918 77.3962 308.289 73.0146 305.222 68.8959C302.067 64.6897 298.299 61.1844 294.356 57.6792C294.268 57.5915 294.093 57.7668 294.181 57.8544C298.825 62.5865 302.856 68.0196 306.624 73.4528C310.392 78.8859 313.547 84.7572 316.089 90.8914C321.171 103.16 323.099 116.042 323.45 129.274C323.45 129.361 323.45 129.361 323.537 129.361V129.449C326.517 134.356 329.321 139.264 330.986 144.785C332.651 150.13 333.264 155.826 332.914 161.434C332.213 171.6 328.006 181.151 321.259 188.863C314.774 196.312 306.449 202.183 298.124 207.528C281.912 217.869 264.123 225.493 245.632 230.663C256.236 228.472 266.489 225.405 276.479 221.111C286.206 216.905 295.495 211.647 304.171 205.688C312.671 199.817 321.084 193.157 326.867 184.481C332.3 176.244 335.105 166.342 334.667 156.439C334.404 146.888 330.898 136.197 323.888 129.274Z" fill="black"/>
<path d="M336.857 16.668C332.563 6.76566 319.681 3.08515 310.042 1.68305C297.949 -0.0695709 285.242 1.59542 274.376 7.20382C269.118 9.92038 264.298 13.5133 260.092 17.7196C255.973 21.9258 252.03 27.0085 250.54 32.7921C246.684 31.8282 242.828 31.0395 238.885 30.5137C230.472 29.2869 221.972 28.7611 213.384 28.9363C196.208 29.3745 179.12 32.6168 163.083 38.751C158.877 40.3284 154.846 42.081 150.815 44.0965C139.072 23.5032 113.483 14.1267 90.8743 19.2093C84.9154 20.5237 79.2193 22.8022 74.049 25.9569C69.3169 28.8487 64.4095 32.5292 62.1311 37.7871C59.6774 43.4831 61.0795 49.8802 63.2703 55.4009C65.5487 61.1846 68.6158 66.7054 72.2964 71.7003C80.1832 82.3913 92.0136 91.4174 105.509 92.8195C105.772 92.8195 105.859 92.4689 105.597 92.3813C94.5549 89.2266 84.4772 83.3553 76.8532 74.6798C72.9098 70.2106 69.6674 65.128 67.0385 59.7825C64.4095 54.437 61.6929 48.2152 62.5692 42.1687C63.4455 36.2974 67.8271 32.0911 72.5593 28.9363C77.379 25.694 82.8122 23.2403 88.4207 21.663C99.6376 18.5082 111.731 18.9464 122.597 22.9774C133.726 27.1837 143.191 34.8953 150.289 44.3594C150.114 44.4471 149.938 44.5347 149.675 44.6223C145.381 46.7255 141.613 49.3544 137.757 52.1586C137.67 52.2462 137.757 52.4215 137.933 52.3339C141.789 50.2307 145.82 48.4781 149.763 46.4626C153.531 44.5347 157.387 42.7821 161.33 41.2923C169.13 38.2253 177.104 35.7716 185.342 34.019C201.816 30.5137 218.817 29.725 235.467 31.7405C240.112 32.354 244.668 33.1426 249.225 34.019C253.957 34.9829 258.602 36.4726 263.334 37.4366C263.685 37.5242 263.772 36.9984 263.509 36.9108C259.654 35.1582 255.447 34.019 251.328 32.9674C251.241 32.9674 251.153 32.8797 251.066 32.8797C253.782 28.8487 256.236 24.5548 259.478 20.8743C262.896 16.9309 266.927 13.5133 271.396 10.7967C281.123 4.75015 292.691 2.12122 304.083 2.73464C309.867 3.08516 315.65 4.13672 321.084 6.06461C325.816 7.7296 330.548 10.2709 333.615 14.3896C337.295 19.3845 336.507 25.5187 335.192 31.1271C333.965 36.1221 332.213 40.9418 329.934 45.4986C324.589 56.102 316.877 64.6022 307.501 71.788C307.325 71.9632 307.501 72.2261 307.676 72.0509C317.052 66.5301 324.501 58.0299 329.934 48.6534C332.651 44.0089 334.754 39.0139 336.244 33.8437C337.734 28.4982 339.223 22.1887 336.857 16.668Z" fill="black"/>
<path opacity="0.65" d="M305.125 205.982C314.767 205.124 321.849 196.182 320.944 186.01C320.038 175.838 311.487 168.288 301.846 169.146C292.204 170.005 285.122 178.946 286.027 189.119C286.933 199.291 295.484 206.841 305.125 205.982Z" fill="#8FCCF2"/>
<path d="M166.325 297.351L166.413 297.175C166.413 297.263 166.325 297.351 166.325 297.351Z" fill="#FCBF90"/>
<path d="M151.34 290.253C151.34 290.165 151.428 290.165 151.428 290.077L151.34 290.253Z" fill="#FCBF90"/>
<path d="M181.398 304.537L181.486 304.361C181.398 304.449 181.398 304.449 181.398 304.537Z" fill="#E86EA7"/>
<path d="M166.325 297.351C166.325 297.263 166.413 297.263 166.413 297.175L166.325 297.351Z" fill="#E86EA7"/>
<path d="M181.398 304.537C181.398 304.449 181.486 304.449 181.486 304.361L181.398 304.537Z" fill="#85BADF"/>
<path d="M196.383 311.635L196.471 311.459C196.471 311.547 196.383 311.547 196.383 311.635Z" fill="#85BADF"/>
<path d="M196.383 311.635C196.383 311.547 196.471 311.547 196.471 311.459L196.383 311.635Z" fill="#659E90"/>
<path d="M211.368 318.734L211.456 318.557C211.456 318.645 211.456 318.734 211.368 318.734Z" fill="#659E90"/>
<path d="M226.441 325.832L226.529 325.656C226.441 325.744 226.441 325.832 226.441 325.832Z" fill="#F1EA81"/>
<path d="M211.456 318.734C211.456 318.645 211.456 318.645 211.544 318.557L211.456 318.734Z" fill="#F1EA81"/>
<path d="M184.728 219.709L151.34 290.165C153.268 286.046 158.263 284.206 162.382 286.221C166.501 288.149 168.341 293.144 166.325 297.263L211.894 201.131C199.976 202.709 189.723 209.193 184.728 219.709Z" fill="#6B2C57"/>
<path d="M211.894 201.131L166.413 297.263C168.341 293.144 173.336 291.304 177.455 293.319C181.573 295.247 183.414 300.242 181.398 304.361L229.683 202.446C223.637 200.869 217.59 200.43 211.894 201.131Z" fill="#E86EA7"/>
<path d="M237.483 205.425C234.941 204.198 232.312 203.234 229.683 202.533L181.398 304.448C183.326 300.33 188.321 298.49 192.44 300.505C196.558 302.521 198.399 307.428 196.383 311.547L244.668 209.632C242.478 208.054 240.024 206.652 237.483 205.425Z" fill="#85BADF"/>
<path d="M244.668 209.632L196.383 311.547C198.311 307.428 203.306 305.588 207.425 307.603C211.544 309.531 213.384 314.526 211.368 318.645L256.849 222.513C253.957 217.606 249.839 213.224 244.668 209.632Z" fill="#659E90"/>
<path d="M226.529 325.743C228.457 321.624 226.704 316.629 222.585 314.701C218.467 312.774 213.471 314.526 211.544 318.645L257.025 222.513C263.246 232.416 264.824 244.246 260.267 254.586L226.529 325.743Z" fill="#EAB595"/>
<path d="M191.301 205.776L190.95 206.565C191.125 206.302 191.213 206.039 191.301 205.776Z" fill="#F1EA81"/>
<path d="M222.585 314.614C218.466 312.686 213.471 314.439 211.544 318.557C213.471 314.439 211.719 309.444 207.6 307.516C203.481 305.588 198.486 307.34 196.558 311.459C198.486 307.34 196.734 302.345 192.615 300.418C188.496 298.49 183.501 300.242 181.573 304.361C183.501 300.242 181.749 295.247 177.63 293.319C173.511 291.392 168.516 293.144 166.588 297.263C168.516 293.144 166.764 288.149 162.645 286.221C158.526 284.293 153.531 286.046 151.603 290.165L174.3 339.413L226.704 325.918L227.142 324.867C228.194 320.836 226.441 316.454 222.585 314.614Z" fill="#21A3EC"/>
<path d="M179.12 329.423C175.264 327.583 171.408 326.444 167.815 325.918L174.037 339.413L188.584 335.645C186.043 333.367 182.8 331.176 179.12 329.423Z" fill="#2C1537"/>
<path d="M212.069 312.16C211.193 310.232 209.44 308.392 207.512 307.341C205.585 306.289 203.219 306.289 201.203 306.99C199.012 307.779 197.522 309.444 196.383 311.459C196.383 311.547 196.471 311.547 196.471 311.547C198.749 308.305 203.219 305.763 207.074 307.866C208.739 308.743 210.317 310.408 211.281 312.073C212.507 314.263 212.157 316.367 211.368 318.645C211.368 318.733 211.456 318.733 211.456 318.733C212.595 316.629 213.033 314.263 212.069 312.16Z" fill="#2C1537"/>
<path d="M196.909 304.974C196.033 303.047 194.28 301.206 192.352 300.155C190.424 299.103 188.058 299.103 186.043 299.804C183.852 300.593 182.362 302.258 181.223 304.273C181.223 304.361 181.311 304.361 181.311 304.361C183.589 301.119 188.058 298.577 191.914 300.681C193.579 301.557 195.156 303.222 196.12 304.887C197.347 307.078 196.997 309.181 196.208 311.459C196.208 311.547 196.296 311.547 196.296 311.547C197.522 309.444 197.961 307.165 196.909 304.974Z" fill="#2C1537"/>
<path d="M181.836 297.789C180.96 295.861 179.207 294.021 177.279 292.969C175.352 291.917 172.985 291.917 170.97 292.618C168.779 293.407 167.289 295.072 166.15 297.088C166.15 297.175 166.238 297.175 166.238 297.175C168.516 293.933 172.985 291.392 176.841 293.495C178.506 294.371 180.084 296.036 181.048 297.701C182.274 299.892 181.924 301.995 181.135 304.273C181.135 304.361 181.223 304.361 181.223 304.361C182.362 302.346 182.8 299.979 181.836 297.789Z" fill="#2C1537"/>
<path d="M263.334 244.246C263.86 237.236 262.195 230.225 258.952 224.003C251.416 209.544 235.905 201.57 219.956 200.781C212.157 200.43 203.832 201.482 196.997 205.338C189.548 209.544 185.254 217.08 181.661 224.617C176.754 235.045 172.022 245.473 167.114 255.901C162.294 266.329 156.949 276.67 152.918 287.448C152.129 288.237 151.516 289.113 150.99 290.077C150.99 290.165 151.078 290.165 151.078 290.165C151.078 290.165 151.078 290.165 151.078 290.077C152.129 293.232 153.619 296.299 154.933 299.366C156.248 302.433 157.65 305.588 158.964 308.655C160.191 311.547 161.769 314.176 163.258 316.98C164.748 319.872 166.15 322.764 167.64 325.655C167.64 325.743 167.815 325.655 167.728 325.568C166.676 322.676 165.449 319.959 164.047 317.243C162.47 314.263 160.805 311.371 159.403 308.304C158 305.237 156.686 302.083 155.284 299.016C153.969 295.948 152.743 292.881 151.078 289.902C153.444 286.835 157.738 284.469 161.506 286.484C163.171 287.361 164.748 289.026 165.712 290.691C166.939 292.881 166.588 294.984 165.8 297.263C165.8 297.351 165.887 297.351 165.887 297.351C167.027 295.335 167.465 292.969 166.413 290.866C165.537 288.938 163.784 287.098 161.856 286.046C159.928 284.995 157.562 284.995 155.547 285.696C154.67 286.046 153.882 286.484 153.181 287.098C157.738 278.86 161.506 270.097 165.449 261.597C169.568 252.746 173.599 243.896 177.805 235.045C181.573 227.158 184.816 218.307 190.775 211.735C196.471 205.425 204.708 202.797 213.033 202.183C229.158 200.956 246.333 207.178 255.535 221.024C259.566 227.07 261.932 234.256 262.02 241.617C262.107 250.555 257.901 258.618 254.133 266.504C245.194 285.52 236.081 304.449 227.317 323.552C227.668 322.15 227.58 320.748 226.967 319.434C226.09 317.506 224.338 315.665 222.41 314.614C220.482 313.562 218.116 313.562 216.1 314.263C213.91 315.052 212.42 316.717 211.281 318.733C211.281 318.82 211.368 318.82 211.368 318.82C213.647 315.578 218.116 313.036 221.972 315.14C223.637 316.016 225.214 317.681 226.178 319.346C227.317 321.361 227.054 323.377 226.441 325.48C223.199 326.181 220.044 327.233 216.889 328.197C213.734 329.161 210.58 330.037 207.337 330.826C201.203 332.228 194.981 333.104 189.197 335.47C189.11 335.47 189.197 335.558 189.197 335.558C195.156 333.717 201.291 332.754 207.337 331.439C210.492 330.738 213.559 329.862 216.714 328.898C219.956 327.934 223.199 327.057 226.353 325.831V325.918C226.353 326.006 226.441 326.006 226.441 326.006C226.529 325.831 226.616 325.655 226.704 325.392C226.792 325.392 226.879 325.393 226.879 325.305C235.993 307.078 244.844 288.763 253.695 270.36C257.726 261.948 262.633 253.447 263.334 244.246Z" fill="#2C1537"/>
<path d="M221.709 298.227C224.601 292.18 227.405 286.134 230.297 280C235.993 267.906 241.689 255.901 247.385 243.808C250.627 236.973 253.782 230.225 256.937 223.39C256.937 223.302 256.849 223.215 256.849 223.302C250.978 235.308 245.282 247.401 239.586 259.406C233.89 271.499 228.106 283.505 222.41 295.598C219.168 302.345 215.838 309.093 212.858 316.016C212.77 316.191 213.033 316.279 213.121 316.104C216.188 310.32 218.905 304.273 221.709 298.227Z" fill="#2C1537"/>
<path d="M206.987 289.814C210.054 283.33 213.033 276.933 216.1 270.448C222.147 257.566 228.281 244.772 234.328 231.89C237.746 224.617 241.163 217.431 244.493 210.158C244.493 210.07 244.406 209.982 244.406 210.07C238.184 222.864 232.137 235.746 226.003 248.54C219.869 261.422 213.734 274.216 207.688 287.01C204.27 294.196 200.677 301.469 197.522 308.83C197.435 309.006 197.698 309.093 197.785 308.918C201.115 302.696 204.007 296.211 206.987 289.814Z" fill="#2C1537"/>
<path d="M191.739 282.629C194.806 276.144 197.785 269.747 200.852 263.262C206.899 250.38 213.033 237.586 219.08 224.704C222.498 217.431 225.915 210.245 229.245 202.972C229.245 202.884 229.158 202.797 229.158 202.884C222.936 215.678 216.889 228.56 210.755 241.354C204.621 254.236 198.486 267.03 192.44 279.824C189.022 287.01 185.429 294.283 182.274 301.645C182.187 301.82 182.45 301.907 182.537 301.732C185.78 295.51 188.759 289.026 191.739 282.629Z" fill="#2C1537"/>
<path d="M175.965 276.582C178.857 270.535 181.661 264.489 184.553 258.355C190.249 246.262 195.945 234.256 201.641 222.163C204.884 215.328 208.038 208.58 211.193 201.745C211.193 201.657 211.105 201.57 211.105 201.657C205.234 213.663 199.538 225.756 193.842 237.761C188.146 249.855 182.362 261.86 176.666 273.953C173.424 280.701 170.094 287.448 167.114 294.371C167.027 294.546 167.289 294.634 167.377 294.459C170.357 288.675 173.073 282.541 175.965 276.582Z" fill="#2C1537"/>
<path opacity="0.63" d="M194.105 225.668C195.945 225.931 197.873 226.369 199.626 226.983L211.894 201.132C199.976 202.709 189.723 209.194 184.728 219.709L181.486 226.545C185.517 225.318 189.898 225.055 194.105 225.668Z" fill="#6B2C57"/>
<path opacity="0.63" d="M210.317 232.153C211.631 233.029 212.946 233.993 214.26 235.045L229.683 202.446C223.637 200.781 217.59 200.343 211.894 201.131L199.626 226.983C203.481 228.21 207.074 229.962 210.317 232.153Z" fill="#E86EA7"/>
<path opacity="0.63" d="M222.498 244.421C223.637 246.262 224.688 248.102 225.565 250.117L244.756 209.632C242.565 208.054 240.112 206.652 237.57 205.426C235.029 204.199 232.4 203.235 229.771 202.534L214.348 235.132C217.415 237.761 220.307 240.916 222.498 244.421Z" fill="#85BADF"/>
<path opacity="0.63" d="M244.668 209.632L225.477 250.117C227.317 254.236 228.544 258.705 229.158 263.087C229.946 269.396 229.333 275.793 227.58 281.84C225.828 287.974 222.936 293.845 219.43 299.191C216.889 303.134 213.997 306.902 210.93 310.495C212.42 312.861 212.77 315.928 211.456 318.645L256.937 222.514C253.957 217.606 249.839 213.225 244.668 209.632Z" fill="#659E90"/>
<path opacity="0.63" d="M226.529 325.743C228.457 321.624 226.704 316.629 222.585 314.701C218.467 312.774 213.471 314.526 211.544 318.645L257.025 222.513C263.246 232.416 264.824 244.246 260.267 254.586L226.529 325.743Z" fill="#EAB595"/>
<path opacity="0.63" d="M210.93 310.495C209.703 311.985 208.389 313.387 207.074 314.789C202.605 319.609 197.785 324.078 192.79 328.372C189.285 331.351 185.78 334.418 182.187 337.31L226.529 325.831L226.967 324.779C228.281 320.836 226.529 316.454 222.673 314.614C218.554 312.686 213.559 314.439 211.631 318.557C212.77 315.928 212.42 312.861 210.93 310.495Z" fill="#21A3EC"/>
<path d="M306.449 249.416C305.398 240.478 302.155 231.715 297.423 224.091C295.32 220.673 292.954 217.519 290.237 214.539C285.768 216.993 281.211 219.271 276.567 221.287C274.376 222.251 272.097 223.127 269.907 224.003C270.52 225.756 271.133 227.508 271.659 229.261C264.736 227.684 258.602 226.019 251.592 224.967C242.478 223.653 233.014 224.441 225.214 230.137C217.766 235.658 216.451 247.05 218.992 254.937C221.884 264.051 226.441 270.711 234.941 274.917C244.23 279.561 257.112 281.139 267.365 280.262C276.742 279.474 286.995 277.633 295.32 272.901C298.913 270.798 302.155 267.994 304.258 264.401C306.712 259.844 306.975 254.499 306.449 249.416Z" fill="#E2EDFD"/>
<g opacity="0.46">
<path d="M306.449 249.416C305.397 240.478 302.155 231.715 297.423 224.091C295.32 220.673 292.954 217.519 290.237 214.539C285.768 216.993 281.211 219.271 276.566 221.287C274.376 222.251 272.097 223.127 269.906 224.003C270.432 225.493 270.958 227.07 271.396 228.56C272.273 228.998 273.149 229.349 274.113 229.699C277.969 231.189 282.35 232.153 285.417 235.132C286.732 236.447 287.696 238.112 288.397 239.777C289.01 241.179 289.361 242.756 289.448 244.334C289.536 250.731 284.103 255.638 279.108 258.793C276.128 260.721 272.798 262.21 269.468 263.437C266.489 264.576 263.334 265.453 260.179 265.979C258.602 266.241 256.937 266.417 255.36 266.504C252.993 266.68 250.54 266.68 248.174 266.592C243.179 266.417 238.096 265.803 233.364 264.314C230.998 263.613 228.632 262.649 226.441 261.422C224.513 260.37 222.673 259.143 221.358 257.478C219.518 255.112 218.729 252.133 217.765 249.241C217.941 251.257 218.291 253.272 218.817 255.025C221.709 264.138 226.266 270.798 234.766 275.005C244.055 279.649 256.937 281.226 267.19 280.35C276.566 279.561 286.819 277.721 295.144 272.989C298.737 270.886 301.98 268.082 304.083 264.489C306.712 259.844 306.975 254.499 306.449 249.416Z" fill="#E2EDFD"/>
</g>
<path d="M280.159 235.483C275.427 231.189 268.943 229.524 262.808 228.56C255.973 227.509 248.524 226.545 241.601 227.07C235.292 227.596 228.544 229.436 225.039 235.045C222.147 239.602 220.745 245.21 221.095 250.643C221.446 256.427 224.075 262.736 228.369 266.68C228.719 266.943 229.333 266.592 229.07 266.242C226.178 262.035 224.425 257.654 223.987 252.571C223.549 247.576 224.25 242.493 226.616 238.024C228.018 235.483 229.771 233.467 232.4 232.241C235.292 230.926 238.534 230.225 241.689 229.962C247.823 229.436 254.308 230.313 260.442 231.101C263.772 231.54 267.102 232.241 270.345 233.117C271.922 233.555 273.587 233.73 275.077 234.256C276.654 234.87 278.319 235.483 279.897 236.009C280.159 236.096 280.422 235.746 280.159 235.483Z" fill="#E2EDFD"/>
<path d="M359.729 313.036C358.59 309.531 356.837 306.289 354.121 303.747C351.404 301.119 348.162 299.191 344.832 297.438C337.033 293.407 328.445 291.129 319.769 289.902C310.918 288.675 301.805 288.149 292.954 288.763C292.954 288.763 292.954 288.763 292.866 288.763C293.304 284.206 292.866 279.211 291.026 275.004C292.866 273.953 294.619 272.814 296.284 271.499C299.176 269.308 301.98 266.855 303.908 263.7C308.377 256.251 307.501 247.05 304.521 239.163C302.944 234.782 300.753 230.663 298.387 226.72C295.933 222.338 293.392 218.044 290.149 214.188C289.799 213.838 289.273 214.276 289.448 214.714C296.459 227.596 308.552 241.88 304.521 257.653C302.593 265.19 296.284 270.097 289.887 273.778C282.876 277.809 274.901 279.386 266.927 279.737C259.04 280.087 251.066 279.561 243.354 277.721C236.256 275.968 229.508 272.726 225.039 266.767C220.92 261.159 218.992 254.148 218.554 247.225C218.291 243.457 218.554 239.689 220.394 236.271C221.972 233.38 224.338 231.014 227.054 229.261C234.24 224.617 243.091 224.441 251.329 225.493C260.53 226.632 269.205 228.823 277.969 231.89C278.319 231.978 278.582 231.452 278.232 231.276C275.953 230.137 273.587 229.086 271.221 228.297C270.783 226.895 270.257 225.405 269.556 224.178C269.468 224.003 269.205 224.091 269.293 224.266C269.556 225.493 269.906 226.72 270.169 227.947C264.561 226.106 258.777 224.967 252.906 224.178C245.019 223.039 236.694 222.689 229.245 226.106C223.286 228.823 218.204 234.081 217.064 240.653C215.838 247.751 217.503 255.988 220.57 262.473C227.668 277.546 244.931 280.963 260.092 281.402C268.68 281.664 277.618 280.876 285.593 277.633C287.17 277.02 288.747 276.231 290.149 275.443C290.5 277.984 291.026 280.438 291.289 282.979C291.639 285.783 291.727 288.587 291.814 291.391C291.814 291.654 292.165 291.742 292.253 291.479C292.34 290.778 292.428 290.077 292.516 289.376H292.603C300.227 289.902 307.764 289.989 315.387 290.953C323.011 291.917 330.548 293.582 337.646 296.386C344.657 299.103 352.456 303.046 356.136 309.969C359.817 317.067 360.255 325.918 359.379 333.717C357.801 348.264 350.177 362.46 336.507 368.945C330.022 372.012 322.048 373.327 315.125 371.136C308.026 368.857 303.557 361.584 298.387 356.589C292.34 350.893 285.505 346.336 277.53 344.058C273.061 342.743 268.417 341.867 263.86 340.903C260.179 340.114 255.885 338.975 252.117 339.851C253.256 339.326 254.308 338.625 255.36 338.011C255.535 337.924 255.36 337.573 255.184 337.661C245.895 342.48 235.379 343.707 225.039 343.707C213.647 343.707 202.605 341.779 191.388 339.939C191.125 339.939 191.038 340.202 191.301 340.29C193.229 340.991 195.244 341.604 197.347 342.13C185.429 343.094 173.336 345.372 163.171 351.945C158.088 355.187 154.145 359.656 149.938 363.775C147.748 365.878 145.469 367.893 142.752 369.383C139.598 371.048 136.18 371.662 132.675 371.574C119.442 371.399 106.823 363.775 100.514 352.12C93.7662 339.501 95.1683 324.253 102.354 312.16C106.648 304.887 114.009 301.294 121.896 298.84C129.871 296.386 138.196 295.948 146.17 293.758C146.521 293.67 146.433 293.144 146.083 293.144C138.546 293.144 130.659 294.721 123.386 296.737C116.638 298.665 109.365 301.294 104.457 306.552C99.6376 311.722 96.7457 319.083 95.256 325.83C93.7662 332.403 94.0291 339.326 96.0446 345.81C99.9005 358.517 110.241 368.419 123.035 371.925C129.17 373.59 136.355 374.115 142.314 371.399C148.01 368.77 152.041 363.775 156.423 359.481C167.815 348.264 183.501 345.197 198.662 342.393C207.513 344.496 216.889 345.109 225.828 345.022C234.328 344.934 243.179 343.97 250.89 340.465C250.89 340.553 250.978 340.64 251.153 340.64C253.695 340.202 255.973 340.815 258.427 341.516C260.793 342.13 263.159 342.656 265.613 343.181C269.819 344.058 274.025 344.934 278.144 346.249C286.118 348.702 292.691 353.522 298.562 359.393C303.82 364.563 308.114 371.311 315.65 373.327C322.486 375.167 330.022 374.028 336.419 371.136C350.177 365.089 358.502 351.419 360.781 336.872C362.358 328.898 362.271 320.573 359.729 313.036Z" fill="black"/>
<path d="M214.523 261.246C208.564 253.622 197.522 250.818 188.409 249.679C181.311 248.803 175.001 248.803 167.903 248.452C170.707 244.421 173.424 240.302 176.228 235.746C176.491 235.307 176.929 234.606 177.367 233.73C172.81 233.117 168.341 232.24 163.784 231.276C160.717 230.575 157.65 229.699 154.67 228.823C150.99 231.101 147.572 233.73 144.417 236.622C137.845 242.756 132.412 250.292 128.994 258.617C127.066 263.349 125.927 268.607 127.242 273.69C128.293 277.721 130.659 281.314 133.639 284.293C140.386 291.041 149.763 295.51 158.614 298.84C168.253 302.433 178.682 304.186 188.847 302.082C198.136 300.242 206.724 295.247 211.982 287.185C216.451 280.262 220.219 268.52 214.523 261.246Z" fill="#E2EDFD"/>
<path opacity="0.46" d="M214.523 261.246C208.564 253.622 197.522 250.818 188.409 249.679C181.311 248.803 175.001 248.803 167.903 248.452C170.707 244.421 173.424 240.302 176.228 235.746C176.491 235.307 176.929 234.606 177.367 233.73C172.81 233.117 168.341 232.24 163.784 231.276C160.717 230.575 157.65 229.699 154.67 228.823C150.99 231.101 147.572 233.73 144.417 236.622C137.845 242.756 132.412 250.292 128.994 258.617C127.066 263.349 125.927 268.607 127.242 273.69C128.206 277.37 130.133 280.525 132.675 283.329C131.536 281.226 130.747 278.86 130.309 276.494C129.608 272.288 130.396 267.819 132.762 264.226C135.391 260.195 139.773 257.741 144.33 256.427C149.325 254.937 154.67 254.674 159.841 255.024C165.362 255.375 170.882 256.427 176.228 258.092C181.223 259.581 186.043 261.597 190.6 264.313C194.718 266.767 198.486 269.746 201.115 273.865C203.219 277.283 204.445 281.226 204.182 285.257C203.92 289.201 202.342 292.969 199.801 296.036C198.399 297.701 196.821 299.103 195.069 300.33C201.904 297.788 207.951 293.407 211.982 287.185C216.451 280.262 220.219 268.52 214.523 261.246Z" fill="#E2EDFD"/>
<path d="M201.816 291.479C196.909 294.02 191.914 295.685 186.393 296.123C180.697 296.649 174.826 295.948 169.305 294.546C163.521 293.056 157.913 290.603 152.567 287.974C147.485 285.433 142.051 282.628 138.108 278.422C136.005 276.231 134.427 273.602 133.551 270.623C132.675 267.643 131.886 264.313 133.025 261.334C133.201 260.983 132.587 260.721 132.412 261.071C131.185 263.437 130.133 265.978 130.309 268.695C130.484 271.499 131.536 274.216 133.025 276.582C136.18 281.752 141.263 285.17 146.433 288.061C157.738 294.283 170.532 299.716 183.677 299.015C190.249 298.665 197.172 296.649 202.342 292.443C202.78 292.092 202.342 291.216 201.816 291.479Z" fill="#E2EDFD"/>
<path d="M214.173 259.494C209.002 253.36 200.414 250.993 192.878 249.416C185.254 247.839 177.279 247.05 169.48 247.663C170.882 245.473 171.934 243.019 173.336 240.741C174.651 238.637 176.316 236.534 177.192 234.256C177.192 234.168 177.104 234.081 177.017 234.168C174.125 238.725 170.181 242.581 168.166 247.751C166.501 247.926 164.923 248.189 163.346 248.452C163.171 248.452 163.171 248.803 163.434 248.803C171.671 248.803 179.821 248.89 187.971 250.205C194.894 251.344 202.255 252.834 208.301 256.602C214.874 260.721 217.678 267.643 215.925 275.18C214.348 282.19 209.265 288.938 204.007 293.67C201.028 296.299 197.347 297.701 193.579 298.752C189.811 299.804 185.955 300.943 182.099 301.557C174.037 302.783 166.063 300.33 158.614 297.35C151.779 294.634 145.381 290.953 139.51 286.572C136.531 284.381 133.376 281.927 131.01 278.948C128.731 275.968 127.68 272.375 127.767 268.607C127.943 260.019 133.288 252.746 138.371 246.261C140.912 243.107 143.629 240.127 146.258 237.06C148.974 233.905 152.304 231.364 155.547 228.823C158.351 229.611 161.155 230.4 163.959 231.014C168.604 232.065 173.248 232.941 177.981 233.555C178.156 233.204 178.331 232.854 178.506 232.503C165.449 230.137 152.567 226.544 140.211 221.374C131.097 217.606 121.896 213.312 114.184 207.09C106.21 200.693 100.426 192.105 97.8849 182.115C96.4828 176.682 96.1323 170.986 96.8333 165.378C97.5344 159.682 99.4623 154.249 101.478 148.903V148.816V148.728C99.4623 135.671 99.1118 122.614 101.916 109.644C103.318 103.16 105.334 96.8503 108.138 90.8037C110.854 84.7572 113.834 78.7106 117.602 73.1899C117.69 73.1022 117.514 72.927 117.427 73.0146C114.272 77.1333 111.117 81.2519 108.751 85.984C106.473 90.5408 104.633 95.3605 103.143 100.268C99.9881 110.258 98.586 120.774 98.7612 131.289C98.9365 137.073 99.5499 142.944 101.127 148.64C101.127 148.64 101.04 148.64 101.04 148.728C95.3436 156.79 93.8539 167.919 95.1683 177.471C96.4828 187.286 101.04 196.487 107.787 203.673C114.973 211.297 124.437 216.292 133.902 220.585C140.737 223.653 147.748 226.369 154.933 228.472C148.098 231.978 142.49 237.761 137.757 243.72C132.85 249.767 127.68 256.427 126.19 264.226C125.489 267.731 125.577 271.412 126.628 274.829C127.767 278.422 130.133 281.226 132.938 283.68C138.984 289.025 145.995 293.582 153.268 297C160.629 300.417 169.13 303.835 177.279 303.66C181.573 303.572 185.867 302.608 189.986 301.469C193.842 300.417 197.873 299.454 201.378 297.526C204.796 295.598 207.513 292.618 209.879 289.639C212.332 286.572 214.523 283.417 216.1 279.824C218.992 273.339 219.08 265.277 214.173 259.494Z" fill="black"/>
<path d="M245.37 211.647C240.112 208.492 234.591 205.338 228.457 204.023C222.235 202.621 216.1 203.234 209.879 204.461C204.27 205.513 198.662 207.353 194.105 210.946C189.46 214.627 186.481 220.235 184.027 225.493C180.96 232.24 177.542 238.725 175.176 245.736C175.089 246.086 175.614 246.349 175.79 245.999C178.682 240.653 181.223 235.045 184.115 229.611C185.517 226.895 187.094 224.266 188.584 221.549C189.986 219.096 191.301 216.554 193.316 214.539C197.172 210.596 202.43 208.405 207.775 207.178C213.734 205.776 220.044 204.812 226.091 205.863C232.663 207.003 238.972 209.456 245.107 211.998C245.457 211.998 245.545 211.735 245.37 211.647Z" fill="#C47CB1"/>
<path d="M174.125 332.14C171.934 326.619 169.655 321.274 167.114 315.928C165.887 313.299 158.964 301.644 158.088 300.067C157.913 299.717 157.387 300.067 157.562 300.418C158.351 301.907 163.872 313.913 165.274 316.542C168.078 321.8 170.795 327.057 173.599 332.315C173.862 332.578 174.212 332.403 174.125 332.14Z" fill="#0A1C26"/>
<path d="M103.055 88.1749C101.04 86.6852 98.6736 85.6336 96.4828 84.4068C94.292 83.18 92.1012 81.7779 90.0857 80.2881C85.8793 77.1334 82.0235 73.4529 78.6059 69.4219C71.8582 61.3598 65.1982 49.8801 66.425 38.9262C66.5127 38.4004 65.6363 38.3128 65.4611 38.8386C61.3424 49.9678 69.2292 61.9732 76.1522 70.2106C79.6575 74.4169 83.6885 78.0097 88.1578 81.2521C92.3641 84.2315 97.5344 87.912 102.792 88.7007C103.143 88.7007 103.318 88.3502 103.055 88.1749Z" fill="#21A3EC"/>
<path d="M332.914 24.9928C332.739 22.7144 332.826 20.436 332.914 18.1576C332.914 17.5442 332.125 17.6318 332.038 18.1576C331.775 20.5236 331.336 22.6268 330.46 24.9052C329.759 26.6578 329.584 28.5857 329.146 30.4259C328.182 34.457 326.867 38.4004 325.29 42.1685C322.135 49.5295 318.016 56.6277 313.372 63.2C313.197 63.4629 313.547 63.7258 313.81 63.5505C320.207 57.8545 324.852 50.844 328.182 42.9572C329.847 39.1014 331.161 35.0704 332.125 30.9517C332.476 28.9362 333.089 27.0083 332.914 24.9928Z" fill="#21A3EC"/>
<path d="M214.348 231.452C214.085 230.663 213.734 229.874 213.121 229.261C212.77 228.998 212.42 228.735 212.157 228.472C211.368 228.034 210.58 227.771 209.703 227.771C209.002 227.771 208.389 227.859 207.775 228.209C207.162 228.385 206.636 228.735 206.198 229.261C205.76 229.699 205.409 230.225 205.146 230.838C204.884 231.452 204.708 232.065 204.708 232.766C204.796 233.204 204.796 233.643 204.884 234.081C205.146 234.869 205.497 235.658 206.11 236.271C206.461 236.534 206.811 236.797 207.074 237.06C207.863 237.498 208.652 237.761 209.528 237.761C210.229 237.761 210.843 237.674 211.456 237.323C212.069 237.148 212.595 236.797 213.033 236.271C213.471 235.833 213.822 235.308 214.085 234.694C214.348 234.081 214.523 233.467 214.523 232.766C214.435 232.328 214.348 231.89 214.348 231.452Z" fill="white"/>
<path d="M200.502 222.075C197.084 222.075 197.084 227.421 200.502 227.421C204.007 227.421 204.007 222.075 200.502 222.075Z" fill="white"/>
<path d="M209.265 219.709C206.987 219.709 206.987 223.302 209.265 223.302C211.631 223.302 211.631 219.709 209.265 219.709Z" fill="white"/>
<path d="M225.828 301.206C221.972 301.206 221.972 307.165 225.828 307.165C229.683 307.165 229.683 301.206 225.828 301.206Z" fill="white"/>
<path d="M222.848 291.129C220.307 291.129 220.307 295.072 222.848 295.072C225.389 295.16 225.389 291.129 222.848 291.129Z" fill="white"/>
<path d="M352.631 121.475C351.93 119.459 351.141 117.531 350.265 115.603C343.956 101.582 333.44 89.2265 319.419 82.6541C303.908 75.3807 286.469 77.3963 270.257 81.1644C261.669 83.1799 252.818 85.1078 244.844 88.7883C238.271 91.8554 232.049 96.6751 229.07 103.51C225.652 111.134 226.792 119.81 224.075 127.609C222.76 131.289 220.657 134.707 217.24 136.723C216.1 137.424 214.874 137.862 213.647 138.125C212.332 138.125 211.105 137.949 209.791 137.511C206.023 136.284 203.219 133.393 201.115 130.063C196.821 123.052 195.945 114.289 191.038 107.629C186.656 101.67 179.558 98.2525 172.46 96.6751C163.872 94.7472 154.758 94.8349 145.995 94.7472C129.345 94.572 111.906 96.4122 98.3231 106.84C86.0546 116.304 78.4306 130.676 75.3635 145.661C74.9253 147.764 74.5748 149.78 74.3119 151.883C72.7345 161.435 72.9098 171.249 74.5748 180.538C77.7296 197.539 86.3175 214.276 100.602 224.441C103.932 226.807 107.612 228.823 111.468 230.313C116.2 232.065 121.107 232.942 126.102 233.73C137.056 235.308 148.273 236.272 159.227 234.081C175.965 230.663 190.337 219.271 198.224 204.286C202.78 195.611 204.533 185.971 205.76 176.332C206.373 171.162 206.987 165.991 207.951 160.821C208.389 158.367 208.739 155.651 209.879 153.372C210.93 151.357 212.946 150.393 215.137 149.955C217.327 149.955 219.518 150.393 221.008 152.146C222.585 154.074 223.549 156.702 224.513 158.981C226.616 163.801 228.281 168.708 230.034 173.615C233.276 182.817 237.044 191.755 243.442 199.291C254.396 212.173 270.958 220.235 287.959 219.972C299.088 219.797 309.867 216.379 320.207 212.523C324.852 210.771 329.496 208.843 333.703 206.039C337.12 203.76 340.275 201.044 342.992 197.977C354.647 184.92 359.466 166.692 358.853 149.517C358.24 140.14 356.312 130.501 352.631 121.475ZM193.93 164.151C193.754 167.569 193.667 171.074 193.316 174.492C192.703 180.188 191.651 185.796 189.811 191.229C186.481 201.219 180.434 209.982 171.233 215.503C161.243 221.462 149.5 223.214 138.02 222.864C131.974 222.689 125.927 221.988 119.968 221.111C119.092 220.936 118.216 220.848 117.339 220.673C113.834 220.06 110.504 218.482 107.7 216.116C107.7 216.116 107.7 216.116 107.612 216.116C100.426 209.895 95.8694 200.693 92.8899 191.843C89.7351 182.641 88.333 173.002 88.2454 163.275C88.1578 154.775 89.2093 146.45 90.8743 138.212C91.7507 135.671 92.8023 133.13 94.2044 130.764C98.4107 123.315 104.983 118.145 113.133 115.516C121.721 112.799 131.01 112.361 139.948 111.835C144.943 111.572 149.851 111.397 154.846 111.31C159.49 111.222 164.31 111.31 168.779 112.712C176.491 115.165 181.573 121.825 185.079 128.836C187.182 133.13 188.935 137.599 190.249 142.243C189.986 142.506 189.986 142.857 190.337 143.207C190.424 143.295 190.512 143.295 190.6 143.383C192.44 150.042 193.579 157.141 193.93 164.151ZM343.079 164.414C342.028 173.703 339.574 183.693 333.965 191.317C333.965 191.317 333.965 191.317 333.965 191.404C331.775 194.296 328.883 196.487 325.553 197.889C324.764 198.24 323.888 198.59 323.099 198.853C317.491 201.044 311.795 203.059 305.923 204.461C294.882 207.266 282.964 208.054 271.922 204.461C261.757 201.131 253.957 193.858 248.524 184.832C245.545 179.925 243.354 174.667 241.514 169.321C240.374 165.991 239.498 162.661 238.622 159.331C237.483 152.321 237.044 145.223 237.395 138.212C237.483 138.125 237.57 138.037 237.57 138.037C237.921 137.686 237.746 137.336 237.483 137.073C237.833 132.253 238.534 127.434 239.673 122.877C241.514 115.253 245.107 107.717 252.117 103.598C256.148 101.232 260.88 100.18 265.35 99.2164C270.169 98.2525 275.077 97.2885 279.984 96.4999C288.835 95.0978 297.949 93.4328 306.975 94.3091C315.475 95.0978 323.011 98.6906 328.708 105.088C330.548 107.103 332.125 109.382 333.527 111.66C336.945 119.372 339.749 127.258 341.502 135.583C343.43 145.048 344.131 154.775 343.079 164.414Z" fill="black"/>
<path d="M248.261 174.316C249.664 189.739 236.343 203.585 218.554 205.162C200.765 206.74 185.254 195.523 183.852 180.012C182.45 164.589 194.543 158.806 212.332 157.228C230.122 155.651 246.859 158.806 248.261 174.316Z" fill="black"/>
<path d="M221.972 158.806C215.575 157.666 208.739 159.331 202.517 160.821C197.347 162.048 191.914 163.888 188.409 168.27C180.785 177.909 186.744 190.791 195.332 197.451C200.502 201.482 206.811 205.075 213.471 204.023C213.734 204.023 213.734 203.585 213.471 203.585C209.703 203.585 206.023 201.92 202.693 200.167C199.713 198.59 196.909 196.75 194.455 194.471C189.285 189.827 185.692 182.904 186.919 175.806C188.233 168.708 193.842 165.203 200.151 163.099C207.25 160.733 214.435 159.419 221.884 159.331C222.235 159.331 222.322 158.893 221.972 158.806Z" fill="#21A3EC"/>
<path d="M244.055 164.239C239.411 159.507 232.838 157.579 226.353 156.965C219.168 156.264 211.806 156.79 204.708 158.455C198.486 159.945 191.388 162.048 187.007 167.131C183.238 171.6 181.573 177.822 185.429 187.023C182.274 178.961 183.677 172.914 186.481 168.883C189.986 163.625 196.471 161.347 202.342 159.682C209.002 157.842 215.925 157.053 222.76 157.316C229.158 157.579 235.818 158.718 241.076 162.486C246.333 166.254 249.926 173.528 247.385 183.342C250.014 175.368 247.911 168.095 244.055 164.239Z" fill="black"/>
<path d="M227.755 203.147C216.802 207.266 204.183 205.513 194.981 198.327C191.213 195.436 188.058 191.755 185.78 187.549C190.161 196.224 198.224 202.709 207.775 204.9C219.255 207.529 231.611 204.111 239.849 195.698C243.091 192.368 245.545 188.425 247.122 184.131C243.442 192.807 236.519 199.817 227.755 203.147Z" fill="black"/>
<path d="M196.033 179.487C194.192 179.662 192.79 181.327 192.966 183.167C193.141 185.007 194.806 186.409 196.646 186.234C198.486 186.059 199.889 184.394 199.713 182.554C199.538 180.713 197.873 179.399 196.033 179.487Z" fill="#21A3EC"/>
<path d="M236.519 175.894C234.678 176.069 233.276 177.734 233.452 179.574C233.627 181.414 235.292 182.816 237.132 182.641C238.972 182.466 240.374 180.801 240.199 178.961C240.024 177.12 238.359 175.806 236.519 175.894Z" fill="#21A3EC"/>
<path d="M1.05161 283.68C0.963979 283.33 0.876343 282.891 0.876343 282.19C0.876343 280.963 0.963979 279.474 1.05161 277.633C1.22687 275.881 1.22687 274.391 1.22687 272.989C1.22687 271.499 1.22687 269.221 1.3145 266.154L1.40214 259.319C1.40214 259.056 1.40213 258.705 1.3145 258.179L1.22687 257.128V256.953C1.22687 256.252 1.31451 255.813 1.48977 255.463C1.66503 255.112 2.10319 255.025 2.62898 255.025C3.41767 255.025 4.20636 255.2 5.08268 255.638C5.959 256.076 6.66005 256.602 7.01058 257.303C7.79927 258.705 8.23743 260.37 8.23743 262.473C8.23743 264.051 8.1498 265.365 7.8869 266.329C7.624 267.381 7.18584 268.345 6.57242 269.221C7.36111 270.01 7.8869 270.886 8.1498 272.113C8.4127 273.252 8.58796 274.742 8.58796 276.494C8.58796 278.247 8.32506 279.737 7.71164 281.051C7.01058 282.541 6.04663 283.505 4.73215 284.031C3.94346 284.293 3.15478 284.469 2.27846 284.469C1.5774 284.469 1.22687 284.206 1.05161 283.68ZM5.52084 280.613C6.04663 279.737 6.30953 278.685 6.30953 277.546C6.30953 276.319 6.22189 275.267 6.13426 274.391C6.04663 273.69 5.87137 273.077 5.6961 272.639C5.52084 272.2 5.25795 271.762 4.90742 271.324C4.55689 270.886 4.11873 270.623 3.68057 270.535C3.59294 272.2 3.5053 274.304 3.5053 277.02C3.5053 277.195 3.5053 277.721 3.41767 278.685L3.33004 280.175C3.33004 280.262 3.33004 280.262 3.33004 280.262V280.35V282.278C4.29399 282.103 4.99505 281.489 5.52084 280.613ZM5.87137 262.736C5.87137 259.056 5.25795 257.128 4.11873 256.953C3.7682 257.654 3.68057 259.143 3.68057 261.597V267.994C5.08268 267.906 5.87137 266.154 5.87137 262.736Z" fill="#21A3EC"/>
<path d="M14.1964 284.031C13.6706 283.855 13.4954 283.505 13.4954 282.804V257.741C13.4954 257.216 13.4077 256.514 13.2325 255.551C13.0572 254.674 12.9696 253.886 12.9696 253.36V253.272C13.4954 252.483 13.8459 251.958 14.0211 251.695C14.4593 251.695 14.9851 251.607 15.5985 251.52C16.2119 251.432 16.7377 251.344 17.1759 251.344C17.6141 251.344 18.0522 251.52 18.4904 251.782C18.9285 252.045 19.1038 252.396 19.1038 252.746C19.1038 253.623 18.4027 254.061 17.0883 254.061H16.4748C16.2996 254.061 16.1243 254.061 15.8614 254.061C15.5985 254.061 15.4233 254.061 15.4233 254.061C15.4233 255.025 15.5109 256.252 15.5985 257.566L15.6862 258.793L15.7738 261.159C15.7738 261.685 15.7738 262.561 15.6862 263.7L15.5985 266.154L16.2119 266.066C16.8254 265.891 17.2635 265.803 17.6141 265.803C17.9646 265.803 18.2275 265.891 18.4904 266.154C18.7533 266.417 18.8409 266.68 18.8409 267.03C18.8409 267.381 18.7533 267.644 18.4904 267.994C18.3151 268.257 18.0522 268.432 17.7017 268.432H17.1759H16.6501C16.2119 268.432 15.949 268.52 15.7738 268.695V282.015L18.2275 281.928C19.8925 281.928 20.6812 282.278 20.6812 283.067V283.242C20.5059 283.593 20.1554 283.855 19.7172 284.118C19.2791 284.294 18.8409 284.469 18.4027 284.556H17.0006H15.6862C15.0727 284.294 14.6346 284.206 14.1964 284.031Z" fill="#21A3EC"/>
<path d="M32.862 284.381C32.4238 284.118 32.1609 283.855 32.1609 283.505C32.1609 283.154 32.2486 282.891 32.4238 282.628C32.5991 282.453 32.862 282.278 33.1249 282.278C33.3878 282.278 33.826 282.366 34.3517 282.628C34.9652 282.891 35.3157 282.979 35.491 282.979C36.0168 282.979 36.5425 282.716 36.9807 282.278C37.4189 281.84 37.7694 281.139 38.0323 280.438C38.5581 279.036 38.821 277.721 38.821 276.582C38.821 275.355 38.6457 274.041 38.2076 272.726C37.857 271.324 37.3312 270.01 36.6302 268.783L35.9291 267.381C35.2281 265.979 34.7023 264.839 34.2641 263.963C33.9136 263.174 33.5631 262.21 33.2125 261.246C32.7744 259.844 32.5991 258.53 32.5991 257.215C32.5991 256.164 32.7744 255.2 33.1249 254.324C33.4754 253.447 34.0012 252.659 34.7023 251.958C35.4033 251.257 36.2797 250.906 37.3312 250.906C37.857 250.906 38.3828 251.081 38.821 251.344C39.3468 251.607 39.6097 252.045 39.8726 252.483L39.1715 253.36C38.3828 253.36 37.857 253.184 37.5065 252.922C36.9807 253.009 36.5426 253.272 36.192 253.71C35.8415 254.148 35.491 254.674 35.3157 255.2C35.1404 255.726 35.0528 256.252 35.0528 256.865C35.0528 257.917 35.2281 259.056 35.491 260.195C35.7539 261.334 36.192 262.386 36.7178 263.437L39.6973 269.484C40.2231 270.535 40.5736 271.675 40.8365 272.989C41.0994 274.304 41.2747 275.53 41.2747 276.845C41.2747 278.773 40.8365 280.525 39.8726 282.19C39.3468 283.067 38.7334 283.768 37.9447 284.206C37.156 284.732 36.2797 284.995 35.4033 284.995C34.4394 284.995 33.5631 284.819 32.862 284.381Z" fill="#21A3EC"/>
<path d="M58.0124 284.732C57.8371 284.469 57.7495 284.031 57.7495 283.505V277.108C57.7495 276.582 57.7495 275.618 57.7495 274.391C57.6619 271.762 57.6619 268.695 57.6619 265.365V263.174C57.399 264.576 56.9608 266.504 56.3474 268.958C55.734 271.499 55.2958 273.69 55.0329 275.355V275.618L54.9453 276.407C54.8576 277.02 54.77 277.721 54.5071 278.335C54.2442 279.036 53.806 279.386 53.1926 279.386C52.141 279.386 51.6153 278.072 51.6153 275.355C51.6153 273.865 51.44 272.288 51.1771 270.535C50.9142 268.87 50.3884 266.767 49.775 264.226L48.4605 259.406L48.3729 264.576C48.3729 266.154 48.4605 269.046 48.5481 273.427L48.6358 276.319L48.7234 282.19C48.7234 282.804 48.5481 283.329 48.11 283.855C47.4089 283.855 46.8831 283.592 46.6202 283.154C46.3573 282.716 46.1821 282.015 46.1821 281.226L46.2697 277.721C46.3573 276.144 46.3573 275.005 46.3573 274.216L46.2697 265.891L46.1821 257.566C46.1821 256.339 46.1821 254.499 46.2697 252.045L47.4089 251.344C47.6718 251.344 47.8471 251.519 48.11 251.87C48.3729 252.133 48.6358 252.659 48.8987 253.272C49.5997 255.025 50.5637 258.618 51.7029 263.963C51.8781 264.752 51.9658 265.365 52.0534 265.803C52.4039 267.468 52.6668 268.695 52.7545 269.571L53.3679 272.901L53.6308 271.499L54.4195 267.994C54.8576 265.891 55.2958 264.138 55.5587 262.561C55.8216 260.984 56.1721 259.319 56.435 257.566C56.7855 255.375 56.9608 253.623 57.0484 252.22V251.958C57.1361 251.607 57.3113 251.256 57.5742 251.081C57.8371 250.906 58.1877 250.731 58.6258 250.731C58.8887 250.731 59.1516 250.818 59.3269 251.081C59.5021 251.344 59.5898 251.519 59.5898 251.782C59.5898 255.2 59.6774 260.37 59.9403 267.205C60.1156 270.535 60.2032 273.865 60.2032 277.108C60.2908 278.597 60.2908 280.438 60.2908 282.628C60.2908 283.329 60.1156 283.855 59.765 284.381C59.4145 284.907 59.064 285.17 58.6258 285.17C58.3629 285.17 58.1876 284.994 58.0124 284.732Z" fill="#21A3EC"/>
<path d="M73.2604 283.768C73.0851 283.592 72.9098 283.329 72.9098 282.891V277.283C72.5593 277.02 71.8582 276.757 70.8067 276.582C69.7551 276.407 68.7911 276.231 67.9148 276.231C67.5643 276.845 67.389 277.546 67.2137 278.422L67.0385 279.298C67.0385 279.474 66.9509 279.912 66.7756 280.613C66.6003 281.314 66.5127 281.927 66.3374 282.365C66.1622 282.891 65.9869 283.242 65.8116 283.592C64.7601 283.592 64.059 283.329 63.8837 282.716C64.2343 282.278 64.5848 280.876 64.9353 278.685L66.3374 270.798C66.9509 267.03 67.5643 263.875 68.0901 261.246C68.6159 258.617 69.2293 256.427 69.7551 254.586C70.4561 252.571 71.0696 251.607 71.683 251.607C72.2964 251.607 72.7346 251.695 73.0851 251.957C73.0851 253.097 73.348 255.901 73.8738 260.282C74.4872 264.576 74.7501 267.556 74.7501 269.133C74.7501 270.623 74.9254 272.814 75.1883 275.705C75.4512 278.597 75.6264 280.876 75.6264 282.628C75.6264 283.592 75.1883 284.118 74.2243 284.118C73.8738 284.03 73.5233 283.943 73.2604 283.768ZM72.9098 274.654C72.8222 273.427 72.6469 271.85 72.4717 269.922C71.7706 263.437 71.5077 259.494 71.5077 258.004V257.653C71.2448 257.916 70.8067 259.231 70.2809 261.509C69.7551 263.788 69.3169 266.329 68.8788 268.958C68.4406 271.587 68.1777 273.339 68.1777 274.216C69.4046 274.566 70.6314 274.742 72.0335 274.742C72.2964 274.742 72.5593 274.742 72.9098 274.654Z" fill="#21A3EC"/>
<path d="M87.1938 283.329V283.242C87.1062 281.752 86.8433 279.999 86.4052 278.159C85.967 276.319 85.3536 274.041 84.4773 271.412C83.8638 269.396 83.338 267.643 82.8999 266.066V283.066C82.8999 283.505 82.8122 283.855 82.637 284.118C82.4617 284.293 82.1988 284.469 81.673 284.469C81.3225 284.469 81.0596 284.381 80.8843 284.118C80.7091 283.943 80.6214 283.592 80.6214 283.242V282.891L80.7091 270.272C80.7967 266.504 80.7967 262.298 80.7967 257.653V252.396C80.7967 252.045 80.8843 251.782 80.972 251.695C81.1472 251.607 81.4101 251.519 81.8483 251.519C82.5494 251.519 83.2504 251.695 83.8638 251.957C84.4772 252.22 85.003 252.571 85.4412 253.097C86.3175 254.061 86.9309 255.287 87.1938 256.69C87.2815 257.303 87.3691 257.916 87.3691 258.705C87.3691 259.143 87.3691 259.581 87.2815 260.107C87.1938 260.633 87.1939 260.983 87.1062 261.071C87.0186 261.334 86.9309 261.772 86.7557 262.386C86.5804 262.999 86.4052 263.35 86.4052 263.525L85.8794 264.752L85.4412 265.891C85.4412 266.942 85.6165 268.257 85.967 269.834C86.3175 271.412 86.6681 272.901 87.1062 274.216C87.3691 275.18 87.8949 276.757 88.6836 278.948L89.9104 282.716V282.804C89.9104 283.329 89.9104 283.68 89.8228 284.03C89.7352 284.469 89.4723 284.731 88.9465 284.731C88.2454 284.469 87.7196 284.03 87.1938 283.329ZM84.3896 262.386L85.003 258.705C85.003 258.53 85.003 258.355 85.003 258.092C85.003 257.303 84.8278 256.339 84.5649 255.2C84.3896 254.674 84.1267 254.236 83.8638 253.885C83.6009 253.535 83.338 253.36 82.9875 253.272L82.8999 257.566C82.8122 259.494 82.8122 260.983 82.8122 262.035C82.8122 262.999 82.8122 263.7 82.8122 264.051C83.2504 263.612 83.7762 263.087 84.3896 262.386Z" fill="#21A3EC"/>
<path d="M95.5189 283.68C95.256 283.242 95.1684 282.716 95.1684 282.19C95.1684 281.226 95.256 280.087 95.3436 278.685L95.4313 277.546L95.5189 275.268C95.5189 274.304 95.4312 272.025 95.256 268.52C95.0807 265.015 94.9931 262.824 94.9931 261.772C94.9931 261.685 94.9931 261.509 94.9931 261.247C94.9931 260.984 94.9931 260.633 94.9931 260.107C94.9931 259.494 94.9931 258.793 94.9931 258.004C94.9931 255.901 94.8178 254.587 94.5549 253.973C94.3797 253.973 94.0291 253.973 93.4157 254.061L92.1889 254.148C91.8383 254.148 91.4878 254.061 91.2249 253.798C90.962 253.623 90.7868 253.272 90.7868 252.922C90.7868 252.571 91.1373 252.308 91.8383 252.045C92.8023 251.695 94.5549 251.432 96.921 251.344C97.8849 251.257 98.4984 251.257 98.6736 251.257C99.0242 251.257 99.3747 251.344 99.6376 251.607C99.9005 251.87 100.076 252.133 100.076 252.483C100.076 252.834 99.9881 253.097 99.7252 253.36C99.4623 253.535 99.1994 253.71 98.7613 253.71H97.9726C97.7097 253.71 97.4468 253.71 97.1839 253.71H96.7457C96.921 255.638 97.0086 257.391 97.0086 258.968V261.685C97.0086 262.561 97.0086 263.437 97.0086 264.489C97.0086 265.891 97.0963 267.556 97.1839 269.484C97.3592 271.85 97.3592 273.515 97.3592 274.479C97.3592 275.53 97.4468 276.845 97.5344 278.335C97.622 279.824 97.7097 281.139 97.7097 282.19C97.7097 283.592 97.2715 284.294 96.4828 284.294C96.1323 284.294 95.7818 284.118 95.5189 283.68Z" fill="#21A3EC"/>
<path d="M112.87 284.469C112.607 284.118 112.432 283.768 112.432 283.329C112.432 282.804 112.607 282.366 112.958 282.015C113.308 281.665 113.746 281.402 114.184 281.402C114.71 281.402 115.148 281.577 115.411 282.015C115.762 282.366 115.937 282.891 115.937 283.505C115.937 284.469 115.236 284.995 113.834 284.995C113.483 284.995 113.221 284.819 112.87 284.469ZM113.834 276.494C113.571 275.706 113.483 274.654 113.483 273.164C113.483 272.639 113.483 271.675 113.571 270.272C113.659 269.221 113.659 267.994 113.659 266.767L113.571 259.669L113.483 252.571C113.483 252.133 113.659 251.695 114.009 251.344C114.36 250.994 114.798 250.818 115.236 250.818C115.499 250.818 115.762 250.906 115.937 251.081C116.112 251.257 116.2 251.519 116.2 251.87C116.2 254.411 116.025 257.829 115.762 262.123C115.411 266.942 115.324 270.36 115.324 272.376C115.324 273.865 115.324 275.005 115.236 275.706C115.236 276.407 115.148 276.845 115.061 277.02C114.973 277.283 114.798 277.371 114.623 277.371C114.36 277.633 114.097 277.283 113.834 276.494Z" fill="#21A3EC"/>
</svg>
