<svg width="222" height="57" viewBox="0 0 222 57" fill="none" xmlns="http://www.w3.org/2000/svg">
<circle cx="28.5" cy="28.5" r="28.5" fill="#21A3EC"/>
<g filter="url(#filter0_i_8_240)">
<circle cx="28.5" cy="28.5" r="25.5" fill="#351493"/>
</g>
<path d="M13.4003 15.9753C16.0749 12.2365 21.9842 14.8971 23.7907 16.7595C20.822 17.5577 18.3434 19.2801 16.789 22.0387V22.0247C16.789 21.8287 16.789 21.6327 16.775 21.4366C16.495 21.6187 16.1869 21.7587 15.8648 21.8147C15.4587 21.8987 15.0106 21.8707 14.6325 21.6887C14.2685 21.5066 14.0024 21.1565 13.7924 20.8205C13.2882 19.9663 12.9101 18.986 12.8821 17.9918C12.8821 17.3197 13.0082 16.5215 13.4003 15.9753Z" fill="#21A3EC"/>
<path opacity="0.4" d="M14.6325 21.7024C14.8146 21.7864 14.9966 21.8425 15.1926 21.8705C15.6267 21.7444 16.0328 21.4644 16.3549 21.1843C16.621 20.9463 16.859 20.6942 17.0691 20.4141C17.1951 20.2461 17.3211 20.05 17.4192 19.854C17.6712 19.4059 17.8673 18.9298 18.0073 18.4397C18.1613 17.9356 18.2734 17.4034 18.2734 16.8713C18.2734 16.3812 18.2033 15.8911 17.9513 15.457C17.6572 14.9529 17.1531 14.6028 16.593 14.4908C16.2149 14.4207 15.8228 14.4348 15.4447 14.4908C15.3467 14.5048 15.2347 14.5188 15.1366 14.5468C14.4785 14.8408 13.8903 15.317 13.4002 15.9891C13.0081 16.5352 12.8681 17.3334 12.8821 18.0056C12.8961 19.0138 13.2742 19.98 13.7923 20.8342C14.0024 21.1703 14.2544 21.5064 14.6325 21.7024Z" fill="#21A3EC"/>
<path opacity="0.4" d="M15.2206 14.4911C15.8648 14.3791 16.5369 14.3371 17.1391 14.6311C17.6012 14.8552 17.9373 15.2473 18.1193 15.7234C18.3014 16.1995 18.3294 16.7176 18.2874 17.2217C18.2313 17.7679 18.1053 18.3 17.9093 18.8181C17.7412 19.2942 17.5172 19.7423 17.2511 20.1624C17.0971 20.4145 16.915 20.6385 16.705 20.8486C16.4529 21.1146 16.1729 21.3667 15.8648 21.5627C15.6687 21.6888 15.4447 21.8008 15.2206 21.8708C15.4307 21.8848 15.6407 21.8708 15.8368 21.8288C16.1589 21.7588 16.4669 21.6187 16.747 21.4507C16.761 21.6468 16.761 21.8428 16.761 22.0388V22.0528C18.3154 19.2942 20.7939 17.5718 23.7626 16.7736C22.3343 15.2473 18.1613 13.2168 15.2206 14.4911Z" fill="#21A3EC"/>
<path d="M45.7617 19.9945C44.0813 15.7235 37.6958 16.8578 35.4973 18.2161C38.1859 19.7145 40.1604 21.997 41.0006 25.0497V25.0357C41.0426 24.8397 41.0986 24.6576 41.1546 24.4756C41.3787 24.7136 41.6447 24.9237 41.9528 25.0777C42.3309 25.2598 42.765 25.3438 43.1711 25.2457C43.5772 25.1477 43.9133 24.8957 44.1933 24.6016C44.8935 23.9014 45.4956 23.0472 45.7617 22.081C45.9437 21.4229 45.9997 20.6247 45.7617 19.9945Z" fill="#21A3EC"/>
<path d="M42.0088 30.4125C42.0648 30.1465 42.1208 30.0765 42.1489 29.8104C43.2131 21.2264 37.5138 16.4933 29.882 15.5411C22.2503 14.5889 15.5567 17.7816 14.4925 26.3796C14.4645 26.6457 14.5205 26.6877 14.5065 26.9537C13.7363 27.8219 13.1482 29.0402 13.0221 30.1325C12.448 34.7815 18.5534 39.7947 26.7453 40.8169C34.9232 41.8392 42.0788 38.4504 42.667 33.8153C42.807 32.7231 42.5549 31.4488 42.0088 30.4125Z" fill="#E2EDFD"/>
<path d="M26.2832 16.1152C25.7371 16.1432 25.1909 16.2553 24.6588 16.3393C24.0987 16.4233 23.5386 16.5073 22.9924 16.6614C21.9002 16.9694 20.8639 17.4455 19.9677 18.1457C18.3153 19.392 16.943 21.0444 16.1028 22.9348C15.6547 23.957 15.3607 25.0493 15.2906 26.1696C15.2906 26.1976 15.3327 26.2116 15.3467 26.1696C15.6407 24.1951 16.4949 22.3327 17.7272 20.7643C18.3434 19.9801 19.0435 19.266 19.8137 18.6358C20.6959 17.9076 21.6901 17.3755 22.7824 17.0394C23.3425 16.8574 23.9166 16.6754 24.4908 16.5493C25.0929 16.4093 25.7091 16.3393 26.3112 16.1853C26.3392 16.1712 26.3252 16.1152 26.2832 16.1152Z" fill="#21A3EC"/>
<path opacity="0.46" d="M41.9808 30.5946C42.0368 30.3285 42.0788 30.0624 42.1068 29.7964C43.1711 21.2124 37.4718 16.4793 29.84 15.5271C26.8573 15.163 24.0147 15.4151 21.6061 16.3813C22.2363 16.2692 22.8664 16.1992 23.4965 16.1432C24.2947 16.0872 25.0789 16.0592 25.8771 16.0452C26.5913 16.0312 27.3054 16.0452 28.0056 16.1012C29.4199 16.2412 30.8342 16.5493 32.1646 17.0814C33.4669 17.5996 34.6991 18.3277 35.7494 19.2799C36.6736 20.1201 37.4158 21.1424 37.9759 22.2626C38.48 23.2989 38.8301 24.4051 39.0121 25.5394C39.2082 26.6877 39.2362 27.8639 39.1242 29.0122C38.9981 30.1605 38.7321 31.2947 38.298 32.373C37.8779 33.4372 37.2897 34.4454 36.5616 35.3136C35.8334 36.1958 34.9512 36.952 33.957 37.5262C33.1308 38.0023 32.2486 38.3804 31.3384 38.6604C30.4141 38.9405 29.4759 39.1365 28.5097 39.2486C27.5015 39.3746 26.4932 39.4026 25.485 39.3746C24.4348 39.3326 23.3985 39.2205 22.3763 39.0385C21.3541 38.8565 20.3458 38.5904 19.3656 38.2543C18.7635 38.0443 18.1613 37.8062 17.5732 37.5402C19.9677 39.1505 23.1465 40.3548 26.7173 40.7889C34.8952 41.8111 42.0508 38.4224 42.639 33.7873C42.751 32.709 42.5129 31.6308 41.9808 30.5946Z" fill="#C9E9FE"/>
<path d="M40.0822 31.9025C40.3192 29.9915 39.0679 28.2632 37.2873 28.0423C35.5067 27.8214 33.8711 29.1916 33.6341 31.1027C33.397 33.0138 34.6483 34.742 36.4289 34.9629C38.2095 35.1838 39.8451 33.8136 40.0822 31.9025Z" fill="white"/>
<path d="M39.4182 31.7712C39.1942 33.5916 37.7238 34.9079 36.1555 34.7119C34.5731 34.5158 33.4809 32.8774 33.7049 31.057C33.8029 30.2168 34.167 29.4887 34.6851 28.9705C34.9512 28.7045 35.2593 28.4944 35.5813 28.3404C36.0154 28.1443 36.4776 28.0603 36.9677 28.1303C38.55 28.3124 39.6423 29.9508 39.4182 31.7712Z" fill="#67A3C1"/>
<path d="M33.6769 31.281C33.887 29.5866 35.2593 28.3543 36.7296 28.5364C38.2 28.7184 39.2222 30.2448 39.0122 31.9392C38.8021 33.6336 37.4298 34.8659 35.9594 34.6838C35.3853 34.6138 34.8672 34.3337 34.4751 33.9136C34.139 33.5215 33.887 33.0594 33.7469 32.5413C33.6489 32.1492 33.6209 31.7151 33.6769 31.281Z" fill="#8FB9D1"/>
<path d="M40.1464 30.7625C39.9784 29.4322 38.9701 28.3679 37.7799 28.0599C36.4636 27.7098 35.0212 28.2559 34.223 29.4742C33.3268 30.8185 33.4389 32.5689 34.4331 33.7592C34.4331 33.7592 34.4471 33.7592 34.4471 33.7452C33.6349 32.7369 33.4809 31.1826 34.069 29.9923C34.6851 28.76 35.9034 28.0319 37.1917 28.1299C38.396 28.2139 39.4883 29.0401 39.8803 30.2584C40.1044 30.9445 40.0624 31.7567 39.8803 32.4569C39.6843 33.157 39.2082 33.7732 38.6621 34.2073C38.0459 34.6974 37.2897 34.9915 36.5336 34.9214C35.7354 34.8374 35.0632 34.3473 34.4611 33.8152C34.4471 33.8012 34.4191 33.8292 34.4331 33.8432C34.9232 34.3753 35.4973 34.8374 36.2115 35.0055C36.9117 35.1735 37.6678 35.0195 38.298 34.6554C38.8861 34.3193 39.4322 33.7872 39.7683 33.171C40.1464 32.4709 40.2584 31.5467 40.1464 30.7625Z" fill="black"/>
<path d="M41.0566 31.4772C41.0566 31.4632 41.0426 31.4632 41.0286 31.4772C40.9726 31.7433 40.6925 32.0653 40.4265 31.8693C40.2725 31.7433 40.1604 31.3932 40.1324 31.1831C40.1184 31.1271 40.0344 31.1271 40.0344 31.1831C39.9924 31.5612 40.0624 32.0933 40.4965 32.1493C40.8746 32.2054 41.0846 31.8273 41.0566 31.4772Z" fill="black"/>
<path d="M40.9586 30.3986C40.9446 30.3706 40.9166 30.3846 40.9166 30.4126C40.9166 30.7066 40.7345 30.9447 40.4405 30.8467C40.2444 30.7767 40.1464 30.6226 40.0344 30.4406C40.0204 30.4126 39.9924 30.4406 39.9924 30.4686C40.0064 30.6226 40.0484 30.8327 40.1464 30.9447C40.2584 31.0707 40.4405 31.1127 40.5945 31.1127C40.7625 31.0987 40.8746 31.0567 40.9446 30.8887C40.9866 30.7346 41.0006 30.5666 40.9586 30.3986Z" fill="black"/>
<path d="M33.6349 31.603C33.831 30.0767 35.0492 28.9704 36.3655 29.1385C37.6818 29.3065 38.6061 30.6648 38.41 32.1912C38.214 33.7175 36.9957 34.8238 35.6794 34.6557C35.5113 34.6417 35.3573 34.5997 35.2033 34.5437C34.2791 33.9696 33.6769 32.9333 33.6209 31.7571C33.6209 31.701 33.6349 31.645 33.6349 31.603Z" fill="black"/>
<path d="M34.7412 31.7286C34.6571 32.4288 35.0772 33.0589 35.6934 33.143C36.3095 33.213 36.8696 32.7089 36.9537 32.0087C37.0377 31.3085 36.6176 30.6784 36.0014 30.5944C35.3853 30.5244 34.8252 31.0285 34.7412 31.7286Z" fill="#333131"/>
<path d="M37.4578 29.1384C37.2617 29.1804 37.0937 29.3064 36.9957 29.4745C36.8416 29.6845 36.7996 29.9646 36.8416 30.2306C36.9257 30.6367 37.2197 30.8468 37.5978 30.8328C37.9059 30.8188 38.1719 30.6507 38.284 30.3287C38.494 29.7405 38.0739 29.0124 37.4578 29.1384Z" fill="white"/>
<path d="M38.354 32.1069C37.8919 32.0509 37.7939 32.8211 38.256 32.8771C38.7181 32.9331 38.8161 32.1629 38.354 32.1069Z" fill="white"/>
<path d="M36.4776 32.6532C36.1555 32.6112 36.0995 33.1434 36.4076 33.1854C36.7296 33.2274 36.7997 32.6952 36.4776 32.6532Z" fill="white"/>
<path d="M22.5559 29.7292C22.793 27.8181 21.5417 26.0898 19.7611 25.869C17.9805 25.6481 16.3449 27.0183 16.1078 28.9293C15.8708 30.8404 17.1221 32.5687 18.9026 32.7896C20.6832 33.0104 22.3189 31.6403 22.5559 29.7292Z" fill="white"/>
<path d="M16.789 28.9566C16.565 30.777 17.6572 32.4154 19.2396 32.6114C20.822 32.8075 22.2783 31.4912 22.5023 29.6708C22.6004 28.8306 22.4323 28.0324 22.0542 27.4022C21.8582 27.0802 21.6201 26.8001 21.3401 26.5621C20.976 26.268 20.5279 26.0719 20.0518 26.0159C18.4834 25.8199 17.0131 27.1362 16.789 28.9566Z" fill="#67A3C1"/>
<path d="M22.4883 29.8943C22.6984 28.1999 21.6761 26.6735 20.2058 26.4915C18.7355 26.3094 17.3631 27.5417 17.1531 29.2361C16.943 30.9305 17.9653 32.4568 19.4356 32.6389C20.0098 32.7089 20.5699 32.5689 21.06 32.2608C21.4801 31.9667 21.8442 31.5746 22.1102 31.1125C22.2923 30.7485 22.4323 30.3284 22.4883 29.8943Z" fill="#8FB9D1"/>
<path d="M16.3269 27.8078C16.817 26.5615 18.0493 25.7774 19.2816 25.7633C20.6539 25.7493 21.9002 26.6315 22.3903 28.0039C22.9365 29.5302 22.4043 31.1966 21.144 32.1068C21.144 32.1068 21.13 32.1068 21.13 32.0928C22.1663 31.3226 22.6984 29.8383 22.4183 28.55C22.1243 27.2057 21.116 26.1974 19.8557 25.9874C18.6795 25.7774 17.4052 26.3095 16.719 27.4017C16.3409 28.0179 16.1729 28.8161 16.1869 29.5302C16.2009 30.2584 16.509 30.9725 16.9291 31.5327C17.4052 32.1628 18.0633 32.6249 18.8195 32.751C19.6177 32.877 20.3879 32.5549 21.102 32.1768C21.116 32.1628 21.144 32.2048 21.116 32.2048C20.4999 32.6109 19.8417 32.905 19.1136 32.891C18.3994 32.877 17.6992 32.5549 17.1811 32.0368C16.691 31.5607 16.2989 30.9165 16.1169 30.2304C15.9208 29.4602 16.0329 28.55 16.3269 27.8078Z" fill="black"/>
<path d="M15.2767 28.2841C15.2767 28.2701 15.2907 28.2841 15.2907 28.2841C15.2907 28.5502 15.4728 28.9423 15.7808 28.8023C15.9629 28.7182 16.1589 28.4102 16.2289 28.2141C16.2569 28.1581 16.3269 28.1861 16.3269 28.2421C16.2709 28.6202 16.0749 29.1243 15.6408 29.0683C15.2627 29.0263 15.1507 28.6202 15.2767 28.2841Z" fill="black"/>
<path d="M15.6408 27.2621C15.6548 27.2341 15.6828 27.2621 15.6828 27.2901C15.6128 27.5842 15.7388 27.8502 16.0329 27.8222C16.2429 27.7942 16.3829 27.6822 16.523 27.5282C16.537 27.5142 16.565 27.5422 16.565 27.5562C16.509 27.7102 16.4249 27.8922 16.2989 27.9763C16.1589 28.0743 15.9768 28.0743 15.8228 28.0323C15.6688 27.9903 15.5567 27.9062 15.5427 27.7242C15.5287 27.5702 15.5567 27.4021 15.6408 27.2621Z" fill="black"/>
<path d="M22.4464 30.2024C22.6424 28.676 21.7182 27.3037 20.4019 27.1497C19.0856 26.9816 17.8533 28.0879 17.6713 29.6143C17.4752 31.1406 18.3994 32.5129 19.7157 32.667C19.8838 32.681 20.0518 32.695 20.2058 32.667C21.2421 32.3449 22.0823 31.4767 22.4184 30.3424C22.4324 30.3004 22.4324 30.2584 22.4464 30.2024Z" fill="black"/>
<path d="M21.3385 30.0754C21.4261 29.3693 21.0055 28.7359 20.3992 28.6607C19.7929 28.5855 19.2304 29.0969 19.1428 29.803C19.0552 30.5091 19.4757 31.1425 20.082 31.2177C20.6884 31.2929 21.2509 30.7815 21.3385 30.0754Z" fill="#333131"/>
<path d="M19.3376 26.884C19.5197 26.9681 19.6457 27.1361 19.7017 27.3181C19.7997 27.5562 19.7717 27.8503 19.6597 28.0743C19.4777 28.4524 19.1416 28.5784 18.7775 28.4664C18.4834 28.3824 18.2734 28.1443 18.2454 27.8223C18.1894 27.2201 18.7635 26.618 19.3376 26.884Z" fill="white"/>
<path d="M17.7413 29.5444C18.2034 29.6004 18.1053 30.3706 17.6432 30.3146C17.1811 30.2586 17.2792 29.4884 17.7413 29.5444Z" fill="white"/>
<path d="M19.4217 30.5385C19.7437 30.5805 19.6737 31.1126 19.3517 31.0706C19.0436 31.0286 19.1136 30.4965 19.4217 30.5385Z" fill="white"/>
<path opacity="0.46" d="M31.6044 34.5294C31.3524 36.6019 29.3499 38.0442 27.1514 37.7782C24.9389 37.4981 23.3705 35.6077 23.6226 33.5352C23.8746 31.4627 25.8491 30.1464 28.0616 30.4125C30.2601 30.6925 31.8565 32.457 31.6044 34.5294Z" fill="#AFDDF9"/>
<path d="M44.5154 24.3917C45.1876 23.5515 45.6777 22.6273 45.8877 21.535C45.9998 20.9469 45.9017 20.2327 45.6357 19.7006C45.3836 19.1965 45.0475 18.7344 44.6415 18.3423C43.7733 17.5161 42.569 17.096 41.3787 16.998C40.7766 16.9419 40.1604 16.9139 39.5863 17.082C39.0262 17.25 38.9421 17.8802 38.9421 18.3843C38.9421 19.6166 39.2362 20.8348 39.6843 21.9691C39.9364 22.5992 40.2444 23.2154 40.5805 23.7895C40.9026 24.3216 41.2807 24.8538 41.8548 25.1338C42.1629 25.3019 43.4092 25.792 44.5154 24.3917Z" fill="#21A3EC"/>
<path d="M15.8508 21.9126C16.467 21.7726 16.9711 21.3525 17.4052 20.9184C17.8813 20.4423 18.3294 19.9242 18.7215 19.3641C19.4356 18.3698 20.0238 17.2496 20.3179 16.0593C20.4439 15.5692 20.5139 14.939 20.0098 14.645C19.4777 14.3369 18.8895 14.2249 18.2874 14.1268C17.0971 13.9308 15.8368 14.0428 14.7866 14.631C14.2965 14.911 13.8484 15.2751 13.4843 15.7092C13.0922 16.1713 12.8261 16.8435 12.7981 17.4316C12.7421 18.5379 12.9802 19.5461 13.4283 20.5263C14.1564 22.1647 15.4867 21.9827 15.8508 21.9126Z" fill="#21A3EC"/>
<path opacity="0.4" d="M20.0238 14.6452C19.4916 14.3371 18.9035 14.2251 18.3014 14.1271C17.1811 13.945 15.9908 14.0291 14.9826 14.5332C15.6968 14.3931 16.4669 14.2951 17.1391 14.6312C17.6012 14.8552 17.9373 15.2473 18.1193 15.7234C18.3014 16.1996 18.3294 16.7177 18.2874 17.2218C18.2314 17.7679 18.1053 18.3 17.9093 18.8182C17.7412 19.2943 17.5172 19.7424 17.2511 20.1625C17.0971 20.4145 16.9151 20.6386 16.705 20.8486C16.4529 21.1147 16.1729 21.3668 15.8648 21.5628C15.5987 21.7308 15.3047 21.8709 15.0106 21.9269C15.3747 21.9969 15.6968 21.9409 15.8368 21.9129C16.4529 21.7728 16.9571 21.3527 17.3912 20.9186C17.8673 20.4425 18.3154 19.9244 18.7075 19.3643C19.4216 18.3701 20.0098 17.2498 20.3038 16.0595C20.4439 15.5694 20.5139 14.9393 20.0238 14.6452Z" fill="#21A3EC"/>
<path d="M45.9017 20.2743C45.6076 18.5099 43.9973 17.5577 42.4009 17.1236C41.6867 16.9275 40.9446 16.8435 40.2024 16.8435C40.2024 16.6755 40.2304 16.5215 40.3004 16.3534C40.3144 16.3114 40.2584 16.2834 40.2444 16.3254C40.1604 16.4794 40.1184 16.6615 40.1324 16.8435C40.0904 16.8435 40.0624 16.8435 40.0203 16.8435C40.0063 16.6475 39.9363 16.4654 39.8103 16.3114C39.7963 16.2974 39.7543 16.3114 39.7683 16.3394C39.8803 16.4794 39.9363 16.6615 39.9503 16.8435C39.8103 16.8435 39.6703 16.8575 39.5302 16.8715C38.55 16.9556 37.6398 17.2356 36.7716 17.7117C36.2115 17.3617 35.6093 17.0676 35.0212 16.8015C33.985 16.3394 32.9067 15.9613 31.8145 15.6953C30.5262 15.3872 29.1959 15.2332 27.8795 15.2192C27.8936 15.1631 27.9076 15.1071 27.9496 15.0511C28.0056 14.9671 28.0756 14.9251 28.1596 14.8691C28.1876 14.8551 28.1736 14.7991 28.1316 14.8131C27.9636 14.8551 27.8095 15.0371 27.7955 15.2192C27.7675 15.2192 27.7395 15.2192 27.7115 15.2192C27.6555 15.1071 27.5855 15.0091 27.5155 14.9111C27.5015 14.8831 27.4454 14.9111 27.4595 14.9391C27.5155 15.0371 27.5575 15.1351 27.6135 15.2192C26.7453 15.2192 25.8771 15.2892 25.0089 15.4292C24.2107 15.5552 23.4405 15.7233 22.6843 15.9753C21.9702 15.3032 21.144 14.7851 20.2058 14.463C19.2956 14.1409 18.3293 13.9869 17.3631 14.0009C15.7107 14.0289 13.9043 14.561 13.1902 16.1994C12.9941 16.6615 12.8961 17.1376 12.8681 17.6417C12.8261 17.6137 12.7841 17.5997 12.7421 17.5717C12.658 17.5157 12.588 17.4457 12.518 17.3757C12.49 17.3616 12.462 17.3897 12.49 17.4037C12.574 17.5157 12.714 17.6417 12.8541 17.7257C12.8541 17.8378 12.8541 17.9638 12.8541 18.0758C12.7 18.0478 12.546 18.1318 12.504 18.2859C12.504 18.3139 12.532 18.3279 12.546 18.2999C12.602 18.1738 12.728 18.1038 12.8541 18.1458C12.8681 18.3699 12.8961 18.5939 12.9381 18.818C13.0781 19.6302 13.3442 20.5264 13.8343 21.2125C14.2544 21.8287 14.8986 22.1227 15.6127 22.0107C15.2206 22.7109 14.9686 23.4671 14.7865 24.2512C14.5905 25.0774 14.4224 26.0156 14.5205 26.8698C14.5065 26.8698 14.5065 26.8698 14.4925 26.8698C13.9183 27.458 13.5262 28.2002 13.2882 29.0123C13.1481 28.9423 13.0501 28.8023 13.0221 28.6483C13.0221 28.6203 12.9661 28.6062 12.9661 28.6483C12.9801 28.8443 13.1061 28.9983 13.2602 29.0824C13.1061 29.6285 13.0361 30.2026 13.0361 30.7487C13.0361 33.3954 14.5905 35.6779 16.635 37.2322C18.9455 39.0107 21.8161 39.8088 24.6168 40.453C23.1184 39.9769 21.5921 39.5148 20.1358 38.9266C17.7272 37.9324 15.3747 36.392 14.0864 34.0535C13.4702 32.9332 13.1621 31.673 13.2182 30.3987C13.2742 29.0964 13.7223 27.9341 14.5065 26.9119C14.5065 26.9119 14.5205 26.9119 14.5205 26.8979C14.5905 26.4638 14.6045 26.0297 14.6605 25.5956C14.7165 25.1755 14.8005 24.7554 14.8985 24.3493C15.0946 23.5371 15.3887 22.7669 15.6547 21.9967C15.7247 21.9827 15.7808 21.9687 15.8508 21.9547C16.663 21.7167 17.3631 21.0725 17.9513 20.4844C19.1835 19.2521 20.0097 17.7117 20.3878 16.0033C20.4018 15.9613 20.3318 15.9613 20.3318 15.9893C19.8977 17.7397 18.9035 19.4061 17.5732 20.6244C16.971 21.1705 16.2569 21.7727 15.4167 21.8287C14.4925 21.8987 13.9463 21.1705 13.6243 20.4004C12.9941 18.902 12.7 16.9696 13.7643 15.5972C14.7585 14.3229 16.705 14.1129 18.2033 14.2529C19.7717 14.407 21.298 15.0651 22.5723 15.9893H22.5583C22.1662 16.1294 21.7041 16.3114 21.326 16.4794C21.298 16.4935 21.312 16.5215 21.34 16.5075C23.5105 15.8493 25.723 15.3732 27.9916 15.4152C30.2181 15.4572 32.4306 15.9053 34.4891 16.7735C35.6653 17.2636 36.7576 17.9218 37.8639 18.5519C37.8919 18.5659 37.9339 18.5239 37.9059 18.5099C37.5698 18.2299 37.2057 17.9638 36.8276 17.7397C38.284 17.1516 39.8943 16.8995 41.4487 17.1376C42.947 17.3617 44.7814 18.0338 45.4256 19.5181C46.1258 21.1145 45.3696 22.9069 44.3894 24.2092C43.8852 24.8674 43.1851 25.4415 42.3029 25.1474C41.5047 24.8814 40.9586 24.1112 40.5105 23.4531C39.5022 21.9547 38.9561 20.0923 38.9561 18.2859C38.9561 18.2439 38.9001 18.2439 38.9001 18.2719C38.8441 20.0083 39.2782 21.7027 40.1744 23.215C40.5945 23.9292 41.1266 24.7133 41.8408 25.1474C41.8968 25.1755 41.9528 25.2175 42.0088 25.2455C42.0928 26.0717 42.1909 26.8839 42.1769 27.724C42.1769 28.1441 42.1488 28.5642 42.0928 28.9843C42.0368 29.4184 41.9528 29.8525 41.9108 30.2866C41.9108 30.2866 41.9108 30.3006 41.9248 30.3006C42.4429 31.4909 42.5969 32.7372 42.3309 33.9975C42.0648 35.2438 41.4627 36.392 40.5945 37.3163C38.7881 39.2767 36.1275 40.1869 33.5369 40.565C31.9965 40.7891 30.4421 40.8591 28.8878 40.9571C31.7444 41.0131 34.6851 40.9291 37.3457 39.7808C38.69 39.1927 39.9503 38.3525 40.8886 37.2462C40.9306 37.3863 41.0006 37.5123 41.0566 37.6383C41.0706 37.6663 41.1126 37.6523 41.0986 37.6243C41.0566 37.4843 41.0146 37.3443 40.9586 37.2042C40.9586 37.1902 40.9446 37.1902 40.9446 37.1902C40.9586 37.1622 40.9866 37.1482 41.0006 37.1202C41.0286 37.1482 41.0566 37.1762 41.0846 37.1902C41.1406 37.2322 41.2106 37.2742 41.2666 37.2883C41.2946 37.2883 41.3086 37.2602 41.2806 37.2462C41.2246 37.2182 41.1686 37.1902 41.1266 37.1342C41.0986 37.1062 41.0706 37.0782 41.0566 37.0502C41.6867 36.266 42.1628 35.3698 42.4149 34.3616C42.751 33.0173 42.681 31.4629 41.9668 30.2586C41.9668 30.2446 41.9528 30.2446 41.9528 30.2446C42.0788 29.9366 42.1628 29.6005 42.2189 29.2644C42.2609 29.2784 42.3169 29.2644 42.3589 29.2644C42.4149 29.2644 42.4849 29.2924 42.5269 29.3204C42.5549 29.3344 42.5829 29.3064 42.5549 29.2784C42.4989 29.2224 42.4429 29.1944 42.3729 29.1804C42.3309 29.1664 42.2749 29.1664 42.2329 29.1804C42.2469 29.1244 42.2469 29.0684 42.2609 29.0263C42.2609 29.0403 42.2749 29.0403 42.2889 29.0544C42.3309 29.0684 42.3869 29.0544 42.4289 29.0544C42.4849 29.0544 42.5269 29.0403 42.5829 29.0263C42.611 29.0123 42.611 28.9703 42.5689 28.9703C42.5129 28.9703 42.4569 28.9703 42.4009 28.9703C42.3589 28.9703 42.3029 28.9703 42.2609 28.9983C42.2609 28.9983 42.2609 28.9983 42.2469 29.0123C42.3029 28.5642 42.3309 28.1021 42.3309 27.668C42.3449 26.8698 42.2889 26.0717 42.0788 25.3015C42.737 25.5815 43.4371 25.4415 43.9973 24.9654C44.6274 24.4193 45.1035 23.6211 45.4396 22.8649C45.8597 22.0387 46.0417 21.1565 45.9017 20.2743Z" fill="black"/>
<path d="M31.6744 34.2355C31.4364 36.1539 29.4619 37.4842 27.2494 37.2182C25.0369 36.9381 23.4545 35.1737 23.6926 33.2553C23.9306 31.3368 25.555 30.9587 27.7535 31.2248C29.966 31.4908 31.9125 32.317 31.6744 34.2355Z" fill="black"/>
<path d="M30.7782 32.541C29.4619 31.5468 27.7255 31.1827 26.1012 31.3787C25.401 31.4627 24.6588 31.6448 24.2107 32.2329C23.8046 32.765 23.6646 33.4792 23.7906 34.1374C23.9587 34.9496 24.4908 35.7057 25.1629 36.1678C25.1769 36.1818 25.2049 36.1538 25.1909 36.1398C24.6868 35.6217 24.1967 35.0616 23.9867 34.3614C23.7906 33.7313 23.8606 33.0171 24.2247 32.443C24.6588 31.7708 25.457 31.5888 26.2132 31.5188C26.9554 31.4347 27.7115 31.4768 28.4397 31.6448C29.2519 31.8268 30.0361 32.1769 30.7502 32.597C30.7922 32.597 30.8062 32.555 30.7782 32.541Z" fill="#21A3EC"/>
<path d="M31.4364 32.9053C30.9883 32.2051 30.2461 31.799 29.4759 31.5469C28.6217 31.2669 27.7115 31.1409 26.8013 31.1549C26.0031 31.1689 25.0789 31.2389 24.4208 31.757C23.8466 32.2051 23.4826 32.9193 23.7066 34.1375C23.5246 33.0733 23.8606 32.3731 24.3088 31.953C24.8829 31.4069 25.7231 31.2949 26.4793 31.2529C27.3334 31.1969 28.2016 31.2809 29.0278 31.5049C29.798 31.701 30.5822 32.0091 31.1283 32.6112C31.6745 33.2133 31.9125 34.1796 31.3524 35.3138C31.8705 34.4176 31.8005 33.4794 31.4364 32.9053Z" fill="black"/>
<path d="M28.4257 37.2179C26.9833 37.4419 25.499 36.8818 24.5608 35.7756C24.1827 35.3274 23.8886 34.7953 23.7206 34.2212C24.0287 35.3835 24.8408 36.3917 25.9471 36.9098C27.2774 37.526 28.8598 37.4279 30.0921 36.6297C30.5822 36.3077 30.9743 35.9016 31.2823 35.4115C30.6102 36.3637 29.5879 37.0358 28.4257 37.2179Z" fill="black"/>
<path opacity="0.65" d="M18.9198 34.9404C19.076 33.6817 18.2319 32.5409 17.0346 32.3924C15.8373 32.2439 14.7402 33.1439 14.584 34.4026C14.4279 35.6613 15.2719 36.802 16.4692 36.9506C17.6665 37.0991 18.7637 36.1991 18.9198 34.9404Z" fill="#99D5F7"/>
<path opacity="0.65" d="M40.2444 37.5264C40.0904 38.7867 38.9841 39.6829 37.7938 39.5428C36.6036 39.4028 35.7494 38.2545 35.9034 36.9943C36.0574 35.734 37.1637 34.8378 38.354 34.9778C39.5582 35.1178 40.3984 36.2661 40.2444 37.5264Z" fill="#99D5F7"/>
<path d="M25.191 33.5074C24.9669 33.4794 24.7429 33.6475 24.7148 33.8715C24.6868 34.0956 24.8549 34.3196 25.0789 34.3476C25.303 34.3756 25.527 34.2076 25.555 33.9836C25.583 33.7455 25.415 33.5355 25.191 33.5074Z" fill="#21A3EC"/>
<path d="M30.2041 34.1237C29.9801 34.0957 29.756 34.2637 29.728 34.4877C29.7 34.7118 29.8681 34.9358 30.0921 34.9639C30.3162 34.9919 30.5402 34.8238 30.5682 34.5998C30.5962 34.3617 30.4422 34.1517 30.2041 34.1237Z" fill="#21A3EC"/>
<path opacity="0.4" d="M45.6357 19.7002C45.3836 19.1961 45.0475 18.734 44.6414 18.3419C43.7732 17.5157 42.569 17.0956 41.3787 16.9976C41.1266 16.9696 40.8746 16.9556 40.6225 16.9556C40.8606 16.9976 41.0986 17.0396 41.3367 17.0956C41.8688 17.2356 42.4009 17.4457 42.877 17.7397C43.2831 17.9918 43.6472 18.3139 43.8853 18.72C44.1793 19.2241 44.2914 19.8262 44.3054 20.4004C44.3194 21.0445 44.2213 21.7027 44.0393 22.3188C43.9413 22.6269 43.8433 22.9209 43.7032 23.215C43.5912 23.4531 43.4792 23.7051 43.3391 23.9292C43.0871 24.3213 42.723 24.6713 42.2189 24.6713C41.6868 24.6853 41.2106 24.3633 40.8606 23.9852C40.6365 23.7331 40.4545 23.4671 40.2584 23.187C40.3564 23.3831 40.4685 23.5791 40.5805 23.7611C40.9026 24.2933 41.2807 24.8254 41.8548 25.1054C42.1769 25.2735 43.4232 25.7636 44.5434 24.3633C45.2156 23.5231 45.7057 22.5989 45.9157 21.5066C45.9997 20.9465 45.9017 20.2323 45.6357 19.7002Z" fill="#21A3EC"/>
<path d="M42.583 24.8112C42.1629 24.3911 41.7008 24.055 41.3647 23.5789C41.0006 23.0608 40.6925 22.5286 40.4405 21.9405C40.1884 21.3524 39.9924 20.7222 39.8523 20.0921C39.7123 19.4479 39.5303 18.8038 39.4182 18.1596C39.4182 18.1176 39.3622 18.1316 39.3622 18.1736C39.3202 18.8878 39.3342 19.546 39.4882 20.2461C39.6423 20.9183 39.8523 21.5624 40.1324 22.1926C40.3845 22.7807 40.7205 23.3548 41.1546 23.8309C41.5327 24.237 42.0088 24.7132 42.555 24.8672C42.583 24.8812 42.611 24.8392 42.583 24.8112Z" fill="#21A3EC"/>
<path d="M15.6548 14.8271C14.9686 14.9392 14.4925 15.2893 14.1004 15.8494C13.7083 16.4235 13.5123 17.1097 13.4983 17.7958C13.4843 18.594 13.6803 19.4062 14.0164 20.1204C14.1704 20.4564 14.3665 20.7925 14.6185 21.0866C14.8006 21.2966 15.0386 21.4927 15.3187 21.3947C15.3607 21.3807 15.3607 21.3246 15.3187 21.3106C14.9826 21.2266 14.8006 20.9606 14.6605 20.6665C14.5065 20.3444 14.3665 20.0083 14.2404 19.6723C14.0024 19.0281 13.8483 18.356 13.8904 17.6698C13.9184 17.0817 14.1004 16.5215 14.4225 16.0314C14.7305 15.5693 15.1927 15.1212 15.6828 14.8692C15.7108 14.8692 15.6828 14.8271 15.6548 14.8271Z" fill="#21A3EC"/>
<path d="M13.1622 29.4463C13.0641 29.4603 12.9801 29.4743 12.8821 29.4743C12.8541 29.4743 12.8541 29.5163 12.8821 29.5163C12.9801 29.5163 13.0641 29.5023 13.1622 29.5023C13.2042 29.5023 13.2042 29.4463 13.1622 29.4463Z" fill="black"/>
<path d="M17.9933 37.3164C16.915 36.3221 15.8508 35.2579 15.0806 33.9836C14.3524 32.7793 14.0024 31.365 14.1564 29.9507C14.2404 29.1665 14.4785 28.3963 14.9126 27.7242C14.9546 27.6541 14.8426 27.5561 14.7865 27.6261C13.8063 28.7464 13.5683 30.2167 13.8063 31.6591C14.0584 33.1434 14.8986 34.5437 15.9348 35.622C16.537 36.2521 17.2231 36.8403 17.9373 37.3584C17.9793 37.4004 18.0213 37.3444 17.9933 37.3164Z" fill="#21A3EC"/>
<path d="M76.04 47.184L76.472 42.288C75.064 42.032 73.704 41.536 72.392 40.8C71.08 40.032 69.944 38.992 68.984 37.68C68.056 36.368 67.448 34.72 67.16 32.736L73.736 31.536C73.736 31.6 73.784 31.904 73.88 32.448C73.976 32.96 74.2 33.536 74.552 34.176C74.904 34.816 75.432 35.376 76.136 35.856C76.872 36.336 77.864 36.576 79.112 36.576C79.592 36.576 80.12 36.528 80.696 36.432C81.304 36.304 81.832 36.08 82.28 35.76C82.728 35.408 82.952 34.928 82.952 34.32C82.952 33.52 82.568 32.912 81.8 32.496C81.032 32.08 80.056 31.744 78.872 31.488C77.688 31.2 76.424 30.88 75.08 30.528C73.768 30.176 72.536 29.696 71.384 29.088C70.232 28.448 69.32 27.568 68.648 26.448C67.976 25.296 67.704 23.808 67.832 21.984C67.96 20.032 68.728 18.416 70.136 17.136C71.544 15.824 73.64 14.992 76.424 14.64L76.04 9.792H82.76L82.376 14.832C84.488 15.344 86.28 16.368 87.752 17.904C89.224 19.44 89.976 21.536 90.008 24.192L83.672 25.2C83.672 24.048 83.432 23.152 82.952 22.512C82.504 21.872 81.928 21.424 81.224 21.168C80.552 20.912 79.896 20.768 79.256 20.736C78.648 20.672 78.2 20.64 77.912 20.64C77.304 20.64 76.648 20.8 75.944 21.12C75.24 21.44 74.856 22.016 74.792 22.848C74.792 23.584 75.08 24.16 75.656 24.576C76.264 24.992 77.048 25.328 78.008 25.584C78.968 25.84 80.008 26.096 81.128 26.352C82.28 26.576 83.416 26.88 84.536 27.264C85.656 27.616 86.68 28.096 87.608 28.704C88.536 29.312 89.24 30.128 89.72 31.152C90.232 32.176 90.44 33.472 90.344 35.04C90.216 36.928 89.384 38.48 87.848 39.696C86.312 40.912 84.472 41.728 82.328 42.144L82.76 47.184H76.04ZM101.448 42H94.7281V14.976H106.152C109.224 14.976 111.64 15.776 113.4 17.376C115.192 18.944 116.088 21.312 116.088 24.48C116.088 27.168 115.176 29.296 113.352 30.864C111.528 32.4 109.128 33.168 106.152 33.168H101.448V42ZM105.144 20.352H101.448V28.464H105.144C106.488 28.464 107.64 28.128 108.6 27.456C109.56 26.752 110.04 25.728 110.04 24.384C110.04 23.008 109.56 22 108.6 21.36C107.672 20.688 106.52 20.352 105.144 20.352ZM125.679 36.672H140.079V42H119.103V14.976H139.551V20.688H125.679V25.632H135.999V31.008H125.679V36.672ZM144.228 42V14.976H155.22C158.74 14.976 161.524 15.6 163.572 16.848C165.62 18.096 166.644 20.192 166.644 23.136C166.644 25.568 166.1 27.456 165.012 28.8C163.956 30.144 162.516 30.816 160.692 30.816C161.588 30.816 162.26 31.024 162.708 31.44C163.188 31.824 163.524 32.336 163.716 32.976C163.94 33.584 164.116 34.208 164.244 34.848C164.372 35.488 164.548 36.064 164.772 36.576C164.996 37.056 165.348 37.376 165.828 37.536C166.34 37.664 167.06 37.536 167.988 37.152V40.8C167.092 41.568 166.1 42.064 165.012 42.288C163.924 42.544 162.884 42.48 161.892 42.096C160.932 41.744 160.132 41.056 159.492 40.032C158.852 38.976 158.532 37.552 158.532 35.76C158.532 34.992 158.468 34.304 158.34 33.696C158.244 33.056 157.956 32.528 157.476 32.112C156.996 31.696 156.244 31.424 155.22 31.296C154.196 31.136 152.772 31.136 150.948 31.296V42H144.228ZM150.948 26.592H154.308C155.78 26.592 156.98 26.576 157.908 26.544C158.836 26.512 159.524 26.304 159.972 25.92C160.452 25.504 160.692 24.768 160.692 23.712C160.692 22.528 160.404 21.712 159.828 21.264C159.284 20.784 158.468 20.512 157.38 20.448C156.324 20.384 155.012 20.352 153.444 20.352H150.948V26.592ZM171.978 42V14.976H182.97C186.49 14.976 189.274 15.6 191.322 16.848C193.37 18.096 194.394 20.192 194.394 23.136C194.394 25.568 193.85 27.456 192.762 28.8C191.706 30.144 190.266 30.816 188.442 30.816C189.338 30.816 190.01 31.024 190.458 31.44C190.938 31.824 191.274 32.336 191.466 32.976C191.69 33.584 191.866 34.208 191.994 34.848C192.122 35.488 192.298 36.064 192.522 36.576C192.746 37.056 193.098 37.376 193.578 37.536C194.09 37.664 194.81 37.536 195.738 37.152V40.8C194.842 41.568 193.85 42.064 192.762 42.288C191.674 42.544 190.634 42.48 189.642 42.096C188.682 41.744 187.882 41.056 187.242 40.032C186.602 38.976 186.282 37.552 186.282 35.76C186.282 34.992 186.218 34.304 186.09 33.696C185.994 33.056 185.706 32.528 185.226 32.112C184.746 31.696 183.994 31.424 182.97 31.296C181.946 31.136 180.522 31.136 178.698 31.296V42H171.978ZM178.698 26.592H182.058C183.53 26.592 184.73 26.576 185.658 26.544C186.586 26.512 187.274 26.304 187.722 25.92C188.202 25.504 188.442 24.768 188.442 23.712C188.442 22.528 188.154 21.712 187.578 21.264C187.034 20.784 186.218 20.512 185.13 20.448C184.074 20.384 182.762 20.352 181.194 20.352H178.698V26.592ZM205.152 42V32.688H205.104L195.936 14.976H203.472L208.608 27.024L213.744 14.976H221.28L211.824 32.688V42H205.152Z" fill="white"/>
<defs>
<filter id="filter0_i_8_240" x="3" y="3" width="51" height="51" filterUnits="userSpaceOnUse" color-interpolation-filters="sRGB">
<feFlood flood-opacity="0" result="BackgroundImageFix"/>
<feBlend mode="normal" in="SourceGraphic" in2="BackgroundImageFix" result="shape"/>
<feColorMatrix in="SourceAlpha" type="matrix" values="0 0 0 0 0 0 0 0 0 0 0 0 0 0 0 0 0 0 127 0" result="hardAlpha"/>
<feOffset/>
<feGaussianBlur stdDeviation="5.4"/>
<feComposite in2="hardAlpha" operator="arithmetic" k2="-1" k3="1"/>
<feColorMatrix type="matrix" values="0 0 0 0 0.0701736 0 0 0 0 0.23735 0 0 0 0 0.391667 0 0 0 1 0"/>
<feBlend mode="normal" in2="shape" result="effect1_innerShadow_8_240"/>
</filter>
</defs>
</svg>
