<svg width="365" height="559" viewBox="0 0 365 559" fill="none" xmlns="http://www.w3.org/2000/svg">
<path d="M364.43 315.518C363.772 292.095 363.33 268.346 358.665 245.303C350.499 204.966 325.142 171.018 289.847 150.121C217.309 107.173 119.864 126.337 59.1854 181.215C31.3374 206.401 10.5254 239.864 3.22836 276.921C-5.29464 320.204 3.32336 366.118 25.9444 403.89C33.9544 417.265 43.6444 429.614 54.6264 440.703C81.0884 474.312 120.555 497.872 163.877 503.409C203.776 508.509 245.157 499.526 280.07 479.768C316.106 459.375 347.443 426.341 358.609 385.743C364.881 362.941 365.09 338.988 364.43 315.518Z" fill="#21A3EC"/>
<path d="M200.664 452.394C205.395 448.734 208.165 441.697 204.489 436.351C204.333 436.124 204.07 436.115 203.882 436.219C201.423 434.189 199.003 432.096 196.483 430.143C194.652 428.724 192.605 427.386 190.243 427.152C184.845 426.616 181.171 432.419 180.464 437.096C179.658 442.423 181.901 447.719 186.004 451.15C188.022 452.838 190.486 454.164 193.113 454.547C195.872 454.95 198.48 454.084 200.664 452.394Z" fill="#E2EDFD"/>
<path d="M201.038 452.761C203.781 450.602 205.868 447.45 206.505 443.991C206.804 442.369 206.783 440.679 206.339 439.084C206.059 438.08 205.222 435.18 203.749 435.712C203.916 435.756 204.082 435.801 204.249 435.845C202.14 434.102 200.064 432.32 197.924 430.614C196.237 429.269 194.513 427.908 192.471 427.145C188.563 425.686 184.848 427.462 182.517 430.702C180.142 434.003 179.291 438.231 180.068 442.207C180.901 446.47 183.542 450.194 187.1 452.634C189.124 454.021 191.518 455.033 193.991 455.156C196.516 455.282 198.93 454.353 200.926 452.846C201.457 452.445 200.939 451.534 200.401 451.94C198.075 453.696 195.297 454.53 192.408 453.885C189.729 453.287 187.268 451.753 185.334 449.831C181.591 446.111 179.85 440.501 181.388 435.38C182.793 430.702 186.934 426.17 192.2 428.158C194.882 429.17 197.136 431.29 199.31 433.089C200.54 434.107 201.759 435.137 202.987 436.157C203.173 436.311 203.396 436.583 203.622 436.675C203.786 436.742 203.951 436.704 204.095 436.776C204.502 436.98 204.865 438.044 205.023 438.446C206.979 443.402 204.221 448.932 200.289 452.027C199.763 452.442 200.513 453.174 201.038 452.761Z" fill="#221F1F"/>
<path d="M235.168 451.039C235.525 448.938 235.241 446.656 234.02 444.868C232.804 443.087 230.827 442.115 228.721 441.87C223.901 441.308 219.249 443.807 214.414 442.851C212.277 442.428 210.251 441.512 208.489 440.231C207.73 440.931 206.96 441.621 206.176 442.293C203.365 444.704 200.341 446.817 197.225 448.814C194.033 450.859 190.751 452.763 187.392 454.519C185.765 455.369 184.128 456.223 182.436 456.938C181.381 457.384 180.311 457.792 179.239 458.193C183.649 460.446 188.356 462.122 193.241 463.156C203.601 465.348 214.682 464.784 224.65 461.119C229.33 459.397 234.265 456.351 235.168 451.039Z" fill="#E2EDFD"/>
<path d="M229.664 459.281C232.286 457.617 234.564 455.286 235.433 452.234C236.175 449.627 235.943 446.628 234.32 444.392C230.392 438.98 223.106 442.187 217.777 442.516C215.997 442.626 214.269 442.398 212.583 441.806C211.579 441.453 210.62 440.988 209.716 440.427C209.424 440.246 209.125 440.086 208.909 439.842C208.647 440.086 208.385 440.329 208.12 440.57C208.189 440.644 208.265 440.715 208.36 440.783C209.469 441.579 210.7 442.219 211.977 442.699C214.306 443.573 216.693 443.734 219.145 443.429C223.743 442.859 230.558 440.369 233.696 445.324C235.108 447.554 235.069 450.52 234.094 452.909C233.032 455.511 230.81 457.439 228.422 458.809C223.872 461.42 218.391 462.696 213.233 463.402C207.961 464.123 202.585 464.081 197.318 463.343C196.003 463.159 194.696 462.926 193.396 462.654C188.705 461.648 184.192 460.047 179.954 457.924C179.503 458.095 179.051 458.264 178.599 458.432C181.64 460.026 184.831 461.35 188.14 462.372C189.769 462.875 191.421 463.298 193.088 463.656C199.179 464.929 205.429 465.287 211.621 464.646C214.783 464.318 217.918 463.726 220.978 462.86C223.981 462.008 227.014 460.963 229.664 459.281Z" fill="#010101"/>
<path d="M216.198 459.666C222.916 451.48 227.52 441.385 228.858 430.849C229.486 425.902 229.056 420.12 224.757 416.871C223.057 415.586 220.901 414.787 218.75 415.047C216.609 415.306 214.836 416.613 213.648 418.369C210.929 422.388 211.004 427.669 207.928 431.519C206.541 433.255 204.754 434.653 202.758 435.63C199.42 435.188 196.079 434.009 192.866 433.445C191.86 433.268 190.847 433.147 189.832 433.077C187.547 429.348 185.723 425.348 184.435 421.161C183.67 418.675 183.116 416.142 182.705 413.575C182.309 411.099 181.881 408.606 180.457 406.482C179.023 404.342 176.964 402.729 175.009 401.094C172.958 399.379 170.907 397.663 168.856 395.948C164.576 392.368 160.295 388.788 156.015 385.209C151.519 381.449 147.024 377.69 142.528 373.93C142.47 373.823 142.374 373.737 142.259 373.705C142.029 373.512 141.799 373.32 141.568 373.128C141.14 372.77 140.524 373.389 140.956 373.751C141.095 373.868 141.235 373.984 141.374 374.101C131.68 380.067 124.523 389.588 120.745 400.272C116.767 411.521 116.76 423.893 119.681 435.39C122.759 447.507 129.012 459.191 138.203 467.763C146.463 475.467 157.411 480.48 168.815 480.455C169.457 480.454 170.099 480.434 170.739 480.398C177.245 480.532 183.773 479.574 189.973 477.562C200.233 474.23 209.356 468.004 216.198 459.666Z" fill="#E2EDFD"/>
<path d="M213.153 463.834C214.35 462.619 215.486 461.349 216.572 460.034C220.508 455.214 223.705 449.831 225.987 444.04C227.153 441.082 228.071 438.027 228.711 434.912C229.34 431.854 229.809 428.68 229.537 425.554C229.268 422.46 228.248 419.365 225.939 417.188C223.967 415.329 221.198 414.153 218.465 414.563C211.852 415.556 211.342 423.501 209.179 428.382C208.456 430.013 207.458 431.441 206.156 432.665C205.38 433.394 204.526 434.03 203.611 434.575C203.231 434.801 202.878 435.057 202.437 435.06C202.001 435.063 201.499 434.904 201.072 434.819C197.408 434.088 193.882 432.909 190.145 432.582C187.23 427.736 185.087 422.479 183.873 416.95C183.296 414.324 183.1 411.58 182.245 409.022C181.404 406.508 179.773 404.54 177.821 402.793C173.481 398.908 168.876 395.285 164.407 391.548C159.837 387.726 155.266 383.903 150.696 380.081C148.186 377.982 145.621 375.934 143.159 373.778C142.585 373.275 141.731 372.19 140.86 372.597C140.122 372.942 140.225 373.518 140.562 373.997C130.169 380.646 122.691 391.298 119.286 403.107C115.851 415.022 116.622 427.878 120.343 439.626C124.343 452.258 131.806 464.199 142.613 472.075C147.32 475.505 152.649 478.122 158.287 479.606C161.062 480.337 163.915 480.787 166.781 480.93C168.416 481.012 170.046 480.926 171.681 480.934C173.36 480.942 175.04 480.877 176.714 480.739C190.427 479.611 203.481 473.646 213.153 463.834ZM171.687 479.885C168.636 479.872 165.66 479.932 162.632 479.451C157.001 478.556 151.6 476.485 146.724 473.547C135.672 466.889 127.666 455.887 123.002 443.999C118.518 432.571 116.814 419.88 119.232 407.772C121.622 395.804 128.17 384.551 137.921 377.106C139.117 376.193 140.36 375.346 141.638 374.553C141.792 374.458 141.893 374.274 141.899 374.092C141.962 374.139 142.025 374.185 142.081 374.232C142.726 374.77 143.368 375.313 144.012 375.852L147.582 378.838C150.006 380.865 152.43 382.893 154.854 384.92C159.756 389.019 164.657 393.118 169.559 397.218C171.948 399.216 174.379 401.175 176.726 403.223C179.095 405.29 180.858 407.535 181.617 410.634C182.316 413.486 182.608 416.417 183.352 419.266C184.108 422.162 185.131 424.987 186.376 427.708C187.028 429.134 187.745 430.532 188.523 431.894C188.619 432.063 188.716 432.268 188.82 432.478C181.807 432.089 174.757 434.813 169.842 439.865C169.451 440.267 170.072 440.881 170.465 440.477C175.371 435.434 182.423 432.832 189.407 433.391C189.443 433.427 189.48 433.464 189.519 433.494C189.898 433.782 190.732 433.676 191.199 433.73C194.054 434.062 196.8 434.931 199.592 435.572C200.295 435.733 201.002 435.881 201.713 436.001C202.32 436.104 202.748 436.226 203.304 435.944C204.521 435.326 205.657 434.529 206.67 433.616C208.519 431.952 209.761 429.907 210.62 427.59C212.232 423.246 213.161 416.05 219.005 415.547C221.635 415.321 224.25 416.722 225.921 418.688C227.741 420.829 228.429 423.69 228.545 426.44C228.766 431.681 227.375 437.134 225.625 442.037C223.837 447.048 221.323 451.801 218.242 456.136C217.472 457.219 216.664 458.271 215.823 459.3C207.177 469.774 194.973 476.814 181.583 479.081C178.317 479.633 175.001 479.899 171.687 479.885Z" fill="#010101"/>
<path d="M180.419 417.063C182.945 417.818 185.507 418.438 188.089 418.891C194.649 420.043 201.396 419.762 207.496 416.888C220.705 410.664 227.137 396.638 230.905 383.33C231.283 381.996 231.641 380.656 231.989 379.314C236.071 377.291 240.115 375.126 243.651 372.236C246.821 369.645 250.797 365.811 250.464 361.326C250.136 356.925 245.75 354.089 242.364 351.999C238.518 349.625 234.4 347.69 230.119 346.244C227.059 345.21 223.917 344.426 220.732 343.899C214.418 336.851 206.663 331.144 198.053 327.211C196.677 326.583 195.28 326.004 193.866 325.471C189.175 318.273 183.128 311.98 176.078 307.047C172.661 304.656 168.632 301.769 164.337 303.694C160.604 305.367 158.094 309.326 156.563 312.963C155.013 316.644 154.37 320.683 154.688 324.658C149.596 328.035 144.901 331.988 140.704 336.418C135.77 340.77 131.617 345.865 129.062 352.175C126.692 358.027 126.245 364.383 127.776 370.508C129.309 376.641 132.503 382.253 136.344 387.228C138.345 389.82 140.52 392.286 142.841 394.617" fill="#E2EDFD"/>
<path d="M141.138 336.083C140.387 336.745 139.656 337.425 138.944 338.123C138.846 339.785 139.068 341.455 139.692 343.038C140.691 345.573 142.554 347.663 144.664 349.342C147.062 351.251 149.806 352.701 152.618 353.898C155.689 355.206 158.932 356.09 162.231 356.59C165.6 357.1 169.031 357.21 172.426 356.912C175.837 356.613 179.218 355.902 182.443 354.743C185.643 353.593 188.688 351.999 191.407 349.953C192.798 348.906 194.16 347.752 195.297 346.429C196.601 344.913 197.851 343.346 198.942 341.667C199.52 340.778 200.053 339.858 200.524 338.907C200.918 338.112 201.298 337.294 201.554 336.443C201.991 334.99 202.125 333.455 202.256 331.95C202.345 330.931 202.419 329.908 202.536 328.891C201.21 328.176 199.861 327.501 198.49 326.874C197.114 326.246 195.717 325.667 194.303 325.134C189.612 317.936 183.565 311.643 176.515 306.71C173.098 304.319 169.069 301.432 164.774 303.357C161.041 305.03 158.531 308.989 157 312.626C155.45 316.307 154.807 320.346 155.125 324.322C150.03 327.7 145.335 331.652 141.138 336.083Z" fill="#E2EDFD"/>
<path d="M180.645 417.28C189.644 419.951 199.524 421.209 208.288 417.038C217.351 412.725 223.491 404.463 227.516 395.498C229.871 390.251 231.536 384.745 232.979 379.188C232.873 379.299 232.767 379.41 232.662 379.521C236.981 377.377 241.245 375.063 244.955 371.951C247.518 369.801 250.193 367.188 251.157 363.883C251.648 362.201 251.626 360.43 251.005 358.783C250.314 356.953 248.96 355.454 247.489 354.205C245.972 352.917 244.269 351.853 242.567 350.83C240.548 349.616 238.458 348.517 236.313 347.544C231.511 345.366 226.43 343.847 221.231 342.975C221.364 343.047 221.496 343.119 221.629 343.192C217.077 338.131 211.808 333.729 205.992 330.19C203.076 328.416 200.029 326.848 196.883 325.526C196.491 325.361 196.097 325.201 195.703 325.043C195.342 324.899 194.892 324.807 194.611 324.529C194.303 324.223 194.074 323.722 193.829 323.367C193.565 322.982 193.296 322.6 193.024 322.221C191.989 320.781 190.899 319.381 189.755 318.026C185.449 312.926 180.39 308.475 174.805 304.822C172.834 303.532 170.634 302.318 168.234 302.158C165.472 301.973 162.953 303.366 161.038 305.267C156.142 310.128 154.033 317.661 154.539 324.412C154.61 324.229 154.681 324.046 154.752 323.863C152.17 325.582 149.683 327.44 147.313 329.442C146.129 330.442 144.973 331.475 143.849 332.541C142.732 333.6 141.703 334.758 140.571 335.798C136.438 339.593 132.788 343.782 130.229 348.812C127.936 353.32 126.657 358.292 126.734 363.362C126.815 368.696 128.371 373.868 130.776 378.603C133.816 384.589 138.104 389.906 142.815 394.654C143.346 395.19 144.273 394.451 143.736 393.91C136.04 386.153 128.822 376.315 127.985 365.057C127.199 354.484 132.639 344.845 140.151 337.782C142.574 335.504 144.872 333.104 147.394 330.928C149.962 328.711 152.672 326.664 155.496 324.783C155.675 324.664 155.724 324.431 155.709 324.234C155.43 320.516 155.986 316.756 157.367 313.29C158.732 309.864 160.838 306.255 164.12 304.356C166.949 302.719 169.897 303.326 172.617 304.866C175.616 306.564 178.429 308.736 181.05 310.959C184.212 313.642 187.115 316.626 189.725 319.85C191.047 321.482 192.292 323.176 193.457 324.924C193.746 325.357 193.878 325.593 194.358 325.791C194.794 325.971 195.239 326.132 195.677 326.31C196.72 326.733 197.752 327.182 198.772 327.658C206.054 331.056 212.742 335.764 218.394 341.479C219.059 342.151 219.71 342.838 220.347 343.537C220.651 343.871 220.805 344.075 221.24 344.177C221.804 344.31 222.391 344.378 222.96 344.491C224.934 344.882 226.887 345.376 228.81 345.968C232.643 347.148 236.364 348.713 239.88 350.645C242.921 352.316 246.316 354.192 248.539 356.922C249.606 358.232 250.335 359.806 250.333 361.521C250.331 362.98 249.834 364.399 249.1 365.646C247.546 368.289 245.125 370.399 242.71 372.237C240.977 373.555 239.135 374.723 237.24 375.794C236.413 376.261 235.576 376.712 234.733 377.151C234.227 377.414 233.72 377.674 233.21 377.93C232.821 378.126 232.215 378.286 231.946 378.637C231.734 378.913 231.68 379.517 231.593 379.845C231.463 380.337 231.332 380.828 231.198 381.318C230.931 382.295 230.657 383.271 230.368 384.242C229.834 386.038 229.256 387.82 228.621 389.583C227.303 393.246 225.745 396.838 223.814 400.222C220.063 406.794 214.834 412.58 207.937 415.898C201.373 419.056 194.006 419.087 186.989 417.666C184.992 417.262 183.019 416.755 181.066 416.175C180.338 415.957 179.912 417.062 180.645 417.28Z" fill="#211E1F"/>
<path d="M239.567 363.61C236.594 363.311 233.617 363.722 230.833 364.808C230.388 364.982 230.686 365.66 231.129 365.487C233.795 364.447 236.642 364.06 239.489 364.346C239.963 364.394 240.042 363.658 239.567 363.61Z" fill="#211E1F"/>
<path d="M169.254 324.493C170.214 321.786 170.153 318.842 169.082 316.178C168.904 315.735 168.226 316.032 168.403 316.473C169.402 318.958 169.457 321.707 168.562 324.231C168.402 324.679 169.094 324.944 169.254 324.493Z" fill="#211E1F"/>
<path d="M207.257 404.29C206.316 403.019 204.946 402.124 203.416 401.549C202.597 401.165 201.749 400.841 200.878 400.585C199.405 400.153 197.627 399.709 196.145 400.334C194.878 400.868 194.146 402.118 193.984 403.446C193.79 405.039 194.486 406.526 195.5 407.718C197.616 410.208 201.3 412.25 204.621 411.244C207.591 410.345 209.207 406.924 207.257 404.29Z" fill="#21A3EC"/>
<path d="M146.67 372.117C148.766 370.585 149.494 367.297 147.512 365.343C146.255 364.104 144.176 363.674 142.499 363.398C142.29 363.364 142.082 363.334 141.873 363.308C139.546 362.566 136.832 362.264 135.25 364.476C133.305 367.196 135.924 370.22 138.148 371.674C140.658 373.313 144.086 374.006 146.67 372.117Z" fill="#21A3EC"/>
<path d="M188.81 432.476C189.014 432.531 189.224 432.518 189.434 432.537C189.69 432.56 189.937 432.578 190.193 432.587C191.688 432.721 193.15 432.991 194.6 433.312C197.497 429.219 198.377 423.431 198.423 418.361C198.464 413.765 198.221 408.783 197.009 404.171C196.644 402.647 196.134 401.166 195.468 399.756C194.861 398.409 194.137 397.123 193.272 395.922C189.625 390.862 183.453 387.805 177.868 390.609C175.961 391.567 174.296 393.165 173.382 395.205C172.953 395.864 172.589 396.572 172.308 397.321C171.182 400.322 171.71 403.537 173.038 406.427C174.504 409.617 176.697 412.37 178.091 415.6C178.861 417.384 179.267 419.236 179.277 421.185C179.288 423.317 178.948 425.416 178.865 427.54C178.785 429.593 178.991 431.808 179.813 433.676C182.7 432.73 185.758 432.308 188.81 432.476Z" fill="#E2EDFD"/>
<path d="M180.313 433.519C178.687 430 179.649 425.875 179.786 422.144C179.859 420.158 179.618 418.191 178.937 416.317C178.199 414.287 177.075 412.429 175.958 410.59C173.889 407.181 171.666 403.437 172.33 399.276C172.485 398.305 172.798 397.362 173.245 396.486C173.713 395.57 174.207 394.607 174.828 393.784C175.98 392.258 177.626 391.108 179.444 390.521C182.548 389.518 185.823 390.302 188.507 392.039C195.683 396.683 197.496 406.043 197.833 413.978C198.093 420.096 197.975 428.017 194.076 433.197C194.439 433.274 194.8 433.354 195.161 433.437C198.39 428.792 198.983 422.307 198.947 416.816C198.891 408.126 197.621 397.794 190.29 392.037C187.663 389.974 184.371 388.673 180.995 389.105C179.211 389.334 177.496 390.038 176.057 391.115C174.357 392.387 173.283 394.102 172.333 395.968C170.464 399.642 171.11 403.726 172.877 407.3C175.082 411.76 178.606 415.661 178.748 420.875C178.864 425.129 177.482 429.842 179.296 433.852C179.634 433.734 179.972 433.623 180.313 433.519Z" fill="#221F1F"/>
<path d="M189.434 432.537C189.224 432.518 189.014 432.531 188.81 432.476C181.801 432.09 174.755 434.815 169.843 439.863C169.452 440.265 170.073 440.879 170.466 440.475C175.372 435.432 182.424 432.83 189.408 433.389C189.444 433.425 189.481 433.462 189.52 433.492C189.899 433.78 190.733 433.674 191.2 433.728C193.834 434.034 196.376 434.796 198.946 435.416C199.05 435.166 199.156 434.916 199.267 434.669C199.3 434.596 199.334 434.522 199.367 434.448C196.319 433.744 193.33 432.867 190.194 432.586C189.937 432.578 189.69 432.56 189.434 432.537Z" fill="#010101"/>
<path d="M182.563 423.201C185.739 420.342 186.329 415.745 185.02 411.822C183.375 406.89 179.04 403.588 174.646 401.186C165.758 396.327 155.615 393.712 145.497 393.504C144.181 393.477 142.864 393.491 141.549 393.548C140.844 393.578 140.116 393.585 139.415 393.675C139.1 393.716 138.838 393.755 138.668 394.054C138.382 394.556 138.725 395.032 139.245 395.085C139.836 395.145 140.529 394.996 141.123 394.967C141.749 394.937 142.376 394.916 143.003 394.905C148.232 394.811 153.469 395.368 158.561 396.561C163.747 397.775 168.864 399.626 173.57 402.129C178.022 404.497 182.442 407.874 183.89 412.931C184.534 415.178 184.506 417.632 183.461 419.757C182.32 422.079 180.133 423.554 177.667 424.176C172.423 425.499 167.378 423.17 162.87 420.707C158.433 418.283 153.87 415.513 148.681 415.27C143.971 415.049 139.341 416.977 134.639 416.313C129.289 415.557 125.969 410.686 125.267 405.612C124.551 400.441 126.619 395.371 129.18 390.992C129.91 389.743 130.775 388.574 131.507 387.33C131.779 386.868 131.738 386.259 131.077 386.179C130.264 386.081 129.689 387.538 129.344 388.072C128.656 389.134 127.996 390.214 127.384 391.322C124.984 395.659 123.273 400.574 123.887 405.592C124.472 410.375 127.195 415.156 131.818 417.022C136.961 419.098 142.358 416.641 147.607 416.643C158.147 416.646 165.704 427.237 176.501 425.837C178.751 425.544 180.831 424.672 182.563 423.201Z" fill="#211E1F"/>
<path d="M183.463 419.758C184.507 417.633 184.535 415.179 183.892 412.932C182.443 407.875 178.023 404.498 173.572 402.13C168.866 399.627 163.748 397.776 158.563 396.562C153.471 395.369 148.234 394.813 143.005 394.906C142.378 394.917 141.751 394.938 141.125 394.968C140.531 394.996 139.838 395.145 139.247 395.086C138.727 395.033 138.383 394.557 138.67 394.055C138.772 393.876 138.908 393.791 139.068 393.742C138.919 393.554 138.773 393.364 138.61 393.187C137.477 391.952 136.281 390.789 134.986 389.723C134.316 389.171 133.632 388.634 132.917 388.141C132.579 387.907 132.235 387.664 131.872 387.471C131.758 387.411 131.64 387.358 131.523 387.303C131.518 387.312 131.515 387.322 131.509 387.331C130.777 388.575 129.912 389.744 129.182 390.993C126.621 395.372 124.553 400.442 125.269 405.613C125.971 410.687 129.291 415.558 134.641 416.314C139.343 416.979 143.973 415.051 148.683 415.271C153.872 415.514 158.435 418.284 162.872 420.708C167.381 423.172 172.425 425.501 177.669 424.177C180.134 423.554 182.321 422.079 183.463 419.758Z" fill="#E2EDFD"/>
<path d="M142.55 551.069C144.972 556.157 151.331 559.849 156.48 556.153C161.43 552.6 162.241 545.519 162.244 539.929C162.247 531.713 160.351 523.659 158.836 515.63C156.552 503.527 153.106 487.267 162.791 478.613C163.359 478.105 164.003 477.686 164.416 477.019C165.788 474.799 165.431 471.873 163.554 470.07C161.498 468.095 158.326 467.667 155.673 468.49C152.484 469.479 149.979 471.992 148.073 474.636C146.227 477.197 144.866 480.06 143.889 483.057C141.81 489.44 141.438 496.256 141.288 502.921C141.101 511.203 141.023 519.489 140.894 527.772C140.83 531.889 140.719 536.008 140.714 540.125C140.708 543.82 140.936 547.678 142.55 551.069Z" fill="#E2EDFD"/>
<path d="M157.409 504.643C156.647 498.929 156.275 492.89 157.945 487.296C158.742 484.626 160.068 482.119 161.967 480.068C162.268 479.743 162.603 479.444 162.944 479.147C163.02 478.999 163.183 478.894 163.129 478.695C163.084 478.525 162.917 478.313 162.734 478.281C162.612 478.26 162.496 478.328 162.378 478.373C154.301 485.693 155.368 498.116 156.964 507.902C158.03 514.44 159.512 520.903 160.598 527.437C161.689 534.004 162.544 541.09 161.03 547.667C160.406 550.378 159.262 553.037 157.201 554.968C154.984 557.045 152 557.731 149.135 556.667C146.368 555.639 144.087 553.342 142.873 550.675C141.369 547.371 141.175 543.677 141.174 540.101C141.178 538.193 141.202 536.285 141.234 534.376C141.371 526.388 141.473 518.401 141.604 510.413C141.728 502.841 141.595 495.12 143.148 487.67C143.898 484.074 145.064 480.552 146.882 477.348C148.278 474.887 150.076 472.467 152.37 470.746C152.535 470.622 152.567 470.389 152.447 470.221C152.419 470.182 152.392 470.144 152.366 470.104L152.364 470.102C152.243 469.924 151.996 469.882 151.824 470.011C151.397 470.331 150.985 470.675 150.593 471.037C145.175 476.03 142.713 483.58 141.682 490.674C141.126 494.502 140.939 498.375 140.842 502.239C140.736 506.461 140.674 510.685 140.613 514.908C140.492 523.319 140.267 531.735 140.251 540.147C140.252 541.968 140.301 543.792 140.544 545.599C140.99 548.919 142.099 552.144 144.448 554.602C146.368 556.611 149.005 558.059 151.826 558.113C158.133 558.234 161.37 551.614 162.245 546.286C163.433 539.06 162.318 531.562 161.003 524.437C159.786 517.846 158.296 511.29 157.409 504.643Z" fill="#221F1F"/>
<path d="M206.681 389.053C206.119 389.045 206.119 389.918 206.681 389.926C210.452 389.981 213.573 392.811 213.929 396.579C213.981 397.134 214.855 397.139 214.802 396.579C214.4 392.334 210.959 389.116 206.681 389.053Z" fill="#010101"/>
<path d="M155.929 359.118C154.658 354.188 149.387 351.419 144.607 353.214C144.086 353.41 144.312 354.254 144.839 354.056C149.182 352.426 153.926 354.849 155.087 359.351C155.227 359.894 156.069 359.663 155.929 359.118Z" fill="#010101"/>
<path d="M196.254 377.868C195.569 381.952 193.223 386.608 188.491 386.695C186.278 386.736 184.491 385.471 183.608 383.466C182.676 381.346 182.87 378.971 183.164 376.721C184.624 377.198 186.781 378.011 187.783 376.563C188.737 375.184 187.45 373.173 186.387 372.268C185.366 371.399 183.274 370.429 182.032 371.412C180.613 372.535 181.645 374.314 182.279 375.712C180.415 376.397 178.442 377.07 176.431 376.872C174.65 376.697 172.787 375.727 172.166 373.955C170.741 369.887 175.125 366.948 178.029 365.186C178.509 364.895 178.071 364.14 177.588 364.432C174.278 366.44 169.586 369.881 171.415 374.43C172.059 376.03 173.545 377.08 175.172 377.52C175.003 381.726 178.82 384.894 182.915 384.034C183.879 386.067 185.72 387.424 187.996 387.559C193.354 387.877 196.321 382.712 197.094 378.101C197.188 377.55 196.347 377.314 196.254 377.868ZM175.869 377.668C178.063 378.029 180.248 377.373 182.305 376.628C182.016 378.889 181.847 381.218 182.641 383.377C179.054 384.067 175.816 381.3 175.869 377.668Z" fill="#010101"/>
<path d="M331.267 107.668C328.709 101.409 322.728 98.4401 316.797 96.0431C309.517 93.1001 301.973 90.8081 294.292 89.1771C280.253 86.1981 265.785 85.4511 251.526 86.9491C250.16 76.6891 248.438 66.4761 246.35 56.3361C244.603 47.8511 242.679 39.3701 240.339 31.0271C238.597 24.8171 236.417 18.5931 232.938 13.1221C229.717 8.0561 225.255 3.7711 219.511 1.7581C212.826 -0.583897 205.635 0.634104 199.309 3.4691C192.412 6.5601 186.457 11.3901 181.149 16.7021C177.754 20.0981 174.568 23.7021 171.598 27.4761C164.001 35.6551 157.828 45.1401 152.479 54.9331C149.963 59.5391 147.616 64.2321 145.339 68.9601C140.543 68.1311 135.737 67.3591 130.917 66.6681C121.933 65.3811 112.906 64.3691 103.849 63.7761C95.2413 63.2131 86.4283 62.7211 77.8823 64.1811C70.6863 65.4101 63.5883 68.2501 58.2503 73.3551C52.8383 78.5301 50.2083 85.6931 50.1143 93.1101C50.0143 100.935 52.6623 108.476 56.2923 115.313C59.8903 122.089 64.3533 128.446 69.2693 134.327C78.0953 144.883 88.7103 153.899 100.531 160.917C88.3033 179.13 78.8303 199.003 78.6373 221.395C78.5273 234.162 81.8053 250.301 94.8213 256.014C101.627 259.001 109.383 258.337 116.482 256.902C124.229 255.336 131.856 252.998 139.239 250.191C153.463 244.782 166.861 237.314 178.952 228.091C182.102 232.287 185.368 236.394 188.81 240.361C198.536 251.569 209.776 261.686 223.041 268.521C235.537 274.96 252.591 279.457 264.357 269.081C274.896 259.787 276.336 243.787 276.134 230.652C275.918 216.591 273.266 202.579 268.362 189.401C276.392 184.748 284.149 179.628 291.577 174.057C302.817 165.626 313.964 156.308 322.219 144.829C326.115 139.411 329.312 133.435 331.149 126.998C332.906 120.831 333.757 113.759 331.267 107.668Z" fill="#E6E7E7"/>
<path d="M331.72 107.403C329.946 103.23 326.567 100.274 322.643 98.1481C318.003 95.6351 312.886 93.8661 307.879 92.2521C296.424 88.5581 284.47 86.4101 272.449 85.8321C265.47 85.4971 258.477 85.7071 251.527 86.4231C251.702 86.5981 251.876 86.7721 252.051 86.9471C250.122 72.5241 247.505 58.1971 244.199 44.0271C242.61 37.2181 240.971 30.3421 238.591 23.7581C236.545 18.0971 233.831 12.5151 229.721 8.05307C225.875 3.87707 220.833 0.932071 215.157 0.198071C208.827 -0.619929 202.473 1.17907 196.874 4.05907C185.238 10.0431 176.912 20.3451 168.565 30.0871C158.684 41.6211 151.45 55.0791 144.885 68.6931C145.082 68.6131 145.279 68.5331 145.477 68.4521C131.152 65.9821 116.744 64.0641 102.231 63.1451C89.2413 62.3231 75.0403 61.8261 63.4533 68.7571C58.4153 71.7701 54.3243 76.0921 51.9883 81.5091C49.6943 86.8311 49.1503 92.7311 49.9323 98.4431C51.7013 111.371 59.5543 123.187 67.5963 133.115C76.7203 144.377 87.8183 153.944 100.264 161.366C100.201 161.127 100.139 160.888 100.076 160.649C86.0543 181.583 74.6393 206.926 78.9683 232.715C80.6443 242.701 85.4293 252.838 95.3633 256.801C101.659 259.312 108.654 258.877 115.19 257.679C122.741 256.295 130.153 254.083 137.356 251.446C152.368 245.949 166.488 238.215 179.213 228.54C178.974 228.477 178.735 228.415 178.496 228.352C186.761 239.339 195.842 249.831 206.634 258.422C215.897 265.796 226.629 272.199 238.309 274.755C243.624 275.918 249.232 276.231 254.54 274.855C259.917 273.461 264.599 270.275 268.048 265.942C274.838 257.412 276.425 245.916 276.646 235.341C276.973 219.649 274.305 203.977 268.864 189.259C268.784 189.456 268.704 189.653 268.623 189.851C281.505 182.367 293.811 173.711 305.059 163.931C315.641 154.73 325.721 143.774 330.594 130.391C333.206 123.216 334.652 114.839 331.772 107.528C331.528 106.908 330.514 107.178 330.762 107.806C333.35 114.374 332.309 121.703 330.216 128.261C328.092 134.915 324.522 141.013 320.295 146.542C311.655 157.842 300.408 166.976 288.987 175.322C282.27 180.231 275.288 184.768 268.095 188.947C267.909 189.055 267.775 189.324 267.854 189.538C272.687 202.612 275.356 216.443 275.602 230.386C275.788 240.927 275.094 252.359 269.683 261.692C266.921 266.455 262.845 270.471 257.749 272.662C252.635 274.861 246.894 275.11 241.447 274.279C230.071 272.543 219.447 266.704 210.307 259.935C198.301 251.042 188.343 239.713 179.401 227.825C179.247 227.621 178.93 227.45 178.684 227.637C167.682 236.002 155.621 242.969 142.828 248.21C136.181 250.933 129.35 253.247 122.386 255.015C115.75 256.7 108.756 258.205 101.88 257.366C75.9663 254.205 77.0993 219.29 81.9803 200.709C85.7253 186.454 92.8213 173.36 100.98 161.18C101.139 160.943 101.024 160.601 100.792 160.463C90.1273 154.102 80.4453 146.162 72.1753 136.894C67.8753 132.075 63.9283 126.923 60.4743 121.464C57.0643 116.074 54.0233 110.351 52.2363 104.203C48.7663 92.2711 51.0393 78.9701 61.5043 71.3031C72.0733 63.5601 85.8983 63.3201 98.4443 63.9721C114.139 64.7881 129.716 66.7931 145.197 69.4621C145.413 69.4991 145.682 69.4411 145.789 69.2211C151.435 57.5141 157.547 45.9421 165.458 35.5831C167.409 33.0291 169.504 30.6191 171.627 28.2101C173.778 25.7701 175.758 23.1881 177.96 20.7861C182.22 16.1401 186.823 11.7231 192.045 8.16507C197.179 4.66607 203.035 1.86607 209.274 1.19407C215.615 0.511071 221.794 2.35607 226.635 6.52107C236.251 14.7931 239.328 28.4971 242.22 40.2661C245.999 55.6441 248.902 71.2531 251.001 86.9481C251.035 87.2051 251.214 87.5041 251.525 87.4721C263.392 86.2491 275.402 86.5251 287.189 88.3921C298.286 90.1501 309.51 93.1461 319.733 97.8671C324.435 100.039 328.725 103.019 330.813 107.931C331.078 108.55 331.981 108.017 331.72 107.403Z" fill="#010101"/>
<path d="M254.147 185.699C253.651 181.44 251.318 177.577 247.807 175.115C244.218 172.599 239.595 171.987 235.417 173.231C233.021 173.944 230.837 175.241 229.084 177.023C228.532 177.584 229.395 178.449 229.948 177.887C233.562 174.215 239.23 172.832 244.108 174.56C248.819 176.228 252.35 180.753 252.925 185.7C253.015 186.471 254.238 186.48 254.147 185.699Z" fill="#211E1F"/>
<path d="M108.336 163.805C110.024 159.863 113.361 156.825 117.428 155.465C121.585 154.075 126.191 154.806 129.842 157.188C131.935 158.554 133.66 160.419 134.833 162.627C135.203 163.322 134.128 163.905 133.758 163.209C131.34 158.66 126.301 155.72 121.133 155.986C116.142 156.244 111.469 159.575 109.508 164.153C109.202 164.868 108.027 164.528 108.336 163.805Z" fill="#211E1F"/>
<path d="M192.754 180.253C191.91 184.752 190.355 190.835 184.707 190.922C179.069 191.008 175.896 185.286 177.069 180.206C177.246 179.44 176.068 179.114 175.89 179.881C174.893 184.202 176.521 189.256 180.716 191.252C182.643 192.169 184.915 192.433 186.97 191.794C189.002 191.163 190.598 189.674 191.646 187.852C192.924 185.631 193.466 183.069 193.934 180.577C194.076 179.81 192.898 179.48 192.754 180.253Z" fill="#211E1F"/>
<path d="M228.563 193.22C228.563 193 228.49 192.795 228.358 192.641C228.207 192.465 227.994 192.373 227.74 192.373C227.487 192.373 227.273 192.466 227.122 192.642C226.99 192.796 226.917 193.002 226.917 193.221C226.917 193.642 227.2 194.068 227.74 194.068C228.281 194.069 228.563 193.642 228.563 193.22Z" fill="#F6ADCD"/>
<path d="M232.803 188.133C232.803 187.913 232.73 187.708 232.598 187.554C232.447 187.378 232.233 187.285 231.98 187.285C231.727 187.285 231.513 187.378 231.362 187.554C231.23 187.708 231.157 187.914 231.157 188.133C231.157 188.554 231.44 188.98 231.98 188.98C232.52 188.981 232.803 188.555 232.803 188.133Z" fill="#F6ADCD"/>
<path d="M237.466 193.856C237.466 193.636 237.393 193.431 237.261 193.277C237.11 193.101 236.896 193.008 236.643 193.008C236.39 193.008 236.176 193.101 236.025 193.277C235.893 193.431 235.82 193.637 235.82 193.856C235.82 194.277 236.103 194.703 236.643 194.703C237.183 194.703 237.466 194.278 237.466 193.856Z" fill="#F6ADCD"/>
<path d="M241.73 188.345C242.27 188.345 242.553 187.918 242.553 187.497C242.553 187.277 242.48 187.072 242.348 186.918C242.197 186.743 241.983 186.65 241.73 186.65C241.477 186.65 241.263 186.743 241.112 186.919C240.98 187.073 240.907 187.279 240.907 187.498C240.908 187.919 241.19 188.345 241.73 188.345Z" fill="#F6ADCD"/>
<path d="M250.184 190.041C250.184 189.821 250.111 189.616 249.979 189.462C249.828 189.286 249.614 189.193 249.361 189.193C249.108 189.193 248.894 189.286 248.743 189.462C248.611 189.616 248.538 189.822 248.538 190.041C248.538 190.462 248.821 190.888 249.361 190.888C249.901 190.889 250.184 190.462 250.184 190.041Z" fill="#F6ADCD"/>
<path d="M252.753 195.764V195.34C252.753 195.112 252.653 194.886 252.479 194.72C252.316 194.564 252.112 194.48 251.9 194.492C251.427 194.513 251.057 194.885 251.057 195.34V195.764C251.057 195.992 251.157 196.217 251.331 196.384C251.486 196.532 251.679 196.613 251.877 196.613C251.888 196.613 251.899 196.613 251.91 196.612C252.382 196.591 252.753 196.218 252.753 195.764Z" fill="#F6ADCD"/>
<path d="M246.792 196.4C246.792 196.18 246.719 195.975 246.587 195.821C246.436 195.645 246.222 195.553 245.969 195.553C245.716 195.553 245.502 195.646 245.351 195.822C245.219 195.976 245.146 196.182 245.146 196.401C245.146 196.822 245.429 197.248 245.969 197.248C246.51 197.248 246.792 196.821 246.792 196.4Z" fill="#F6ADCD"/>
<path d="M230.284 198.096C230.031 198.096 229.817 198.189 229.666 198.365C229.534 198.519 229.461 198.725 229.461 198.944C229.461 199.365 229.744 199.791 230.284 199.791C230.824 199.791 231.107 199.364 231.107 198.943C231.107 198.723 231.034 198.518 230.902 198.364C230.751 198.189 230.538 198.096 230.284 198.096Z" fill="#F6ADCD"/>
<path d="M237.491 200.004C237.238 200.004 237.024 200.097 236.873 200.273C236.741 200.427 236.668 200.633 236.668 200.852C236.668 201.273 236.951 201.699 237.491 201.699C238.031 201.699 238.314 201.272 238.314 200.851C238.314 200.631 238.241 200.426 238.109 200.272C237.958 200.097 237.744 200.004 237.491 200.004Z" fill="#F6ADCD"/>
<path d="M225.828 200.852C225.355 200.873 224.985 201.245 224.985 201.7V201.912C224.985 202.139 225.085 202.365 225.259 202.532C225.414 202.68 225.607 202.761 225.805 202.761C225.816 202.761 225.827 202.761 225.838 202.76C226.311 202.739 226.681 202.367 226.681 201.912V201.7C226.681 201.473 226.581 201.247 226.407 201.08C226.244 200.923 226.037 200.84 225.828 200.852Z" fill="#F6ADCD"/>
<path d="M228.376 207.634C228.123 207.634 227.909 207.727 227.758 207.903C227.626 208.057 227.553 208.263 227.553 208.482C227.553 208.903 227.836 209.329 228.376 209.329C228.916 209.329 229.199 208.902 229.199 208.481C229.199 208.261 229.126 208.056 228.994 207.902C228.843 207.727 228.63 207.634 228.376 207.634Z" fill="#F6ADCD"/>
<path d="M233.252 212.298C232.999 212.298 232.785 212.391 232.634 212.567C232.502 212.721 232.429 212.927 232.429 213.146C232.429 213.567 232.712 213.993 233.252 213.993C233.792 213.993 234.075 213.566 234.075 213.145C234.075 212.925 234.002 212.72 233.87 212.566C233.719 212.391 233.505 212.298 233.252 212.298Z" fill="#F6ADCD"/>
<path d="M234.312 204.455C234.059 204.455 233.845 204.548 233.694 204.724C233.562 204.878 233.489 205.084 233.489 205.303C233.489 205.724 233.772 206.15 234.312 206.15C234.852 206.15 235.135 205.723 235.135 205.302C235.135 205.082 235.062 204.877 234.93 204.723C234.779 204.548 234.565 204.455 234.312 204.455Z" fill="#F6ADCD"/>
<path d="M242.765 208.482C242.765 208.262 242.692 208.057 242.56 207.903C242.409 207.727 242.195 207.635 241.942 207.635C241.689 207.635 241.475 207.728 241.324 207.904C241.192 208.058 241.119 208.264 241.119 208.483C241.119 208.904 241.402 209.33 241.942 209.33C242.482 209.33 242.765 208.903 242.765 208.482Z" fill="#F6ADCD"/>
<path d="M243.002 213.358C242.749 213.358 242.535 213.451 242.384 213.627C242.252 213.781 242.179 213.987 242.179 214.206C242.179 214.627 242.462 215.054 243.002 215.054C243.542 215.054 243.825 214.627 243.825 214.206C243.825 213.986 243.752 213.781 243.62 213.627C243.469 213.45 243.256 213.358 243.002 213.358Z" fill="#F6ADCD"/>
<path d="M250.633 208.906C250.38 208.906 250.166 208.999 250.015 209.175C249.883 209.329 249.81 209.535 249.81 209.754C249.81 210.175 250.093 210.602 250.633 210.602C251.173 210.602 251.456 210.175 251.456 209.754C251.456 209.534 251.383 209.329 251.251 209.175C251.1 208.999 250.886 208.906 250.633 208.906Z" fill="#F6ADCD"/>
<path d="M253.177 202.123H252.965C252.737 202.123 252.512 202.223 252.345 202.397C252.189 202.56 252.108 202.766 252.117 202.976C252.138 203.449 252.51 203.819 252.965 203.819H253.177C253.405 203.819 253.63 203.719 253.797 203.545C253.953 203.382 254.034 203.176 254.025 202.966C254.003 202.494 253.631 202.123 253.177 202.123Z" fill="#F6ADCD"/>
<path d="M246.606 202.547C246.353 202.547 246.139 202.64 245.988 202.816C245.856 202.97 245.783 203.176 245.783 203.395C245.783 203.816 246.066 204.242 246.606 204.242C247.146 204.242 247.429 203.815 247.429 203.394C247.429 203.174 247.356 202.969 247.224 202.815C247.073 202.64 246.859 202.547 246.606 202.547Z" fill="#F6ADCD"/>
<path d="M241.702 198.097C241.713 198.097 241.724 198.097 241.735 198.096C242.208 198.075 242.578 197.702 242.578 197.248V197.036C242.578 196.808 242.478 196.582 242.304 196.416C242.141 196.26 241.937 196.176 241.725 196.188C241.252 196.209 240.882 196.581 240.882 197.036V197.248C240.882 197.475 240.982 197.701 241.156 197.868C241.311 198.016 241.504 198.097 241.702 198.097Z" fill="#F6ADCD"/>
<path d="M105.471 174.855C105.471 174.609 105.39 174.379 105.242 174.207C105.073 174.011 104.834 173.907 104.551 173.907C104.268 173.907 104.029 174.011 103.86 174.208C103.712 174.38 103.631 174.61 103.631 174.856C103.631 175.327 103.947 175.804 104.551 175.804C105.155 175.804 105.471 175.326 105.471 174.855Z" fill="#F6ADCD"/>
<path d="M110.213 169.163C110.213 168.917 110.132 168.687 109.984 168.515C109.815 168.319 109.576 168.215 109.293 168.215C109.01 168.215 108.771 168.319 108.602 168.516C108.454 168.688 108.373 168.918 108.373 169.164C108.373 169.635 108.689 170.112 109.293 170.112C109.897 170.112 110.213 169.635 110.213 169.163Z" fill="#F6ADCD"/>
<path d="M115.43 175.566C115.43 175.32 115.349 175.09 115.201 174.918C115.032 174.722 114.793 174.618 114.51 174.618C114.227 174.618 113.988 174.722 113.819 174.919C113.671 175.091 113.59 175.321 113.59 175.567C113.59 176.038 113.906 176.515 114.51 176.515C115.114 176.515 115.43 176.038 115.43 175.566Z" fill="#F6ADCD"/>
<path d="M120.201 169.401C120.805 169.401 121.121 168.924 121.121 168.452C121.121 168.206 121.04 167.976 120.892 167.804C120.723 167.608 120.484 167.504 120.201 167.504C119.918 167.504 119.679 167.608 119.51 167.805C119.362 167.977 119.281 168.207 119.281 168.453C119.281 168.924 119.597 169.401 120.201 169.401Z" fill="#F6ADCD"/>
<path d="M129.659 171.298C129.659 171.052 129.578 170.822 129.43 170.65C129.261 170.454 129.022 170.35 128.739 170.35C128.456 170.35 128.217 170.454 128.048 170.651C127.9 170.823 127.819 171.053 127.819 171.299C127.819 171.77 128.135 172.247 128.739 172.247C129.342 172.247 129.659 171.769 129.659 171.298Z" fill="#F6ADCD"/>
<path d="M132.532 177.701V177.227C132.532 176.972 132.42 176.72 132.226 176.534C132.043 176.359 131.815 176.265 131.578 176.279C131.049 176.303 130.635 176.719 130.635 177.227V177.701C130.635 177.956 130.747 178.208 130.941 178.394C131.115 178.56 131.33 178.65 131.552 178.65C131.564 178.65 131.576 178.65 131.588 178.649C132.118 178.625 132.532 178.209 132.532 177.701Z" fill="#F6ADCD"/>
<path d="M125.864 178.412C125.864 178.166 125.783 177.936 125.635 177.764C125.466 177.568 125.227 177.464 124.944 177.464C124.661 177.464 124.422 177.568 124.253 177.765C124.105 177.937 124.024 178.167 124.024 178.413C124.024 178.884 124.34 179.361 124.944 179.361C125.548 179.361 125.864 178.883 125.864 178.412Z" fill="#F6ADCD"/>
<path d="M107.396 180.309C107.113 180.309 106.874 180.413 106.705 180.61C106.557 180.782 106.476 181.012 106.476 181.258C106.476 181.729 106.792 182.206 107.396 182.206C108 182.206 108.316 181.729 108.316 181.257C108.316 181.011 108.235 180.781 108.087 180.609C107.918 180.413 107.679 180.309 107.396 180.309Z" fill="#F6ADCD"/>
<path d="M115.459 182.444C115.176 182.444 114.937 182.548 114.768 182.745C114.62 182.917 114.539 183.147 114.539 183.393C114.539 183.864 114.855 184.341 115.459 184.341C116.063 184.341 116.379 183.864 116.379 183.392C116.379 183.146 116.298 182.916 116.15 182.744C115.981 182.547 115.742 182.444 115.459 182.444Z" fill="#F6ADCD"/>
<path d="M102.411 183.392C101.882 183.416 101.468 183.832 101.468 184.34V184.577C101.468 184.832 101.58 185.084 101.774 185.27C101.947 185.436 102.163 185.526 102.385 185.526C102.397 185.526 102.409 185.526 102.422 185.525C102.951 185.501 103.365 185.085 103.365 184.577V184.34C103.365 184.085 103.253 183.833 103.059 183.647C102.876 183.472 102.644 183.379 102.411 183.392Z" fill="#F6ADCD"/>
<path d="M105.262 190.98C104.979 190.98 104.74 191.084 104.571 191.281C104.423 191.453 104.342 191.683 104.342 191.929C104.342 192.4 104.658 192.877 105.262 192.877C105.866 192.877 106.182 192.4 106.182 191.928C106.182 191.682 106.101 191.452 105.953 191.28C105.784 191.084 105.545 190.98 105.262 190.98Z" fill="#F6ADCD"/>
<path d="M110.716 196.197C110.433 196.197 110.194 196.301 110.025 196.498C109.877 196.67 109.796 196.901 109.796 197.146C109.796 197.617 110.112 198.094 110.716 198.094C111.32 198.094 111.636 197.616 111.636 197.145C111.636 196.899 111.555 196.669 111.407 196.497C111.238 196.301 110.999 196.197 110.716 196.197Z" fill="#F6ADCD"/>
<path d="M111.902 187.423C111.619 187.423 111.38 187.527 111.211 187.724C111.063 187.896 110.982 188.126 110.982 188.372C110.982 188.843 111.298 189.32 111.902 189.32C112.506 189.32 112.822 188.842 112.822 188.371C112.822 188.125 112.741 187.895 112.593 187.723C112.424 187.527 112.185 187.423 111.902 187.423Z" fill="#F6ADCD"/>
<path d="M121.359 191.929C121.359 191.683 121.278 191.453 121.13 191.281C120.961 191.085 120.722 190.981 120.439 190.981C120.156 190.981 119.917 191.085 119.748 191.282C119.6 191.454 119.519 191.684 119.519 191.93C119.519 192.401 119.835 192.878 120.439 192.878C121.043 192.878 121.359 192.4 121.359 191.929Z" fill="#F6ADCD"/>
<path d="M121.624 197.383C121.341 197.383 121.102 197.487 120.933 197.684C120.785 197.856 120.704 198.086 120.704 198.332C120.704 198.803 121.02 199.28 121.624 199.28C122.228 199.28 122.544 198.802 122.544 198.331C122.544 198.085 122.463 197.855 122.315 197.683C122.147 197.487 121.908 197.383 121.624 197.383Z" fill="#F6ADCD"/>
<path d="M130.161 192.403C129.878 192.403 129.639 192.507 129.47 192.704C129.322 192.876 129.241 193.106 129.241 193.352C129.241 193.823 129.557 194.3 130.161 194.3C130.765 194.3 131.081 193.822 131.081 193.351C131.081 193.105 131 192.875 130.852 192.703C130.683 192.507 130.444 192.403 130.161 192.403Z" fill="#F6ADCD"/>
<path d="M133.007 184.815H132.77C132.515 184.815 132.263 184.927 132.077 185.121C131.902 185.304 131.811 185.534 131.822 185.769C131.846 186.298 132.262 186.712 132.77 186.712H133.007C133.262 186.712 133.514 186.6 133.7 186.406C133.875 186.223 133.966 185.993 133.955 185.758C133.931 185.229 133.515 184.815 133.007 184.815Z" fill="#F6ADCD"/>
<path d="M125.655 185.289C125.372 185.289 125.133 185.393 124.964 185.59C124.816 185.762 124.735 185.992 124.735 186.238C124.735 186.709 125.051 187.186 125.655 187.186C126.259 187.186 126.575 186.709 126.575 186.237C126.575 185.991 126.494 185.761 126.346 185.589C126.178 185.393 125.939 185.289 125.655 185.289Z" fill="#F6ADCD"/>
<path d="M120.17 180.31C120.182 180.31 120.194 180.31 120.207 180.309C120.736 180.285 121.15 179.869 121.15 179.361V179.124C121.15 178.869 121.038 178.617 120.844 178.431C120.661 178.256 120.434 178.162 120.196 178.176C119.667 178.2 119.253 178.616 119.253 179.124V179.361C119.253 179.616 119.365 179.868 119.559 180.054C119.732 180.22 119.948 180.31 120.17 180.31Z" fill="#F6ADCD"/>
<path d="M192.566 231.439C191.412 229.38 189.005 228.12 186.762 227.66C184.347 227.165 181.816 227.515 179.661 228.693C179.656 228.641 179.651 228.589 179.645 228.537C179.635 228.441 179.577 228.361 179.489 228.321C179.4 228.281 179.298 228.29 179.221 228.345C179.15 228.397 179.113 228.481 179.122 228.573C179.136 228.71 179.149 228.847 179.163 228.983C179.146 228.994 179.128 229.004 179.111 229.014C179.047 228.988 178.972 228.988 178.895 229.029C174.904 231.157 171.979 235.115 171.197 239.582C171.032 240.526 170.847 241.63 171.319 242.515C171.714 243.256 172.502 243.669 173.329 243.412C174.334 243.1 175.003 242.058 175.576 241.245C176.341 240.16 177.012 239.008 177.579 237.808C178.462 235.941 179.087 233.975 179.458 231.954C180.478 242.372 181.298 252.87 181.895 263.209C182.56 274.721 182.975 286.405 183.129 297.935C183.283 309.466 183.179 321.157 182.822 332.682C182.496 343.192 182.069 354.373 180.782 365.363C179.374 377.392 177.021 387.558 173.592 396.443C173.088 397.748 172.532 399.094 171.938 400.443C171.877 400.581 171.94 400.738 172.08 400.799C172.115 400.814 172.15 400.822 172.185 400.822C172.28 400.822 172.367 400.767 172.409 400.672C176.31 391.806 179.021 381.801 180.697 370.085C182.269 359.097 182.795 347.749 183.165 337.974C183.605 326.334 183.787 314.525 183.705 302.874C183.623 291.225 183.275 279.419 182.672 267.785C182.071 256.204 181.201 244.482 180.084 232.947C180.022 232.301 179.957 231.642 179.891 230.975C180.691 232.529 181.87 233.863 183.328 234.864C185.254 236.185 187.918 237.066 190.253 236.5C192.625 235.924 193.778 233.601 192.566 231.439ZM177.129 237.545C176.581 238.701 175.94 239.811 175.21 240.861C174.762 241.506 174.277 242.265 173.604 242.697C172.572 243.36 171.685 242.558 171.573 241.487C171.326 239.14 172.528 236.4 173.759 234.472C175.092 232.384 176.935 230.68 179.114 229.508C179.146 229.523 179.182 229.531 179.219 229.529C179.226 229.598 179.233 229.666 179.24 229.735C178.994 232.438 178.292 235.09 177.129 237.545ZM188.61 236.127C187.281 236.086 185.958 235.711 184.776 235.113C182.437 233.931 180.616 231.866 179.78 229.38C179.766 229.34 179.746 229.308 179.722 229.281C179.721 229.274 179.721 229.267 179.72 229.261C181.911 227.999 184.534 227.647 186.998 228.248C189.291 228.808 193.095 230.862 192.537 233.766C192.193 235.555 190.2 236.176 188.61 236.127Z" fill="#010101"/>
<path d="M183.665 516.349C182.815 508.937 180.345 502.03 177.445 494.414C174.81 487.492 172.083 480.091 170.251 472.397C168.402 464.633 167.387 456.991 167.235 449.683C167.069 441.754 167.92 434.133 169.762 427.031C169.991 426.147 170.251 425.221 170.533 424.278C170.574 424.14 170.497 423.999 170.358 423.957C170.216 423.916 170.072 423.991 170.03 424.131C167.941 431.103 166.821 438.566 166.701 446.312C166.59 453.513 167.335 461.077 168.917 468.794C170.3 475.541 172.459 482.747 175.519 490.824C175.834 491.654 176.151 492.484 176.468 493.315C178.88 499.623 181.374 506.146 182.619 512.89C184.104 520.934 183.624 528.056 181.191 534.06C180.85 534.902 180.448 535.761 179.998 536.613C179.929 536.743 179.978 536.9 180.11 536.97C180.151 536.992 180.193 537.002 180.235 537.002C180.325 537.002 180.41 536.953 180.457 536.865C183.447 531.217 184.557 524.122 183.665 516.349Z" fill="#010101"/>
<path d="M343.16 334.529C342.882 327.237 343.938 308.065 333.215 306.695C328.634 306.11 324.548 309.564 322.787 313.525C321.276 316.924 321.046 320.575 321.038 324.271C320.495 317.798 319.527 311.337 317.868 305.147C316.208 298.952 311.849 293.857 304.912 296.6C298.227 299.244 294.422 307.782 292.203 314.057C290.27 319.522 289.359 325.207 289.385 330.914C288.7 328.656 287.911 326.43 286.987 324.257C286.159 321.149 284.828 318.118 282.797 316.25C281.116 313.832 278.839 311.835 275.68 313.086C273.193 314.071 271.683 316.633 270.66 319.332C269.932 320.918 269.496 322.702 269.147 324.384C269.144 324.397 269.14 324.412 269.136 324.426C268.559 326.642 268.166 328.88 267.909 331.128C266.963 337.084 266.408 343.094 266.162 349.123C266.147 349.489 266.463 349.71 266.787 349.748C284.781 351.836 302.892 352.71 321.003 352.225C326.445 352.079 334.868 353.176 339.793 350.075C344.749 346.954 343.347 339.439 343.16 334.529Z" fill="white" fill-opacity="0.2"/>
<path d="M106.511 312.928C105.822 308.025 104.933 300.065 100.305 296.937C92.5904 291.722 88.0674 304.03 86.3654 312.599C85.7304 304.937 84.7724 297.053 82.5964 289.848C81.0194 284.625 77.0404 280.817 71.2954 282.72C64.7914 284.874 61.7454 292.881 59.8774 298.829C58.2164 304.116 57.4834 309.564 57.5834 315.023C56.4494 310.501 55.1564 306.001 53.3974 301.814C52.3274 299.268 50.3744 296.926 47.3474 297.911C42.7974 299.391 41.4314 306.701 40.5664 310.525C40.2604 311.875 40.0224 313.231 39.8174 314.59C38.4854 318.716 37.6374 322.993 37.3784 327.386C37.0374 333.181 37.6124 337.753 44.2414 337.878C64.4504 338.257 84.9304 336.512 105.134 335.825C105.392 335.816 105.683 335.639 105.737 335.366C107.2 327.947 107.565 320.434 106.511 312.928Z" fill="white" fill-opacity="0.2"/>
</svg>
