<svg width="64" height="95" viewBox="0 0 64 95" fill="none" xmlns="http://www.w3.org/2000/svg">
<path d="M55.6779 75.7383C55.3309 74.7123 54.5249 73.9273 53.5499 73.4353C52.5309 72.9213 51.4029 72.6933 50.2779 72.5193C49.0629 72.3313 47.7869 72.1803 46.6739 71.6383C46.4669 71.5373 46.2679 71.4233 46.0779 71.2963C46.0859 71.2293 46.0929 71.1613 46.1009 71.0943C46.1219 70.9193 45.9319 70.7693 45.7659 70.7693C45.5669 70.7693 45.4519 70.9193 45.4309 71.0943C45.0849 73.9333 45.0669 76.8083 45.3869 79.6513C45.4669 80.3663 45.5679 81.0793 45.6889 81.7883C45.7869 82.3643 45.8589 83.0283 46.3869 83.3973C46.8929 83.7513 47.5599 83.6263 48.1179 83.4783C48.7269 83.3163 49.3349 83.1483 49.9359 82.9583C52.2139 82.2403 54.4869 81.0913 55.4579 78.8383C55.8729 77.8713 56.0189 76.7503 55.6779 75.7383Z" fill="#E2EDFD"/>
<path d="M55.8389 75.6943C55.4049 74.4523 54.3839 73.5913 53.1969 73.0913C51.7459 72.4793 50.1759 72.3883 48.6489 72.0853C47.7699 71.9113 46.9179 71.6463 46.1619 71.1533C46.1899 71.2013 46.2169 71.2493 46.2449 71.2973C46.2649 71.1203 46.2919 70.9673 46.1789 70.8153C46.0839 70.6883 45.9269 70.6043 45.7659 70.6033C45.3009 70.6003 45.2639 71.0763 45.2249 71.4233C45.0979 72.5473 45.0219 73.6763 44.9989 74.8073C44.9519 77.0663 45.1179 79.3253 45.4809 81.5553C45.6059 82.3273 45.6909 83.2803 46.4979 83.6523C46.8829 83.8303 47.3179 83.8123 47.7259 83.7383C48.2249 83.6483 48.7159 83.4913 49.2029 83.3523C50.8739 82.8723 52.5629 82.2603 53.9149 81.1333C55.4559 79.8493 56.4879 77.6953 55.8389 75.6943C55.7729 75.4903 55.4499 75.5773 55.5169 75.7833C56.0469 77.4173 55.3619 79.2083 54.2109 80.4043C53.1849 81.4703 51.8119 82.1373 50.4309 82.6183C49.6019 82.9073 48.7489 83.1573 47.8949 83.3613C47.5089 83.4533 47.0769 83.5223 46.6959 83.3743C46.3009 83.2213 46.0949 82.8543 45.9889 82.4653C45.8889 82.0943 45.8409 81.7053 45.7809 81.3273C45.7019 80.8323 45.6339 80.3353 45.5749 79.8383C45.4599 78.8553 45.3839 77.8683 45.3489 76.8793C45.3099 75.7813 45.3199 74.6803 45.3789 73.5833C45.4089 73.0343 45.4509 72.4863 45.5049 71.9393C45.5309 71.6733 45.5179 71.3373 45.6029 71.0833C45.6379 70.9793 45.7329 70.8953 45.8479 70.9613C45.9729 71.0333 45.9249 71.1803 45.9119 71.2983C45.9049 71.3573 45.9489 71.4133 45.9949 71.4423C48.4819 73.0643 51.8519 72.2263 54.2449 74.0663C54.8209 74.5093 55.2769 75.0943 55.5179 75.7833C55.5869 75.9843 55.9099 75.8983 55.8389 75.6943Z" fill="#231F20"/>
<path d="M61.0569 66.5283C59.8909 65.1123 58.0439 64.4903 56.4079 63.7993C52.5469 62.1703 48.6869 60.5423 44.8259 58.9143C44.5069 58.7793 44.1879 58.6453 43.8689 58.5103C43.9309 58.4433 43.9949 58.3783 44.0609 58.3153C44.1719 58.2113 44.0279 58.0203 43.9159 58.1253C43.8179 58.2173 43.7259 58.3133 43.6389 58.4133C43.5579 58.3793 43.4769 58.3453 43.3959 58.3113C43.2539 58.2513 43.1599 58.4713 43.3019 58.5313C43.3619 58.5563 43.4209 58.5813 43.4809 58.6073C42.6139 59.7443 42.4349 61.2793 42.7219 62.6733C42.7979 63.0423 42.8999 63.4073 43.0239 63.7673C43.1459 64.3193 43.3339 64.8583 43.5579 65.3603C44.0809 66.5313 44.8429 67.5743 45.6799 68.5383C46.4809 69.4613 47.3369 70.3443 48.2019 71.2083C49.7819 72.7863 51.6119 74.2233 53.9089 74.4553C56.0159 74.6693 58.1729 73.9513 59.8219 72.6443C60.6529 71.9863 61.4729 71.1373 61.8269 70.1173C61.9569 69.7433 62.0089 69.3393 61.9709 68.9473C61.9729 68.8963 61.9729 68.8453 61.9719 68.7933C61.9559 67.9583 61.5809 67.1643 61.0569 66.5283Z" fill="#E2EDFD"/>
<path d="M61.9739 68.7932C61.9699 68.6142 61.9489 68.4372 61.9139 68.2632C61.8869 68.7192 61.7759 69.1722 61.5899 69.5892C61.1349 70.6072 60.2729 71.4022 59.3079 71.9352C57.3689 73.0072 55.0169 73.0682 52.9219 72.4572C50.7649 71.8282 48.9079 70.4882 47.4059 68.8412C45.8539 67.1412 44.5779 65.1142 43.6419 63.0132C43.2419 62.1152 42.9209 61.1562 42.7449 60.1782C42.7119 60.3122 42.6849 60.4482 42.6629 60.5842C42.7829 61.1432 42.9469 61.6932 43.1449 62.2222C43.5919 63.4162 44.1969 64.5492 44.8549 65.6382C45.4649 66.6492 46.1429 67.6222 46.9119 68.5202C48.4119 70.2742 50.2829 71.7532 52.4929 72.4872C54.6059 73.1892 56.9989 73.2342 59.0339 72.2532C60.0259 71.7752 60.9309 71.0562 61.4999 70.1032C61.7159 69.7412 61.8769 69.3462 61.9739 68.9362C61.9739 68.8902 61.9749 68.8422 61.9739 68.7932Z" fill="#010101"/>
<path d="M61.1679 66.4433C60.4999 65.6423 59.6189 65.0773 58.6879 64.6253C57.6889 64.1403 56.6429 63.7473 55.6199 63.3153C53.1149 62.2593 50.6109 61.2023 48.1059 60.1463C46.7119 59.5583 45.3169 58.9703 43.9229 58.3823C43.9409 58.4533 43.9599 58.5253 43.9779 58.5963C44.1209 58.4423 44.3929 58.2073 44.1329 58.0073C43.8989 57.8273 43.6619 58.1773 43.5289 58.3283C43.5839 58.3143 43.6389 58.3003 43.6939 58.2863C43.5069 58.2073 43.2529 58.0593 43.1239 58.3063C42.9969 58.5503 43.2469 58.6593 43.4269 58.7343C43.4089 58.6633 43.3899 58.5923 43.3719 58.5203C42.7379 59.3663 42.4589 60.4063 42.4579 61.4543C42.4579 62.0223 42.5449 62.5813 42.6879 63.1293C42.7699 63.4443 42.8739 63.7533 42.9559 64.0683C43.0329 64.3653 43.1269 64.6563 43.2369 64.9433C44.1469 67.3273 46.0319 69.2143 47.7959 70.9923C49.2989 72.5063 50.9739 73.9783 53.1109 74.4633C55.3619 74.9743 57.8009 74.3003 59.6409 72.9563C60.5139 72.3183 61.3499 71.5163 61.8129 70.5233C62.3049 69.4703 62.2069 68.1683 61.6509 67.1583C61.5129 66.9063 61.3499 66.6683 61.1679 66.4433C61.0549 66.3043 60.8329 66.4733 60.9469 66.6123C61.3229 67.0753 61.6249 67.6073 61.7589 68.1933C61.8229 68.4723 61.8279 68.7483 61.8409 69.0323C61.8549 69.3243 61.8299 69.6133 61.7529 69.8953C61.4689 70.9403 60.6559 71.7893 59.8379 72.4533C58.1369 73.8343 55.8709 74.5943 53.6779 74.2843C51.6179 73.9923 49.9129 72.6863 48.4669 71.2703C47.5789 70.4003 46.7139 69.5013 45.8939 68.5663C45.1359 67.7013 44.4289 66.7803 43.9039 65.7533C43.5899 65.1383 43.3419 64.4913 43.1799 63.8193C43.1029 63.5013 42.9849 63.1943 42.9099 62.8753C42.8409 62.5803 42.7879 62.2813 42.7599 61.9793C42.6529 60.8263 42.8879 59.6293 43.5909 58.6913C43.6439 58.6203 43.6199 58.5133 43.5359 58.4773C43.5199 58.4703 43.3879 58.3883 43.4019 58.4643C43.4059 58.4843 43.5679 58.5343 43.5839 58.5413C43.6439 58.5663 43.7069 58.5453 43.7489 58.4993C43.7929 58.4493 43.8369 58.4003 43.8829 58.3523C43.9099 58.3243 44.0149 58.2473 43.9809 58.2313C43.9269 58.2063 43.7849 58.3963 43.7579 58.4243C43.6959 58.4903 43.7359 58.6053 43.8129 58.6383C46.2579 59.6693 48.7029 60.7013 51.1479 61.7323C52.3819 62.2533 53.6159 62.7733 54.8499 63.2943C55.9139 63.7433 56.9889 64.1683 58.0449 64.6353C59.1229 65.1123 60.1799 65.6953 60.9459 66.6123C61.0609 66.7503 61.2829 66.5813 61.1679 66.4433Z" fill="#010101"/>
<path d="M51.7929 88.4255C51.5689 86.3165 50.3849 84.3975 49.3839 82.5035C49.2139 80.1865 49.0119 77.8715 48.7359 75.5615C48.2599 71.5765 47.5679 67.6045 46.4389 63.7255C45.4889 60.4595 44.2899 57.1095 41.9689 54.4125C40.8919 53.1605 39.5529 52.0715 37.9889 51.3425C36.5529 50.6735 34.9669 50.3085 33.3569 50.2215C30.0909 50.0455 26.7449 51.0055 24.1219 52.7645C24.0909 52.7855 24.0609 52.8065 24.0299 52.8285C22.8069 52.4225 21.3599 52.8795 20.4219 53.7555C19.7849 54.3495 19.3279 55.1065 18.9729 55.8845C18.5749 56.7565 18.2599 57.6675 18.0039 58.5875C16.9489 62.3695 16.9679 66.4025 17.8829 70.2085C18.7419 73.7815 20.4199 77.1505 22.6339 80.1165C24.8219 83.0465 27.5239 85.6765 30.6159 87.7085C30.7339 87.7865 30.8529 87.8625 30.9729 87.9385C30.9789 87.9435 30.9849 87.9485 30.9899 87.9525C32.7309 89.3625 34.6449 90.6485 36.7269 91.6245C36.7369 91.6295 36.7479 91.6355 36.7579 91.6415C38.7819 92.6945 40.9939 93.4745 43.3069 93.7995C45.2259 94.0695 47.3399 93.9445 49.0819 93.1115C49.9009 92.7205 50.6179 92.1555 51.1019 91.4365C51.7099 90.5335 51.9039 89.4685 51.7929 88.4255Z" fill="#E2EDFD"/>
<path d="M37.2059 71.1954C36.1889 68.2514 35.1709 65.3074 34.1539 62.3634C33.7359 61.1524 33.3829 59.8534 32.6809 58.7674C32.0079 57.7264 31.0049 57.1024 29.7979 56.8554C28.4879 56.5884 27.1139 56.6274 25.7839 56.5784C24.2309 56.5214 22.6779 56.4634 21.1249 56.4064C20.7479 56.3924 20.3719 56.3784 19.9959 56.3644C20.0259 56.1734 19.7259 56.0984 19.6699 56.2974C19.6649 56.3154 19.6599 56.3334 19.6549 56.3514C19.3839 56.3414 19.1139 56.3314 18.8429 56.3214C18.6279 56.3134 18.6279 56.6474 18.8429 56.6554C19.0839 56.6644 19.3249 56.6734 19.5659 56.6814C18.2839 61.5514 18.4459 66.7734 19.9629 71.5724C20.7249 73.9824 21.8249 76.3064 23.2629 78.3874C24.6189 80.3494 26.3409 82.1584 28.5139 83.2064C30.4359 84.1334 32.6319 84.3474 34.6659 83.6524C36.7179 82.9514 38.3229 81.3534 38.7279 79.1824C39.2329 76.4644 38.0759 73.7144 37.2059 71.1954Z" fill="#21A3EC"/>
<path d="M51.9599 88.4255C51.7579 86.6255 50.9209 85.0035 50.0729 83.4315C49.9719 83.2435 49.8699 83.0555 49.7689 82.8685C49.7159 82.7695 49.6569 82.6705 49.6079 82.5685C49.5439 82.4355 49.5379 82.3205 49.5269 82.1745C49.4889 81.6735 49.4499 81.1725 49.4089 80.6715C49.3269 79.6705 49.2369 78.6685 49.1349 77.6695C48.7369 73.7465 48.1659 69.8325 47.2219 66.0015C46.3879 62.6175 45.3599 59.1335 43.4749 56.1695C42.5569 54.7265 41.4259 53.4185 40.0539 52.3905C38.6069 51.3055 36.9169 50.5965 35.1419 50.2665C31.7019 49.6275 28.0309 50.3215 24.9919 52.0335C24.6339 52.2345 24.2829 52.4505 23.9449 52.6835C23.9879 52.6775 24.0309 52.6725 24.0739 52.6665C23.1249 52.3645 22.0919 52.5315 21.2209 52.9865C20.2889 53.4735 19.6089 54.3095 19.1149 55.2215C18.5519 56.2615 18.1589 57.4055 17.8429 58.5415C17.5099 59.7375 17.2839 60.9615 17.1569 62.1955C16.6699 66.9315 17.6969 71.7285 19.8469 75.9565C21.8989 79.9915 24.9239 83.5805 28.4809 86.3725C28.9269 86.7225 29.3809 87.0605 29.8459 87.3855C30.3119 87.7115 30.7919 88.0095 31.2379 88.3615C32.1619 89.0905 33.1209 89.7755 34.1219 90.3955C35.1169 91.0125 36.1579 91.5405 37.2089 92.0545C38.2559 92.5655 39.3419 93.0005 40.4579 93.3375C42.6489 93.9995 45.0149 94.3455 47.2809 93.8795C49.3679 93.4505 51.4239 92.2115 51.8859 89.9875C51.9929 89.4745 52.0119 88.9485 51.9599 88.4255C51.9389 88.2135 51.6049 88.2115 51.6259 88.4255C51.7239 89.4225 51.5519 90.4305 51.0039 91.2815C50.5079 92.0525 49.7489 92.6185 48.9249 93.0005C47.1239 93.8355 45.0249 93.9005 43.0909 93.5985C41.0489 93.2805 39.0709 92.6085 37.2239 91.6895C36.3179 91.2385 35.4159 90.7885 34.5499 90.2655C33.6759 89.7375 32.8319 89.1595 32.0169 88.5435C31.6369 88.2575 31.2779 87.9355 30.8789 87.6775C30.4709 87.4155 30.0709 87.1405 29.6779 86.8575C28.8599 86.2685 28.0739 85.6375 27.3189 84.9695C25.8559 83.6745 24.5119 82.2455 23.3019 80.7115C20.8599 77.6155 18.9869 74.0455 18.0549 70.2025C17.0519 66.0645 17.1269 61.6515 18.4799 57.6005C19.0799 55.8045 19.9569 53.7405 21.8859 53.0575C22.3039 52.9095 22.7459 52.8305 23.1899 52.8455C23.4009 52.8525 23.6099 52.8825 23.8149 52.9365C23.8939 52.9575 23.9919 53.0085 24.0749 52.9875C24.1639 52.9645 24.2659 52.8675 24.3399 52.8195C25.1389 52.2975 25.9899 51.8525 26.8749 51.4945C30.5639 50.0035 35.0119 49.8585 38.5609 51.8195C42.0099 53.7245 44.0539 57.2825 45.3509 60.8805C46.7729 64.8205 47.6449 68.9595 48.2449 73.0985C48.5639 75.3015 48.8019 77.5155 48.9959 79.7325C49.0439 80.2795 49.0889 80.8275 49.1319 81.3755C49.1539 81.6575 49.1759 81.9385 49.1969 82.2205C49.2049 82.3245 49.1949 82.4465 49.2239 82.5465C49.2579 82.6635 49.3429 82.7785 49.3999 82.8855C49.8779 83.7765 50.3739 84.6595 50.7889 85.5825C51.1949 86.4855 51.5159 87.4355 51.6259 88.4235C51.6499 88.6375 51.9839 88.6395 51.9599 88.4255Z" fill="#231F20"/>
<path d="M60.9729 11.3043C60.7819 9.78632 60.1119 8.34432 59.0089 7.27532C57.9399 6.24032 56.4929 5.56732 54.9999 5.49832C53.5629 5.43232 52.1669 5.92632 50.9899 6.73032C49.7599 7.57032 48.7719 8.72332 48.0309 10.0083C47.1759 11.4893 46.6419 13.1593 46.4729 14.8613C46.4559 15.0303 46.4439 15.1993 46.4339 15.3683C46.3949 15.3903 46.3679 15.4313 46.3789 15.4903C46.3909 15.5593 46.4049 15.6283 46.4209 15.6973C46.4169 15.8383 46.4149 15.9793 46.4159 16.1203C46.4159 16.2123 46.4959 16.2423 46.5659 16.2233C46.9229 17.2993 47.6149 18.2513 48.4969 18.9683C49.6409 19.8973 51.0709 20.3963 52.5419 20.4193C54.1119 20.4433 55.6649 19.9733 56.9969 19.1513C58.3139 18.3383 59.4149 17.1673 60.1369 15.7983C60.8629 14.4233 61.1669 12.8493 60.9729 11.3043Z" fill="#E2EDFD"/>
<path d="M56.1359 11.1572C55.5889 10.7172 54.8909 10.4712 54.1959 10.5642C53.5959 10.6442 53.0419 10.9722 52.6089 11.4182C51.5229 12.5382 51.3749 14.1682 51.6249 15.6602C51.6089 15.6962 51.6039 15.7412 51.6159 15.7942C51.6409 15.9012 51.6729 16.0012 51.7099 16.0962C51.7199 16.1432 51.7309 16.1892 51.7419 16.2362C51.7609 16.3162 51.8049 16.3832 51.8689 16.4152C52.4799 17.3912 53.8559 17.5852 54.9219 17.4642C55.5309 17.3952 56.1519 17.1942 56.6419 16.7852C57.1759 16.3402 57.4909 15.6812 57.5809 14.9782C57.7609 13.5882 57.1839 11.9992 56.1359 11.1572Z" fill="#21A3EC"/>
<path d="M61.1379 11.2833C60.9489 9.84429 60.3509 8.45528 59.3529 7.39028C58.3079 6.27528 56.8679 5.51528 55.3419 5.35728C52.1899 5.03028 49.4549 7.27029 47.9369 9.83929C46.9519 11.5073 46.3809 13.4133 46.2679 15.3453C46.2899 15.3083 46.3109 15.2723 46.3329 15.2353C46.1239 15.4093 46.2509 15.7153 46.2489 15.9513C46.2469 16.1943 46.2889 16.4193 46.5859 16.3903C46.5269 16.3563 46.4689 16.3223 46.4099 16.2873C47.3549 19.0723 50.2089 20.7273 53.0809 20.5753C55.9269 20.4243 58.5779 18.7313 60.0399 16.3063C60.9489 14.7993 61.3479 13.0323 61.1379 11.2833C61.1119 11.0703 60.7809 11.1113 60.8059 11.3253C61.1509 14.2053 59.7329 16.9993 57.4109 18.6733C55.1769 20.2833 52.0959 20.8243 49.5969 19.4993C48.2619 18.7923 47.2049 17.5943 46.7189 16.1603C46.6949 16.0893 46.6139 16.0503 46.5429 16.0573C46.6029 16.0513 46.5539 16.2293 46.5799 16.0143C46.5869 15.9603 46.5809 15.9023 46.5819 15.8473C46.5829 15.7653 46.5899 15.6873 46.5699 15.6063C46.5659 15.5893 46.5429 15.5333 46.5449 15.5193C46.5479 15.4923 46.5679 15.4843 46.5749 15.4523C46.5959 15.3613 46.6049 15.2753 46.6119 15.1793C46.6419 14.7713 46.6929 14.3653 46.7639 13.9633C46.9139 13.1203 47.1539 12.2943 47.4799 11.5023C48.0869 10.0263 48.9889 8.64429 50.1819 7.57529C51.3009 6.57229 52.6899 5.83229 54.2019 5.68429C55.7569 5.53229 57.3169 6.07329 58.5159 7.05929C59.8079 8.12229 60.5889 9.67629 60.8049 11.3233C60.8349 11.5383 61.1659 11.4973 61.1379 11.2833Z" fill="#010101"/>
<path d="M10.8639 8.78342C11.1749 10.2994 11.9059 11.7314 12.9429 12.8794C13.9929 14.0414 15.3529 14.9254 16.8669 15.3404C18.2859 15.7294 19.7979 15.6494 21.1559 15.0764C22.2039 14.6344 23.1339 13.9144 23.7769 12.9794C23.8389 13.0174 23.9239 13.0114 23.9499 12.9224C23.9899 12.7874 24.0279 12.6514 24.0629 12.5144C24.0969 12.4524 24.1289 12.3904 24.1609 12.3274C24.1869 12.2734 24.1739 12.2264 24.1419 12.1944C24.1799 12.0294 24.2149 11.8634 24.2459 11.6964C24.5589 10.0154 24.5119 8.26242 24.1049 6.60142C23.7519 5.16042 23.1249 3.77742 22.1779 2.62742C21.2719 1.52642 20.0699 0.662416 18.6719 0.325415C17.2189 -0.0255845 15.6419 0.217413 14.3269 0.913413C12.9699 1.63141 11.9239 2.82941 11.3159 4.23341C10.6979 5.66441 10.5509 7.26042 10.8639 8.78342Z" fill="#E2EDFD"/>
<path d="M13.5459 8.70841C13.4359 9.40941 13.5549 10.1304 13.9439 10.7064C14.3009 11.2354 14.8409 11.6024 15.4069 11.8384C16.3969 12.2514 17.7719 12.4494 18.6309 11.6824C18.7019 11.6704 18.7619 11.6174 18.8029 11.5464C18.8269 11.5054 18.8499 11.4634 18.8729 11.4214C18.9349 11.3404 18.9939 11.2534 19.0469 11.1574C19.0729 11.1104 19.0809 11.0654 19.0759 11.0264C19.7329 9.66441 20.0449 8.05741 19.3149 6.67841C19.0239 6.12941 18.5839 5.65941 18.0299 5.41541C17.3879 5.13241 16.6489 5.17441 16.0009 5.44441C14.7599 5.95941 13.7629 7.32441 13.5459 8.70841Z" fill="#21A3EC"/>
<path d="M11.1619 4.16839C11.7449 2.83939 12.7069 1.67239 13.9629 0.928394C15.2769 0.149394 16.8719 -0.178606 18.3819 0.0953938C21.4999 0.661394 23.5009 3.5754 24.2409 6.4664C24.7209 8.3424 24.7379 10.3324 24.3069 12.2194C24.2959 12.1784 24.2859 12.1364 24.2749 12.0954C24.4269 12.3204 24.2189 12.5784 24.1559 12.8064C24.0899 13.0404 23.9869 13.2444 23.7099 13.1344C23.7759 13.1174 23.8419 13.1014 23.9079 13.0854C22.2239 15.4954 19.0209 16.2894 16.3059 15.3414C13.6149 14.4024 11.5419 12.0364 10.8149 9.3004C10.3629 7.5974 10.4729 5.79039 11.1619 4.16839C11.2459 3.97039 11.5529 4.10339 11.4689 4.30139C10.3339 6.9704 10.9159 10.0494 12.6789 12.3044C14.3749 14.4744 17.1829 15.8534 19.9509 15.2784C21.4299 14.9714 22.7789 14.1164 23.6459 12.8754C23.6889 12.8134 23.7779 12.7994 23.8439 12.8264C23.7879 12.8044 23.7849 12.9884 23.8209 12.7754C23.8299 12.7214 23.8509 12.6674 23.8659 12.6144C23.8879 12.5354 23.9029 12.4584 23.9439 12.3864C23.9529 12.3714 23.9899 12.3234 23.9929 12.3094C23.9979 12.2834 23.9809 12.2694 23.9829 12.2374C23.9879 12.1444 24.0039 12.0594 24.0239 11.9644C24.1089 11.5644 24.1729 11.1604 24.2169 10.7544C24.3079 9.9024 24.3079 9.0434 24.2159 8.19139C24.0449 6.60539 23.5649 5.02539 22.7179 3.66539C21.9229 2.38939 20.7959 1.2914 19.3859 0.727398C17.9359 0.147398 16.2859 0.231394 14.8599 0.844394C13.3219 1.50439 12.1389 2.7784 11.4719 4.3004C11.3829 4.4984 11.0759 4.36539 11.1619 4.16839Z" fill="#010101"/>
<path d="M63.4119 40.4653C63.8439 37.4223 63.8459 34.2863 63.3359 31.2223C63.2979 30.9433 63.2569 30.6653 63.2119 30.3873C62.6429 26.8673 59.7699 18.7963 54.6189 14.6793C51.2269 11.9683 47.1109 10.0483 42.6869 9.24529C42.0579 9.13129 37.4559 8.11529 36.8299 8.00629C35.2849 7.90429 29.0939 7.65629 27.5219 7.71729C23.2369 7.88229 19.0199 8.80529 15.3179 10.7413C12.8609 12.0263 10.8609 13.7593 9.25889 15.7903C7.37489 17.9003 5.93989 20.3393 4.81089 22.8903C4.69689 23.1473 4.58689 23.4063 4.47989 23.6663C3.20989 26.5023 2.41689 29.5373 2.06289 32.5903C1.82889 34.3193 1.72289 36.0643 1.75589 37.8083C1.79089 39.6273 2.09789 41.3403 2.70689 42.9503C2.93789 43.7843 3.2169 44.6073 3.5559 45.4153C5.0789 49.0483 8.0589 51.5273 11.4469 53.9073C14.1699 55.8203 19.4249 57.2823 20.4489 57.6263C23.8399 58.7643 27.4399 59.0923 30.9889 59.4493C34.7879 59.8323 38.6389 60.0733 42.4459 59.8883C43.9399 59.8153 45.3909 59.5543 46.7939 59.1573C47.5089 59.0383 48.2199 58.8933 48.9279 58.7183C52.9849 57.7163 56.3209 55.6253 58.7149 52.4963C59.2469 51.8003 59.7269 51.0743 60.1609 50.3263C61.1579 48.9223 61.8909 47.3423 62.3849 45.5913C62.8599 43.9123 63.1989 42.1973 63.4119 40.4653Z" fill="#E2EDFD"/>
<path d="M55.2789 50.2983C54.4229 49.1913 53.4629 48.3383 52.4229 47.7613C51.1979 47.0813 49.8259 46.7993 48.5599 46.9673C47.4429 47.1163 46.3679 47.6543 45.5349 48.4833C43.8309 50.1773 43.4279 52.8113 44.5299 55.0373C45.5169 57.0293 47.6329 58.3503 49.9119 58.4493C51.3609 58.0153 52.7099 57.4333 53.9469 56.7083C54.5559 55.8333 54.8019 54.7063 54.6079 53.6223C54.2189 51.4483 51.9639 49.3383 49.5279 49.7693C48.3749 49.9733 47.4739 50.8233 47.1779 51.9883C46.8889 53.1253 47.2649 54.2763 48.1599 54.9903C49.1129 55.7513 50.4299 55.8793 51.3629 55.3033C51.8909 54.9763 52.2079 54.4443 52.2099 53.8803C52.2119 53.2733 51.8899 52.7503 51.3699 52.5163C51.0969 52.3933 50.7869 52.5133 50.6629 52.7883C50.5379 53.0663 50.6549 53.3813 50.9299 53.5053C51.0359 53.5533 51.0839 53.6463 51.1059 53.7153C51.1479 53.8503 51.1289 54.0083 51.0569 54.1273C50.9229 54.3483 50.7099 54.4913 50.4239 54.5513C49.9679 54.6483 49.3609 54.5153 48.9489 54.2283C48.2749 53.7593 47.9889 52.9573 48.2199 52.1843C48.4629 51.3723 49.1479 50.8423 50.0089 50.8013C50.8219 50.7633 51.6969 51.1213 52.4089 51.7853C53.0889 52.4183 53.5149 53.2683 53.5799 54.1183C53.6509 55.0553 53.2889 55.9933 52.6359 56.5653C51.1729 57.8473 48.7649 57.4893 47.2429 56.5013C45.6269 55.4523 44.7449 53.5003 45.0489 51.6443C45.3419 49.8583 46.8169 48.3513 48.5559 48.0603C50.4249 47.7483 52.4899 48.6753 54.0799 50.5383C55.0319 51.6543 56.1049 53.2973 56.2079 55.1153C56.2579 55.0733 56.3059 55.0313 56.3559 54.9893C56.6349 54.7253 56.9039 54.4513 57.1619 54.1633C57.1219 53.9623 57.0739 53.7623 57.0159 53.5613C56.7029 52.4813 56.1179 51.3823 55.2789 50.2983Z" fill="#21A3EC"/>
<path d="M12.1059 54.3334C14.0629 54.4184 16.0089 53.6744 17.3179 52.2484C19.1139 50.2924 19.4849 47.4694 18.2419 45.2224C17.6339 44.1234 16.6919 43.2504 15.5889 42.7644C14.3409 42.2144 12.8489 42.0944 11.3879 42.4264C10.1489 42.7084 8.90791 43.2984 7.69991 44.1784C6.51591 45.0414 5.5879 45.9944 4.9419 47.0114C4.8709 47.1224 4.80491 47.2354 4.74091 47.3484C4.95491 47.7454 5.19091 48.1274 5.44491 48.4944C6.16091 46.8354 7.6319 45.5894 8.8559 44.7844C11.0439 43.3454 13.4399 43.0114 15.2649 43.8884C16.9639 44.7054 18.0279 46.6914 17.7949 48.6124C17.5539 50.6084 16.0659 52.3484 14.0939 52.9434C12.2369 53.5034 9.6589 53.1534 8.5399 51.4004C8.0399 50.6184 7.9489 49.5474 8.3009 48.6074C8.6199 47.7544 9.31191 47.0094 10.1979 46.5624C11.1279 46.0934 12.1329 45.9864 12.9549 46.2684C13.8259 46.5674 14.3719 47.3154 14.3789 48.2214C14.3859 49.0834 13.8529 49.8214 13.0209 50.1014C12.5129 50.2724 11.8499 50.2284 11.4109 49.9924C11.1359 49.8444 10.9599 49.6344 10.8879 49.3684C10.8489 49.2244 10.8769 49.0564 10.9599 48.9304C11.0029 48.8654 11.0799 48.7844 11.2029 48.7674C11.5219 48.7224 11.7359 48.4344 11.6909 48.1114C11.6459 47.7924 11.3629 47.5764 11.0469 47.6214C10.4429 47.7064 9.95691 48.1464 9.77791 48.7704C9.61191 49.3504 9.77791 49.9914 10.2229 50.4834C11.0079 51.3534 12.3979 51.6144 13.6029 51.1174C14.7349 50.6514 15.4649 49.5824 15.5069 48.3294C15.5499 47.0454 14.8789 45.9044 13.7569 45.3504C11.3859 44.1814 8.44191 45.6744 7.39491 47.7894C7.00791 48.5704 6.86291 49.4474 6.96091 50.2894C8.28491 51.5964 9.81791 52.7634 11.4469 53.9074C11.6539 54.0514 11.8739 54.1944 12.1059 54.3334Z" fill="#21A3EC"/>
<path d="M63.5769 40.4883C64.0659 36.9953 63.9709 33.4473 63.3099 29.9823C62.8979 27.8193 62.1419 25.7053 61.2529 23.6973C60.1319 21.1673 58.7189 18.7213 56.8879 16.6363C54.8479 14.3123 52.1839 12.5463 49.4019 11.2303C47.8429 10.4923 46.2129 9.90732 44.5409 9.47932C43.5529 9.22632 42.5459 9.05132 41.5479 8.83832C40.5279 8.62032 39.5089 8.39932 38.4889 8.18032C37.8279 8.03832 37.1639 7.85632 36.4869 7.81832C34.3289 7.69732 32.1659 7.62132 30.0049 7.56932C27.4749 7.50832 24.9749 7.63632 22.4819 8.11732C19.2489 8.74132 16.0359 9.88332 13.3069 11.7553C12.0009 12.6513 10.8139 13.7183 9.77093 14.9103C8.62293 16.2233 7.53593 17.5843 6.61893 19.0703C5.70493 20.5523 4.96893 22.1123 4.27693 23.7063C3.55093 25.3783 2.96593 27.1023 2.54493 28.8763C2.10593 30.7203 1.83793 32.6123 1.68893 34.5013C1.54693 36.3023 1.49592 38.1463 1.75992 39.9383C1.88292 40.7743 2.07493 41.6003 2.33693 42.4033C2.61393 43.2523 2.86593 44.1133 3.18693 44.9483C3.72693 46.3513 4.46993 47.6523 5.40993 48.8263C6.33393 49.9793 7.41193 51.0023 8.55093 51.9393C9.68692 52.8733 10.8769 53.8053 12.1479 54.5513C14.3069 55.8193 16.7359 56.6323 19.1139 57.3813C20.1619 57.7113 21.2059 58.0613 22.2709 58.3313C24.1009 58.7943 25.9729 59.0713 27.8469 59.2873C31.6429 59.7263 35.4639 60.0863 39.2879 60.1153C41.1029 60.1293 42.9379 60.1123 44.7299 59.8003C45.6219 59.6453 46.4889 59.3893 47.3769 59.2233C48.2089 59.0683 49.0349 58.8793 49.8479 58.6413C52.6389 57.8243 55.2319 56.3853 57.3099 54.3393C58.4779 53.1893 59.3909 51.8743 60.2559 50.4893C60.6969 49.7823 61.1539 49.1033 61.5199 48.3503C61.9069 47.5533 62.2229 46.7233 62.4739 45.8743C62.9969 44.1173 63.3509 42.3083 63.5769 40.4883C63.6039 40.2753 63.2729 40.2273 63.2459 40.4413C63.0099 42.3373 62.6489 44.2423 62.0699 46.0653C61.8139 46.8703 61.4989 47.6573 61.1189 48.4123C60.7319 49.1793 60.2449 49.8783 59.7999 50.6103C58.2289 53.1963 56.0879 55.3613 53.4229 56.8153C52.1349 57.5173 50.7599 58.0553 49.3449 58.4393C48.4879 58.6723 47.6149 58.7983 46.7519 58.9973C45.8759 59.1993 45.0219 59.4293 44.1299 59.5583C42.3119 59.8193 40.4449 59.8093 38.6119 59.7763C36.7579 59.7423 34.9049 59.6313 33.0569 59.4753C29.3949 59.1653 25.6529 58.8753 22.0869 57.9423C21.0729 57.6773 20.0739 57.3383 19.0749 57.0223C17.9529 56.6663 16.8379 56.2883 15.7399 55.8613C14.5319 55.3913 13.3289 54.8733 12.2149 54.2073C10.9709 53.4643 9.79993 52.5413 8.68493 51.6183C7.54693 50.6763 6.47393 49.6473 5.56193 48.4813C4.60693 47.2593 3.88592 45.9093 3.35892 44.4523C3.06392 43.6383 2.80093 42.8013 2.55093 41.9723C2.30393 41.1533 2.13593 40.3113 2.03493 39.4633C1.81793 37.6393 1.89793 35.7693 2.07393 33.9453C2.24793 32.1413 2.51993 30.3433 2.95993 28.5843C3.40693 26.7953 4.05393 25.0963 4.77193 23.4013C5.45393 21.7943 6.25592 20.2313 7.20692 18.7663C8.11592 17.3663 9.17792 16.0513 10.3019 14.8183C12.5079 12.3983 15.3039 10.6953 18.3699 9.58632C21.3459 8.50932 24.5499 7.95132 27.7129 7.87932C29.7839 7.83232 31.8659 7.95032 33.9339 8.03432C34.8229 8.07032 35.7109 8.10732 36.5989 8.16032C37.2579 8.19932 37.9229 8.40232 38.5669 8.53932C39.5629 8.75332 40.5589 8.96931 41.5559 9.18231C42.5709 9.39831 43.5939 9.57732 44.5989 9.83832C47.8569 10.6863 50.9529 12.1653 53.6649 14.1593C55.9399 15.8313 57.7249 17.9653 59.1689 20.3813C60.4829 22.5793 61.5249 24.9543 62.2959 27.3953C63.0809 29.8843 63.4649 32.5023 63.5459 35.1083C63.6009 36.8913 63.4929 38.6753 63.2459 40.4413C63.2179 40.6543 63.5479 40.7023 63.5769 40.4883Z" fill="#010101"/>
<path d="M38.8459 47.3045C38.4089 50.3725 34.9619 52.4185 31.1459 51.8755C27.3299 51.3325 24.5909 48.4045 25.0279 45.3375C25.4649 42.2695 28.9119 40.2235 32.7279 40.7665C36.5429 41.3095 39.2829 44.2365 38.8459 47.3045Z" fill="black"/>
<path d="M15.5959 38.4685C15.2789 38.4235 14.9759 38.5445 14.7759 38.7655C14.4269 38.5985 14.1119 38.3795 13.8299 38.1065C13.6979 37.9785 13.5209 38.2035 13.6519 38.3315C13.9379 38.6095 14.2629 38.8355 14.6179 39.0095C14.5839 39.0865 14.5589 39.1695 14.5459 39.2565C14.5389 39.3035 14.5369 39.3505 14.5379 39.3965C14.1679 39.4215 13.7989 39.3885 13.4329 39.2975C13.2539 39.2525 13.2149 39.5365 13.3929 39.5815C13.7859 39.6795 14.1859 39.7125 14.5859 39.6825C14.6939 40.0045 14.9749 40.2555 15.3339 40.3065C15.8409 40.3785 16.3109 40.0255 16.3829 39.5185C16.4549 39.0115 16.1039 38.5405 15.5959 38.4685Z" fill="#010101"/>
<path d="M50.3889 43.4214C50.7069 43.4664 50.9639 43.6674 51.0939 43.9354C51.4749 43.8724 51.8399 43.7504 52.1859 43.5664C52.3489 43.4804 52.4559 43.7464 52.2939 43.8314C51.9409 44.0184 51.5659 44.1454 51.1769 44.2124C51.1889 44.2954 51.1889 44.3824 51.1769 44.4694C51.1699 44.5164 51.1589 44.5614 51.1459 44.6064C51.4939 44.7334 51.8579 44.8054 52.2349 44.8194C52.4189 44.8264 52.3769 45.1104 52.1949 45.1034C51.7899 45.0874 51.3959 45.0084 51.0209 44.8674C50.8269 45.1464 50.4869 45.3094 50.1279 45.2584C49.6209 45.1864 49.2679 44.7164 49.3399 44.2094C49.4119 43.7024 49.8819 43.3494 50.3889 43.4214Z" fill="#010101"/>
<path d="M34.3459 43.9154C34.2759 44.4044 33.4439 44.6904 32.4869 44.5544C31.5299 44.4184 30.8099 43.9114 30.8799 43.4214C30.9499 42.9324 31.7819 42.6464 32.7389 42.7824C33.6959 42.9194 34.4149 43.4264 34.3459 43.9154Z" fill="white"/>
<path d="M18.0039 58.8455C18.1189 58.4195 18.2469 57.9945 18.3879 57.5755C17.7119 56.8245 17.0219 56.0835 16.3449 55.3345C15.6959 54.6165 15.0469 53.8985 14.3979 53.1805C13.5739 52.2695 12.7519 51.3575 11.9269 50.4475C11.1629 49.6045 10.3839 48.7575 9.47988 48.0625C8.67488 47.4445 7.76188 46.9405 6.76388 46.7225C6.27088 46.6155 5.76188 46.5845 5.25988 46.6365C4.98888 46.6645 4.72488 46.7315 4.45388 46.7585C4.18288 46.7865 3.91288 46.8385 3.65088 46.9145C3.13988 47.0625 2.66188 47.3065 2.24388 47.6355C0.783879 48.8295 0.23488 50.8455 0.50688 52.6685C0.81488 54.7365 2.02688 56.5375 3.38088 58.0755C6.32788 61.4235 10.2439 64.0375 14.5169 65.3495C15.3929 65.6185 16.3009 65.8555 17.2199 65.8705C17.1369 63.5055 17.3859 61.1315 18.0039 58.8455Z" fill="#E2EDFD"/>
<path d="M18.2929 56.9774C16.6299 55.1384 14.9609 53.3044 13.2979 51.4644C11.7499 49.7514 10.2149 47.7754 8.05591 46.8054C7.11391 46.3814 6.08491 46.1834 5.05491 46.3264C4.50691 46.4024 3.93891 46.4654 3.41191 46.6384C2.89891 46.8064 2.43191 47.0654 2.00791 47.3994C1.65291 47.6904 1.34391 48.0294 1.08491 48.4084C-0.0390906 50.0544 -0.120091 52.2084 0.501909 54.0554C1.19591 56.1164 2.6369 57.8624 4.1489 59.3854C5.7859 61.0344 7.65391 62.4484 9.67391 63.5954C10.7129 64.1854 11.7919 64.7044 12.9049 65.1394C13.9999 65.5674 15.1479 65.9554 16.3149 66.1264C16.5609 66.1624 16.8099 66.1854 17.0579 66.1954C17.0579 66.1994 17.0589 66.2034 17.0589 66.2064C17.0749 66.4194 17.4099 66.4214 17.3929 66.2064C17.1549 63.1304 17.5619 60.0304 18.5849 57.1194C18.6489 56.9374 18.3979 56.8494 18.2929 56.9774ZM14.5179 65.3484C10.2459 64.0364 6.32991 61.4224 3.38191 58.0744C2.02791 56.5364 0.815906 54.7354 0.507906 52.6674C0.235906 50.8444 0.784905 48.8284 2.24491 47.6344C2.28591 47.6024 2.32791 47.5714 2.36991 47.5414C1.75591 48.6694 1.60391 50.0654 1.83591 51.3294C2.22891 53.4734 3.5259 55.3964 4.8039 57.1154C6.0629 58.8084 7.50591 60.3724 9.15991 61.6854C11.4369 63.4924 14.1509 64.8034 17.0069 65.2784C17.0139 65.4734 17.0229 65.6684 17.0349 65.8644C16.1799 65.8224 15.3339 65.5994 14.5179 65.3484ZM17.0009 65.0864C16.0209 64.9224 15.0549 64.6604 14.1229 64.3124C10.2229 62.8554 7.05791 59.9424 4.66191 56.5984C3.44591 54.9014 2.22291 53.0084 1.95991 50.8924C1.80791 49.6674 2.04991 48.3314 2.73791 47.3024C3.02491 47.1374 3.33191 47.0064 3.65191 46.9144C3.91391 46.8384 4.1839 46.7864 4.4549 46.7584C4.7259 46.7304 4.9889 46.6634 5.2609 46.6364C5.7629 46.5844 6.27191 46.6154 6.76491 46.7224C7.76291 46.9394 8.67691 47.4434 9.48091 48.0624C10.3859 48.7574 11.1649 49.6044 11.9279 50.4474C12.7529 51.3574 13.5749 52.2694 14.3989 53.1804C15.0479 53.8984 15.6969 54.6164 16.3459 55.3344C16.9479 56.0004 17.5589 56.6604 18.1629 57.3254C17.3239 59.8204 16.9299 62.4564 17.0009 65.0864Z" fill="#231F20"/>
</svg>
