<svg width="100" height="100" viewBox="0 0 100 100" fill="none" xmlns="http://www.w3.org/2000/svg">
<g clip-path="url(#clip0_25_826)">
<path d="M91.2455 61.0357H7.72754C4.54277 61.0357 1.96094 58.4539 1.96094 55.2691V8.20917C1.96094 5.0244 4.54277 2.44257 7.72754 2.44257H91.2455C94.4303 2.44257 97.0121 5.0244 97.0121 8.20917V55.2689C97.0121 58.4539 94.4303 61.0357 91.2455 61.0357Z" fill="#99DB53"/>
<path d="M96.8465 70.9287L64.4154 58.8969C61.2404 57.7189 58.1475 60.8109 59.3246 63.9863L71.326 96.364C71.8984 97.9082 74.0602 97.9685 74.7178 96.4588L79.1867 86.1988L88.4189 95.4338C89.7051 96.7203 91.7908 96.7207 93.0773 95.4344L95.8539 92.6586C97.1404 91.3724 97.1408 89.2867 95.8545 88.0002L86.7336 78.8765L96.9561 74.3135C98.452 73.6457 98.3826 71.4986 96.8465 70.9287Z" fill="#3BA0FF"/>
<path d="M26.9881 59.075H7.77012C5.64805 59.075 3.92168 57.3486 3.92168 55.2265V8.25173C3.92168 6.12966 5.64805 4.4033 7.77012 4.4033H91.2029C93.325 4.4033 95.0514 6.12966 95.0514 8.25173V55.2265C95.0514 57.3486 93.325 59.075 91.2029 59.075H85.3147C84.2316 59.075 83.3539 59.9529 83.3539 61.0357C83.3539 62.1185 84.2318 62.9965 85.3147 62.9965H91.2029C95.4873 62.9965 98.9729 59.5109 98.9729 55.2265V8.25173C98.9729 3.96736 95.4873 0.481812 91.2029 0.481812H7.77012C3.48574 0.481812 0 3.96736 0 8.25173V55.2265C0 59.5109 3.48574 62.9965 7.77012 62.9965H26.9883C28.0713 62.9965 28.949 62.1185 28.949 61.0357C28.949 59.9529 28.0711 59.075 26.9881 59.075Z" fill="white"/>
<path d="M99.9981 72.5212C99.9757 71.7683 99.7285 71.0392 99.2885 70.4278C98.8484 69.8164 98.2355 69.3506 97.5285 69.0904V69.0902L65.0973 57.0583C62.901 56.2439 60.5078 56.7665 58.8516 58.4224C57.1951 60.0783 56.6719 62.4714 57.486 64.6675L69.4873 97.0455C70.0278 98.5033 71.3811 99.4732 72.9352 99.5166C72.9715 99.5177 73.0074 99.5181 73.0434 99.5181C74.5541 99.5181 75.909 98.6339 76.5153 97.2417L79.835 89.6205L87.0323 96.8199C89.0807 98.8689 92.4145 98.8697 94.4637 96.821L97.2401 94.0453C98.2326 93.0529 98.7795 91.7333 98.7797 90.3296C98.7799 88.9261 98.2334 87.6064 97.2412 86.6138L90.1348 79.5058L97.7551 76.1041C98.4437 75.7987 99.0253 75.2944 99.425 74.656C99.8247 74.0175 100.024 73.274 99.9981 72.5212ZM85.9342 77.0861C85.6439 77.2157 85.3894 77.4139 85.1928 77.6638C84.9961 77.9136 84.8631 78.2075 84.8053 78.5201C84.7475 78.8328 84.7666 79.1548 84.8609 79.4584C84.9552 79.762 85.1219 80.0382 85.3467 80.263L94.4678 89.3867C94.7174 89.6369 94.8576 89.9759 94.8576 90.3294C94.8575 90.6828 94.7173 91.0218 94.4676 91.272L91.6912 94.0478C91.5677 94.1719 91.4208 94.2703 91.259 94.3373C91.0972 94.4043 90.9238 94.4385 90.7487 94.438H90.7485C90.5733 94.4385 90.3998 94.4043 90.2379 94.3372C90.0761 94.2702 89.9292 94.1717 89.8057 94.0474L80.5735 84.8126C80.3476 84.5866 80.07 84.4193 79.7647 84.3251C79.4593 84.2309 79.1356 84.2128 78.8217 84.2722C78.5078 84.3317 78.2132 84.467 77.9635 84.6663C77.7138 84.8657 77.5166 85.123 77.3891 85.416L73.0508 95.3757L61.1631 63.3048C60.7496 62.1892 61.4115 61.4085 61.6242 61.1958C61.7881 61.0322 62.2889 60.6019 63.0203 60.6019C63.2385 60.6019 63.4774 60.6402 63.7334 60.7353L95.8617 72.6546L85.9342 77.0861ZM96.1658 72.7677C96.1655 72.7674 96.165 72.7671 96.1645 72.7669L96.8465 70.9287L96.1658 72.7677ZM50.3043 47.0917C49.5385 46.3263 48.2971 46.3263 47.5313 47.0917C46.7655 47.8576 46.7655 49.099 47.5311 49.8648L53.0719 55.4058C53.2538 55.5881 53.4699 55.7327 53.7079 55.8313C53.9458 55.9298 54.2009 55.9804 54.4584 55.98C54.9602 55.98 55.4621 55.7886 55.8449 55.4058C56.6108 54.64 56.6108 53.3986 55.8449 52.6328L50.3043 47.0917ZM52.3703 61.0527C52.3703 59.9699 51.4924 59.0919 50.4096 59.0919H42.5737C41.4906 59.0919 40.6129 59.9699 40.6129 61.0527C40.6129 62.1355 41.4908 63.0134 42.5737 63.0134H50.4096C51.4924 63.0134 52.3703 62.1355 52.3703 61.0527ZM59.7002 41.9654V49.8013C59.7002 50.8841 60.5781 51.7621 61.661 51.7621C62.7438 51.7621 63.6217 50.8841 63.6217 49.8013V41.9654C63.6217 40.8826 62.7438 40.0046 61.661 40.0046C60.5781 40.0046 59.7002 40.8826 59.7002 41.9654ZM71.1951 52.5353C71.6969 52.5353 72.1989 52.3439 72.5817 51.9611L78.1225 46.4203C78.8883 45.6544 78.8883 44.413 78.1225 43.6472C77.3567 42.8818 76.1153 42.8816 75.3494 43.6472L69.8086 49.188C69.0428 49.9539 69.0428 51.1953 69.8084 51.9611C69.9904 52.1434 70.2065 52.288 70.4445 52.3865C70.6825 52.4851 70.9376 52.5356 71.1951 52.5353ZM50.7981 68.1984L45.2572 73.7394C44.4914 74.5052 44.4916 75.7466 45.2572 76.5124C45.6401 76.8953 46.1418 77.0867 46.6438 77.0867C47.1457 77.0867 47.6475 76.8953 48.0303 76.5124L53.5711 70.9714C54.3369 70.2056 54.3367 68.9642 53.5711 68.1984C52.8053 67.433 51.5637 67.433 50.7981 68.1984Z" fill="white"/>
<path d="M34.7676 63.002C35.8538 63.002 36.7344 62.1214 36.7344 61.0352C36.7344 59.9489 35.8538 59.0684 34.7676 59.0684C33.6813 59.0684 32.8008 59.9489 32.8008 61.0352C32.8008 62.1214 33.6813 63.002 34.7676 63.002Z" fill="white"/>
<path d="M22.5602 19.8845C22.5602 19.0091 23.468 18.5552 24.4082 18.5552H30.6656C34.0375 18.5552 37.1824 19.6576 37.1824 24.2615C37.1824 26.9201 36.1449 28.6709 34.4266 29.4168C36.4043 30.1949 37.766 31.4591 37.766 34.7015V35.3824C37.766 40.4402 34.9453 42.2558 31.2817 42.2558H24.4082C23.2735 42.2558 22.5602 41.6398 22.5602 40.9588V19.8845ZM26.7426 27.7629H30.3739C32.1246 27.7629 32.9676 26.6281 32.9676 24.9748C32.9676 23.2886 31.9949 22.2513 30.3414 22.2513H26.7426V27.7629ZM30.4065 38.5597C32.3842 38.5597 33.5514 37.4896 33.5514 35.0255V34.5068C33.5514 31.9779 32.3842 31.0701 30.4065 31.0701H26.7428V38.5597H30.4065ZM52.0317 19.8521C52.0317 18.9443 53.0692 18.5552 54.1391 18.5552C55.1766 18.5552 56.2465 18.9441 56.2465 19.8521V35.0255C56.2465 40.44 52.8098 42.4504 48.4653 42.4504C44.0883 42.4504 40.684 40.44 40.684 35.0255V19.8521C40.684 18.9443 41.7215 18.5552 42.7914 18.5552C43.8289 18.5552 44.8989 18.9441 44.8989 19.8521V35.0255C44.8989 37.5545 46.2281 38.7541 48.4653 38.7541C50.7024 38.7541 52.0317 37.5545 52.0317 35.0255V19.8521ZM65.292 32.756C65.292 32.5939 65.2596 32.4318 65.1948 32.3345L58.4834 20.7275C58.4186 20.5654 58.3862 20.4033 58.3862 20.306C58.3862 19.2683 60.0397 18.5552 61.1744 18.5552C61.8553 18.5552 62.1795 18.8146 62.4713 19.398L67.3994 28.7681L72.36 19.398C72.6518 18.847 72.9436 18.5552 73.6244 18.5552C74.7592 18.5552 76.4127 19.2683 76.4127 20.306C76.4127 20.4033 76.4127 20.5654 76.3155 20.7275L69.6366 32.3345C69.5717 32.4318 69.5069 32.5939 69.5069 32.756V40.9263C69.5069 41.8017 68.4694 42.2558 67.3994 42.2558C66.3619 42.2558 65.292 41.8019 65.292 40.9263V32.756Z" fill="#1E1D1D"/>
</g>
<defs>
<clipPath id="clip0_25_826">
<rect width="100" height="100" fill="white"/>
</clipPath>
</defs>
</svg>
