<svg width="100" height="100" viewBox="0 0 100 100" fill="none" xmlns="http://www.w3.org/2000/svg">
<circle cx="50" cy="50" r="50" fill="#21A3EC"/>
<g filter="url(#filter0_i_25_1709)">
<circle cx="50" cy="50" r="44.7368" fill="#22031B"/>
</g>
<path d="M23.5092 28.0269C28.2015 21.4675 38.5688 26.1352 41.738 29.4027C36.5297 30.803 32.1814 33.8247 29.4544 38.6644V38.6399C29.4544 38.2959 29.4544 37.952 29.4299 37.6081C28.9385 37.9274 28.398 38.1731 27.833 38.2714C27.1205 38.4188 26.3344 38.3696 25.6711 38.0503C25.0323 37.7309 24.5656 37.1167 24.1971 36.5271C23.3126 35.0285 22.6493 33.3088 22.6002 31.5646C22.6002 30.3853 22.8213 28.985 23.5092 28.0269Z" fill="#F8BAD1"/>
<path opacity="0.4" d="M25.6711 38.0747C25.9905 38.2221 26.3098 38.3204 26.6538 38.3695C27.4154 38.1484 28.1278 37.657 28.6929 37.1657C29.1596 36.7481 29.5773 36.3059 29.9458 35.8145C30.1669 35.5197 30.388 35.1758 30.5599 34.8318C31.0022 34.0457 31.3461 33.2104 31.5918 32.3506C31.862 31.4661 32.0585 30.5326 32.0585 29.599C32.0585 28.7392 31.9357 27.8794 31.4935 27.1178C30.9776 26.2334 30.0932 25.6192 29.1105 25.4226C28.4472 25.2998 27.7593 25.3244 27.096 25.4226C26.924 25.4472 26.7275 25.4718 26.5555 25.5209C25.4009 26.0368 24.369 26.8721 23.5092 28.0513C22.8213 29.0094 22.5756 30.4098 22.6002 31.589C22.6248 33.3578 23.2881 35.0529 24.1971 36.5515C24.5656 37.1411 25.0078 37.7308 25.6711 38.0747Z" fill="#F8BAD1"/>
<path opacity="0.4" d="M26.7029 25.4227C27.833 25.2262 29.0122 25.1525 30.0686 25.6684C30.8793 26.0615 31.4689 26.7493 31.7883 27.5846C32.1077 28.4199 32.1568 29.3289 32.0831 30.2133C31.9848 31.1714 31.7637 32.105 31.4198 33.0139C31.125 33.8492 30.7319 34.6354 30.2651 35.3724C29.9949 35.8146 29.6755 36.2077 29.307 36.5762C28.8648 37.0429 28.3735 37.4851 27.833 37.8291C27.4891 38.0502 27.096 38.2467 26.7029 38.3696C27.0714 38.3941 27.4399 38.3696 27.7839 38.2959C28.3489 38.173 28.8894 37.9274 29.3807 37.6325C29.4053 37.9765 29.4053 38.3204 29.4053 38.6644V38.6889C32.1322 33.8492 36.4806 30.8275 41.6888 29.4271C39.183 26.7493 31.862 23.1871 26.7029 25.4227Z" fill="#F8BAD1"/>
<path d="M80.2837 35.0777C77.3357 27.5848 66.1331 29.5747 62.276 31.9577C66.9929 34.5864 70.4569 38.5908 71.9309 43.9464V43.9219C72.0046 43.5779 72.1029 43.2586 72.2011 42.9392C72.5942 43.3568 73.061 43.7253 73.6015 43.9956C74.2648 44.3149 75.0263 44.4623 75.7388 44.2904C76.4512 44.1184 77.0409 43.6762 77.5322 43.1603C78.7605 41.9319 79.8169 40.4333 80.2837 38.7382C80.6031 37.5836 80.7013 36.1832 80.2837 35.0777Z" fill="#F8BAD1"/>
<path d="M73.6997 53.3558C73.798 52.889 73.8963 52.7661 73.9454 52.2994C75.8125 37.2398 65.8137 28.9361 52.4246 27.2655C39.0356 25.595 27.2925 31.1963 25.4254 46.2804C25.3763 46.7472 25.4746 46.8209 25.45 47.2877C24.0988 48.8108 23.067 50.9482 22.8459 52.8644C21.8386 61.0207 32.5499 69.8157 46.9216 71.6091C61.2688 73.4025 73.8226 67.4573 74.8544 59.3256C75.1001 57.4093 74.6578 55.1737 73.6997 53.3558Z" fill="#FDE2E2"/>
<path d="M46.1109 28.2727C45.1528 28.3218 44.1946 28.5184 43.2611 28.6658C42.2784 28.8132 41.2957 28.9606 40.3376 29.2308C38.4214 29.7713 36.6034 30.6066 35.0311 31.8349C32.1322 34.0214 29.7246 36.9203 28.2506 40.2369C27.4645 42.0303 26.9485 43.9465 26.8257 45.9119C26.8257 45.961 26.8994 45.9856 26.924 45.9119C27.4399 42.4479 28.9385 39.1805 31.1004 36.429C32.1813 35.0532 33.4097 33.8003 34.7609 32.6948C36.3086 31.4173 38.0529 30.4837 39.9691 29.8941C40.9518 29.5748 41.959 29.2554 42.9663 29.0343C44.0227 28.7886 45.1036 28.6658 46.16 28.3955C46.2091 28.371 46.1846 28.2727 46.1109 28.2727Z" fill="#FDE2E2"/>
<path opacity="0.46" d="M73.6506 53.675C73.7489 53.2082 73.8226 52.7415 73.8717 52.2747C75.7388 37.2151 65.74 28.9114 52.3509 27.2408C47.1182 26.6021 42.131 27.0443 37.9055 28.7394C39.011 28.5429 40.1165 28.42 41.2221 28.3218C42.6224 28.2235 43.9981 28.1744 45.3985 28.1498C46.6514 28.1252 47.9043 28.1498 49.1326 28.2481C51.6139 28.4938 54.0952 29.0342 56.4291 29.9678C58.7138 30.8768 60.8757 32.1542 62.7182 33.8248C64.3397 35.2988 65.6417 37.0922 66.6244 39.0576C67.5088 40.8756 68.123 42.8164 68.4424 44.8063C68.7863 46.8208 68.8354 48.8844 68.6389 50.8989C68.4178 52.9134 67.951 54.9034 67.1894 56.795C66.4524 58.6621 65.4206 60.4309 64.1431 61.9541C62.8656 63.5018 61.3179 64.8285 59.5737 65.8357C58.1242 66.671 56.5765 67.3343 54.9796 67.8256C53.3582 68.317 51.7122 68.6609 50.0171 68.8575C48.2482 69.0786 46.4794 69.1277 44.7106 69.0786C42.868 69.0049 41.0501 68.8083 39.2567 68.4889C37.4633 68.1696 35.6945 67.7028 33.9748 67.1132C32.9184 66.7447 31.862 66.327 30.8302 65.8603C35.0311 68.6855 40.6079 70.7983 46.8725 71.5598C61.2197 73.3532 73.7734 67.408 74.8052 59.2763C75.0018 57.3846 74.5841 55.493 73.6506 53.675Z" fill="#FDE2E2"/>
<path d="M70.3195 55.9689C70.7354 52.6161 68.5402 49.584 65.4163 49.1965C62.2924 48.8091 59.4229 51.2129 59.007 54.5656C58.5911 57.9184 60.7864 60.9505 63.9102 61.338C67.0341 61.7255 69.9036 59.3216 70.3195 55.9689Z" fill="white"/>
<path d="M69.1548 55.7385C68.7617 58.9322 66.1821 61.2415 63.4306 60.8975C60.6545 60.5536 58.7383 57.6792 59.1314 54.4855C59.3034 53.0115 59.9421 51.734 60.8511 50.825C61.3179 50.3583 61.8583 49.9898 62.4234 49.7195C63.185 49.3756 63.9957 49.2282 64.8555 49.351C67.6316 49.6704 69.5478 52.5447 69.1548 55.7385Z" fill="#67A3C1"/>
<path d="M59.0822 54.8785C59.4507 51.9059 61.8583 49.744 64.4378 50.0634C67.0174 50.3828 68.8108 53.0606 68.4423 56.0332C68.0738 59.0058 65.6662 61.1677 63.0866 60.8483C62.0794 60.7255 61.1704 60.2342 60.4825 59.4972C59.8929 58.8093 59.4507 57.9986 59.2051 57.0896C59.0331 56.4017 58.984 55.6401 59.0822 54.8785Z" fill="#8FB9D1"/>
<path d="M70.4322 53.9693C70.1374 51.6355 68.3686 49.7684 66.2804 49.2279C63.9711 48.6137 61.4407 49.5718 60.0403 51.7092C58.4681 54.0676 58.6646 57.1385 60.4089 59.2267C60.4089 59.2267 60.4334 59.2267 60.4334 59.2021C59.0085 57.4333 58.7383 54.7064 59.7701 52.6182C60.8511 50.4562 62.9884 49.1788 65.2486 49.3507C67.3613 49.4981 69.2776 50.9476 69.9654 53.0849C70.3585 54.2887 70.2848 55.7136 69.9654 56.942C69.6215 58.1703 68.7862 59.2513 67.8281 60.0128C66.7472 60.8727 65.4205 61.3886 64.0939 61.2658C62.6936 61.1184 61.5144 60.2585 60.458 59.325C60.4334 59.3004 60.3843 59.3495 60.4089 59.3741C61.2687 60.3076 62.276 61.1184 63.5289 61.4132C64.7572 61.708 66.0839 61.4377 67.1894 60.799C68.2212 60.2094 69.1793 59.2758 69.7689 58.1949C70.4322 56.9665 70.6288 55.3451 70.4322 53.9693Z" fill="black"/>
<path d="M72.0291 55.2227C72.0291 55.1981 72.0045 55.1981 71.9799 55.2227C71.8817 55.6894 71.3903 56.2545 70.9236 55.9106C70.6533 55.6894 70.4568 55.0753 70.4077 54.7068C70.3831 54.6085 70.2357 54.6085 70.2357 54.7068C70.162 55.3701 70.2848 56.3036 71.0464 56.4019C71.7097 56.5002 72.0782 55.8368 72.0291 55.2227Z" fill="black"/>
<path d="M71.8571 53.3309C71.8325 53.2817 71.7834 53.3063 71.7834 53.3554C71.7834 53.8713 71.464 54.289 70.9481 54.117C70.6042 53.9942 70.4322 53.7239 70.2357 53.4046C70.2111 53.3554 70.162 53.4046 70.162 53.4537C70.1865 53.7239 70.2602 54.0924 70.4322 54.289C70.6287 54.5101 70.9481 54.5838 71.2183 54.5838C71.5131 54.5592 71.7097 54.4855 71.8325 54.1907C71.9062 53.9205 71.9308 53.6257 71.8571 53.3309Z" fill="black"/>
<path d="M59.0086 55.4437C59.3525 52.7659 61.4898 50.8251 63.7991 51.1199C66.1085 51.4147 67.7299 53.7977 67.3859 56.4756C67.042 59.1534 64.9047 61.0942 62.5954 60.7994C62.3006 60.7748 62.0303 60.7011 61.7601 60.6028C60.1387 59.5956 59.0823 57.7776 58.984 55.714C58.984 55.6157 59.0086 55.5174 59.0086 55.4437Z" fill="black"/>
<path d="M60.9493 55.6647C60.8019 56.893 61.5389 57.9985 62.6199 58.1459C63.7008 58.2688 64.6835 57.3843 64.8309 56.156C64.9783 54.9276 64.2413 53.8221 63.1603 53.6747C62.0794 53.5519 61.0967 54.4363 60.9493 55.6647Z" fill="#333131"/>
<path d="M65.7153 51.1199C65.3714 51.1936 65.0766 51.4147 64.9046 51.7096C64.6344 52.0781 64.5607 52.5694 64.6344 53.0362C64.7818 53.7486 65.2977 54.1171 65.961 54.0926C66.5015 54.068 66.9683 53.7732 67.1648 53.2081C67.5333 52.1763 66.7963 50.8988 65.7153 51.1199Z" fill="white"/>
<path d="M67.2876 56.3281C66.4769 56.2298 66.305 57.581 67.1157 57.6793C67.9264 57.7776 68.0983 56.4264 67.2876 56.3281Z" fill="white"/>
<path d="M63.9957 57.286C63.4306 57.2123 63.3324 58.1459 63.8729 58.2196C64.4379 58.2933 64.5607 57.3597 63.9957 57.286Z" fill="white"/>
<path d="M39.5719 52.1562C39.9877 48.8035 37.7925 45.7714 34.6686 45.3839C31.5448 44.9964 28.6753 47.4003 28.2594 50.753C27.8435 54.1058 30.0387 57.1379 33.1626 57.5253C36.2864 57.9128 39.156 55.509 39.5719 52.1562Z" fill="white"/>
<path d="M29.4544 50.8003C29.0613 53.994 30.9776 56.8684 33.7536 57.2123C36.5297 57.5563 39.0847 55.247 39.4778 52.0532C39.6497 50.5792 39.3549 49.1789 38.6916 48.0734C38.3477 47.5083 37.93 47.017 37.4387 46.5994C36.8 46.0834 36.0138 45.7395 35.1785 45.6412C32.427 45.2973 29.8475 47.6066 29.4544 50.8003Z" fill="#67A3C1"/>
<path d="M39.4533 52.4459C39.8218 49.4733 38.0284 46.7955 35.4488 46.4761C32.8693 46.1567 30.4617 48.3186 30.0932 51.2913C29.7247 54.2639 31.5181 56.9417 34.0976 57.2611C35.1049 57.3839 36.0876 57.1382 36.9474 56.5978C37.6844 56.0818 38.3232 55.394 38.7899 54.5832C39.1093 53.9445 39.355 53.2075 39.4533 52.4459Z" fill="#8FB9D1"/>
<path d="M28.6437 48.7856C29.5035 46.5991 31.6655 45.2233 33.8274 45.1988C36.2349 45.1742 38.4214 46.7219 39.2812 49.1295C40.2394 51.8073 39.3058 54.7308 37.0948 56.3277C37.0948 56.3277 37.0702 56.3277 37.0702 56.3031C38.8882 54.9519 39.8217 52.3478 39.3304 50.0876C38.8145 47.7292 37.0456 45.9604 34.8346 45.5918C32.771 45.2233 30.5354 46.1569 29.3316 48.0731C28.6683 49.1541 28.3735 50.5544 28.398 51.8073C28.4226 53.0848 28.9631 54.3377 29.7001 55.3204C30.5354 56.4259 31.69 57.2366 33.0166 57.4577C34.417 57.6788 35.7682 57.1138 37.0211 56.4505C37.0456 56.4259 37.0948 56.4996 37.0456 56.4996C35.9647 57.2121 34.81 57.728 33.5325 57.7034C32.2796 57.6788 31.0513 57.1138 30.1423 56.2048C29.2824 55.3695 28.5946 54.2395 28.2752 53.0357C27.9313 51.6845 28.1278 50.0876 28.6437 48.7856Z" fill="black"/>
<path d="M26.8012 49.6211C26.8012 49.5965 26.8257 49.6211 26.8257 49.6211C26.8257 50.0879 27.1451 50.7758 27.6856 50.5301C28.0049 50.3827 28.3489 49.8422 28.4717 49.4983C28.5208 49.4 28.6437 49.4491 28.6437 49.5474C28.5454 50.2107 28.2015 51.0951 27.4399 50.9969C26.7766 50.9232 26.5801 50.2107 26.8012 49.6211Z" fill="black"/>
<path d="M27.4399 47.8277C27.4644 47.7786 27.5136 47.8277 27.5136 47.8769C27.3907 48.3928 27.6118 48.8595 28.1277 48.8104C28.4962 48.7613 28.7419 48.5647 28.9876 48.2945C29.0122 48.2699 29.0613 48.3191 29.0613 48.3436C28.963 48.6139 28.8156 48.9332 28.5945 49.0806C28.3488 49.2526 28.0295 49.2526 27.7592 49.1789C27.489 49.1052 27.2925 48.9578 27.2679 48.6384C27.2433 48.3682 27.2925 48.0734 27.4399 47.8277Z" fill="black"/>
<path d="M39.3795 52.9867C39.7235 50.3088 38.102 47.9013 35.7927 47.631C33.4834 47.3362 31.3215 49.277 31.0021 51.9548C30.6582 54.6327 32.2796 57.0402 34.5889 57.3105C34.8837 57.335 35.1785 57.3596 35.4488 57.3105C37.2668 56.7454 38.7408 55.2223 39.3304 53.2323C39.355 53.1586 39.355 53.0849 39.3795 52.9867Z" fill="black"/>
<path d="M37.4358 52.7635C37.5895 51.5247 36.8517 50.4136 35.788 50.2816C34.7243 50.1497 33.7374 51.0469 33.5837 52.2857C33.4301 53.5245 34.1678 54.6357 35.2316 54.7676C36.2953 54.8995 37.2822 54.0023 37.4358 52.7635Z" fill="#333131"/>
<path d="M33.9256 47.1644C34.245 47.3118 34.4661 47.6066 34.5643 47.926C34.7363 48.3436 34.6872 48.8595 34.4906 49.2526C34.1713 49.9159 33.5816 50.137 32.9429 49.9405C32.427 49.7931 32.0585 49.3754 32.0094 48.8104C31.9111 47.754 32.9183 46.6976 33.9256 47.1644Z" fill="white"/>
<path d="M31.1249 51.8319C31.9356 51.9302 31.7637 53.2813 30.953 53.1831C30.1422 53.0848 30.3142 51.7336 31.1249 51.8319Z" fill="white"/>
<path d="M34.073 53.5762C34.6381 53.6499 34.5152 54.5834 33.9502 54.5097C33.4097 54.436 33.5325 53.5025 34.073 53.5762Z" fill="white"/>
<path opacity="0.46" d="M55.4464 60.5781C55.0042 64.2141 51.4911 66.7445 47.6341 66.2777C43.7525 65.7864 41.001 62.4698 41.4432 58.8339C41.8854 55.1979 45.3493 52.8886 49.2309 53.3554C53.088 53.8467 55.8886 56.9422 55.4464 60.5781Z" fill="#F6D7D7"/>
<path d="M78.0972 42.792C79.2764 41.318 80.1363 39.6966 80.5048 37.7803C80.7013 36.7485 80.5293 35.4956 80.0626 34.562C79.6204 33.6776 79.0308 32.8669 78.3183 32.179C76.7951 30.7296 74.6824 29.9926 72.5942 29.8206C71.5378 29.7223 70.4568 29.6732 69.4496 29.968C68.4669 30.2628 68.3195 31.3683 68.3195 32.2527C68.3195 34.4146 68.8354 36.552 69.6216 38.5419C70.0638 39.6474 70.6042 40.7284 71.1939 41.7356C71.7589 42.6692 72.4222 43.6027 73.4295 44.0941C73.9699 44.3889 76.1564 45.2487 78.0972 42.792Z" fill="#F8BAD1"/>
<path d="M27.8084 38.4433C28.8893 38.1976 29.7738 37.4606 30.5353 36.699C31.3706 35.8638 32.1568 34.9548 32.8446 33.9721C34.0976 32.2278 35.1294 30.2625 35.6453 28.1743C35.8664 27.3144 35.9892 26.2089 35.1048 25.693C34.1713 25.1525 33.1395 24.956 32.0831 24.784C29.9949 24.4401 27.7838 24.6366 25.9413 25.6684C25.0815 26.1598 24.2953 26.7985 23.6566 27.5601C22.9687 28.3708 22.5019 29.55 22.4528 30.5818C22.3545 32.5226 22.7721 34.2915 23.5583 36.0112C24.8358 38.8855 27.1697 38.5661 27.8084 38.4433Z" fill="#F8BAD1"/>
<path opacity="0.4" d="M35.1294 25.6933C34.1958 25.1528 33.164 24.9563 32.1076 24.7843C30.1423 24.4649 28.0541 24.6123 26.2852 25.4967C27.5381 25.2511 28.8893 25.0791 30.0686 25.6687C30.8793 26.0618 31.4689 26.7497 31.7882 27.5849C32.1076 28.4202 32.1568 29.3292 32.0831 30.2136C31.9848 31.1717 31.7637 32.1053 31.4197 33.0143C31.1249 33.8496 30.7319 34.6357 30.2651 35.3727C29.9949 35.8149 29.6755 36.208 29.307 36.5765C28.8648 37.0433 28.3734 37.4855 27.833 37.8294C27.3662 38.1242 26.8503 38.3699 26.3344 38.4682C26.9731 38.591 27.5381 38.4927 27.7838 38.4436C28.8648 38.1979 29.7492 37.4609 30.5108 36.6993C31.346 35.864 32.1322 34.9551 32.8201 33.9724C34.073 32.2281 35.1048 30.2628 35.6207 28.1746C35.8664 27.3147 35.9892 26.2092 35.1294 25.6933Z" fill="#F8BAD1"/>
<path d="M80.5293 35.569C80.0134 32.4735 77.1882 30.803 74.3875 30.0414C73.1346 29.6975 71.8326 29.5501 70.5305 29.5501C70.5305 29.2552 70.5796 28.985 70.7025 28.6902C70.727 28.6165 70.6288 28.5674 70.6042 28.6411C70.4568 28.9113 70.3831 29.2307 70.4077 29.5501C70.334 29.5501 70.2848 29.5501 70.2111 29.5501C70.1866 29.2061 70.0637 28.8867 69.8426 28.6165C69.8181 28.5919 69.7444 28.6165 69.7689 28.6656C69.9655 28.9113 70.0637 29.2307 70.0883 29.5501C69.8426 29.5501 69.597 29.5746 69.3513 29.5992C67.6316 29.7466 66.0347 30.2379 64.5116 31.0732C63.5289 30.459 62.4725 29.9431 61.4407 29.4764C59.6227 28.6656 57.7311 28.0023 55.8148 27.5356C53.5547 26.9951 51.2208 26.7248 48.9115 26.7003C48.9361 26.602 48.9606 26.5037 49.0343 26.4055C49.1326 26.2581 49.2554 26.1844 49.4028 26.0861C49.452 26.0615 49.4274 25.9633 49.3537 25.9878C49.0589 26.0615 48.7887 26.3809 48.7641 26.7003C48.7149 26.7003 48.6658 26.7003 48.6167 26.7003C48.5184 26.5037 48.3956 26.3318 48.2727 26.1598C48.2482 26.1107 48.1499 26.1598 48.1745 26.2089C48.2727 26.3809 48.3464 26.5529 48.4447 26.7003C46.9216 26.7003 45.3984 26.8231 43.8752 27.0688C42.4749 27.2899 41.1237 27.5847 39.7971 28.0269C38.5442 26.8477 37.0947 25.9387 35.4487 25.3736C33.8519 24.8086 32.1567 24.5384 30.4616 24.5629C27.5627 24.6121 24.3935 25.5456 23.1406 28.42C22.7967 29.2307 22.6247 30.066 22.5756 30.9504C22.5019 30.9012 22.4282 30.8767 22.3545 30.8275C22.2071 30.7293 22.0842 30.6064 21.9614 30.4836C21.9123 30.459 21.8631 30.5082 21.9123 30.5327C22.0597 30.7293 22.3053 30.9504 22.551 31.0978C22.551 31.2943 22.551 31.5154 22.551 31.712C22.2808 31.6628 22.0105 31.8102 21.9368 32.0805C21.9368 32.1296 21.986 32.1542 22.0105 32.105C22.1088 31.8839 22.3299 31.7611 22.551 31.8348C22.5756 32.2279 22.6247 32.6209 22.6984 33.014C22.9441 34.4389 23.4109 36.0112 24.2707 37.215C25.0077 38.2959 26.1378 38.8118 27.3907 38.6153C26.7029 39.8437 26.2606 41.1703 25.9413 42.546C25.5973 43.9955 25.3025 45.6415 25.4745 47.1401C25.4499 47.1401 25.4499 47.1401 25.4254 47.1401C24.4181 48.1719 23.7302 49.4739 23.3126 50.8988C23.0669 50.776 22.895 50.5303 22.8458 50.2601C22.8458 50.211 22.7476 50.1864 22.7476 50.2601C22.7721 50.604 22.9932 50.8743 23.2635 51.0217C22.9932 51.9798 22.8704 52.987 22.8704 53.9452C22.8704 58.5883 25.5973 62.5928 29.1841 65.3197C33.2377 68.4397 38.2739 69.8401 43.1874 70.9701C40.5587 70.1349 37.8809 69.3242 35.3259 68.2923C31.1004 66.5481 26.9731 63.8457 24.7129 59.743C23.632 57.7776 23.0915 55.5666 23.1898 53.331C23.288 51.0462 24.0742 49.0072 25.4499 47.2138C25.4499 47.2138 25.4745 47.2138 25.4745 47.1892C25.5973 46.4276 25.6219 45.666 25.7202 44.9045C25.8184 44.1675 25.9658 43.4304 26.1378 42.718C26.4817 41.2931 26.9977 39.9419 27.4644 38.5907C27.5873 38.5662 27.6855 38.5416 27.8084 38.517C29.2333 38.0994 30.4616 36.9693 31.4934 35.9375C33.6553 33.7756 35.1048 31.0732 35.7681 28.076C35.7927 28.0023 35.6698 28.0023 35.6698 28.0515C34.9083 31.1223 33.164 34.0458 30.8301 36.1832C29.7737 37.1413 28.5208 38.1977 27.0468 38.2959C25.4254 38.4188 24.4672 37.1413 23.9022 35.7901C22.7967 33.1614 22.2808 29.7712 24.1479 27.3636C25.8921 25.128 29.307 24.7595 31.9356 25.0051C34.6871 25.2754 37.365 26.43 39.6006 28.0515H39.576C38.8881 28.2971 38.0774 28.6165 37.4141 28.9113C37.365 28.9359 37.3895 28.985 37.4387 28.9604C41.2466 27.8058 45.1282 26.9705 49.108 27.0442C53.0142 27.1179 56.8958 27.9041 60.5071 29.4272C62.5708 30.2871 64.487 31.4417 66.4278 32.5472C66.4769 32.5718 66.5506 32.4981 66.5015 32.4735C65.9119 31.9822 65.2732 31.5154 64.6098 31.1223C67.1648 30.0905 69.99 29.6483 72.717 30.066C75.3457 30.459 78.5639 31.6383 79.694 34.2424C80.9224 37.043 79.5958 40.1876 77.8761 42.4723C76.9917 43.627 75.7633 44.6342 74.2156 44.1183C72.8153 43.6516 71.8571 42.3004 71.071 41.1457C69.3022 38.517 68.344 35.2496 68.344 32.0805C68.344 32.0068 68.2458 32.0068 68.2458 32.0559C68.1475 35.1022 68.9091 38.0748 70.4814 40.7281C71.2184 41.981 72.1519 43.3568 73.4049 44.1183C73.5031 44.1675 73.6014 44.2412 73.6997 44.2903C73.8471 45.7398 74.019 47.1646 73.9945 48.6387C73.9945 49.3757 73.9453 50.1127 73.8471 50.8497C73.7488 51.6113 73.6014 52.3729 73.5277 53.1344C73.5277 53.1344 73.5277 53.159 73.5523 53.159C74.4612 55.2472 74.7315 57.4337 74.2647 59.6447C73.7979 61.8312 72.7415 63.8457 71.2184 65.4671C68.0492 68.9065 63.3815 70.5034 58.8366 71.1667C56.1342 71.5597 53.4073 71.6826 50.6803 71.8546C55.692 71.9528 60.8511 71.8054 65.5188 69.7909C67.8773 68.7591 70.0883 67.2851 71.7343 65.3443C71.808 65.59 71.9308 65.8111 72.0291 66.0322C72.0537 66.0813 72.1274 66.0567 72.1028 66.0076C72.0291 65.7619 71.9554 65.5162 71.8571 65.2706C71.8571 65.246 71.8326 65.246 71.8326 65.246C71.8571 65.1969 71.9063 65.1723 71.9308 65.1232C71.98 65.1723 72.0291 65.2215 72.0782 65.246C72.1765 65.3197 72.2993 65.3934 72.3976 65.418C72.4467 65.418 72.4713 65.3689 72.4222 65.3443C72.3239 65.2951 72.2256 65.246 72.1519 65.1477C72.1028 65.0986 72.0537 65.0495 72.0291 65.0003C73.1346 63.6246 73.9699 62.0523 74.4121 60.2835C75.0017 57.925 74.8789 55.1981 73.626 53.0853C73.626 53.0607 73.6014 53.0607 73.6014 53.0607C73.8225 52.5203 73.9699 51.9307 74.0682 51.341C74.1419 51.3656 74.2401 51.341 74.3138 51.341C74.4121 51.341 74.5349 51.3902 74.6087 51.4393C74.6578 51.4639 74.7069 51.4148 74.6578 51.3656C74.5595 51.2673 74.4612 51.2182 74.3384 51.1936C74.2647 51.1691 74.1664 51.1691 74.0927 51.1936C74.1173 51.0954 74.1173 50.9971 74.1419 50.9234C74.1419 50.948 74.1664 50.948 74.191 50.9725C74.2647 50.9971 74.363 50.9725 74.4367 50.9725C74.5349 50.9725 74.6086 50.948 74.7069 50.9234C74.7561 50.8988 74.7561 50.8251 74.6823 50.8251C74.5841 50.8251 74.4858 50.8251 74.3875 50.8251C74.3138 50.8251 74.2156 50.8251 74.1419 50.8743C74.1419 50.8743 74.1419 50.8743 74.1173 50.8988C74.2156 50.1127 74.2647 49.302 74.2647 48.5404C74.2893 47.1401 74.191 45.7397 73.8225 44.3886C74.9772 44.8799 76.2055 44.6342 77.1882 43.799C78.2937 42.8408 79.129 41.4405 79.7186 40.1139C80.4556 38.6644 80.775 37.1167 80.5293 35.569Z" fill="black"/>
<path d="M55.5692 60.0627C55.1516 63.4284 51.6876 65.7623 47.806 65.2955C43.9244 64.8042 41.1483 61.7087 41.566 58.343C41.9836 54.9773 44.8334 54.314 48.6904 54.7808C52.572 55.2476 55.9869 56.697 55.5692 60.0627Z" fill="#F8BAD1"/>
<path d="M53.9969 57.0898C51.6876 55.3455 48.6413 54.7068 45.7915 55.0507C44.5632 55.1981 43.2611 55.5175 42.475 56.5493C41.7625 57.4828 41.5168 58.7358 41.738 59.8904C42.0328 61.3153 42.9663 62.6419 44.1455 63.4526C44.1701 63.4772 44.2192 63.4281 44.1947 63.4035C43.3102 62.4945 42.4504 61.5118 42.0819 60.2835C41.738 59.178 41.8608 57.925 42.4995 56.9178C43.2611 55.7386 44.6614 55.4192 45.9881 55.2964C47.2901 55.149 48.6167 55.2227 49.8942 55.5175C51.3191 55.8368 52.6949 56.451 53.9478 57.188C54.0215 57.188 54.0461 57.1143 53.9969 57.0898Z" fill="#F8BAD1"/>
<path d="M55.1516 57.7287C54.3654 56.5004 53.0634 55.7879 51.7122 55.3457C50.2136 54.8544 48.6167 54.6333 47.0199 54.6578C45.6195 54.6824 43.9981 54.8052 42.8435 55.7142C41.8362 56.5004 41.1975 57.7533 41.5905 59.8906C41.2712 58.0235 41.8608 56.7952 42.6469 56.0582C43.6542 55.1 45.1282 54.9035 46.4548 54.8298C47.9534 54.7315 49.4766 54.8789 50.926 55.272C52.2772 55.616 53.653 56.1564 54.6111 57.2128C55.5692 58.2692 55.9869 59.9643 55.0042 61.9543C55.9131 60.382 55.7903 58.736 55.1516 57.7287Z" fill="black"/>
<path d="M49.8696 65.2951C47.3392 65.6881 44.7351 64.7055 43.0891 62.7647C42.4258 61.9785 41.9099 61.045 41.6151 60.0377C42.1556 62.0768 43.5804 63.8456 45.5212 64.7546C47.8551 65.8356 50.6312 65.6636 52.7931 64.2633C53.6529 63.6982 54.3408 62.9858 54.8813 62.1259C53.7021 63.7965 51.9087 64.9757 49.8696 65.2951Z" fill="black"/>
<path opacity="0.65" d="M33.1927 61.2987C33.4666 59.0904 31.9858 57.0891 29.8853 56.8285C27.7848 56.568 25.8599 58.1469 25.586 60.3551C25.3121 62.5634 26.7928 64.5647 28.8934 64.8253C30.9939 65.0858 32.9187 63.5069 33.1927 61.2987Z" fill="#F8BFD4"/>
<path opacity="0.65" d="M70.6042 65.8357C70.334 68.0468 68.3932 69.619 66.305 69.3734C64.2168 69.1277 62.7182 67.1132 62.9884 64.9022C63.2587 62.6911 65.1995 61.1188 67.2877 61.3645C69.4004 61.6102 70.8745 63.6247 70.6042 65.8357Z" fill="#F8BFD4"/>
<path d="M44.1947 58.7849C43.8016 58.7358 43.4085 59.0306 43.3594 59.4236C43.3102 59.8167 43.605 60.2098 43.9981 60.2589C44.3912 60.3081 44.7843 60.0133 44.8334 59.6202C44.8825 59.2025 44.5877 58.834 44.1947 58.7849Z" fill="#A36481"/>
<path d="M52.9897 59.8658C52.5966 59.8167 52.2035 60.1115 52.1544 60.5046C52.1053 60.8976 52.4001 61.2907 52.7931 61.3399C53.1862 61.389 53.5793 61.0942 53.6284 60.7011C53.6775 60.2835 53.4073 59.915 52.9897 59.8658Z" fill="#A36481"/>
<path opacity="0.4" d="M80.0626 34.5617C79.6204 33.6773 79.0308 32.8666 78.3183 32.1787C76.7952 30.7293 74.6824 29.9923 72.5942 29.8203C72.152 29.7711 71.7098 29.7466 71.2676 29.7466C71.6852 29.8203 72.1028 29.894 72.5205 29.9923C73.454 30.2379 74.3876 30.6064 75.2229 31.1223C75.9353 31.5645 76.5741 32.1296 76.9917 32.842C77.5076 33.7264 77.7041 34.7828 77.7287 35.7901C77.7533 36.9202 77.5813 38.0748 77.2619 39.1558C77.09 39.6962 76.918 40.2122 76.6723 40.7281C76.4758 41.1457 76.2792 41.5879 76.0336 41.981C75.5914 42.6689 74.9526 43.283 74.0682 43.283C73.1347 43.3076 72.2994 42.7426 71.6852 42.0793C71.2921 41.637 70.9728 41.1703 70.6288 40.6789C70.8008 41.0229 70.9973 41.3668 71.1939 41.6862C71.7589 42.6197 72.4222 43.5533 73.4295 44.0446C73.9945 44.3394 76.181 45.1993 78.1463 42.7426C79.3256 41.2685 80.1854 39.6471 80.5539 37.7309C80.7013 36.7482 80.5294 35.4953 80.0626 34.5617Z" fill="#F8BAD1"/>
<path d="M74.707 43.5286C73.97 42.7915 73.1593 42.2019 72.5697 41.3667C71.9309 40.4577 71.3904 39.5241 70.9482 38.4923C70.506 37.4605 70.1621 36.355 69.9164 35.2495C69.6707 34.1194 69.3514 32.9893 69.1548 31.8592C69.1548 31.7855 69.0566 31.8101 69.0566 31.8838C68.9829 33.1367 69.0074 34.2913 69.2777 35.5197C69.5479 36.6989 69.9164 37.829 70.4078 38.9345C70.85 39.9663 71.4396 40.9736 72.2011 41.8089C72.8645 42.5213 73.6997 43.3566 74.6579 43.6268C74.707 43.6514 74.7561 43.5777 74.707 43.5286Z" fill="#F8BAD1"/>
<path d="M27.4645 26.0122C26.2607 26.2087 25.4254 26.8229 24.7375 27.8056C24.0497 28.8129 23.7057 30.0166 23.6812 31.2204C23.6566 32.6208 24.0005 34.0456 24.5901 35.2986C24.8604 35.8882 25.2043 36.4778 25.6465 36.9937C25.9659 37.3622 26.3835 37.7061 26.8749 37.5342C26.9486 37.5096 26.9486 37.4113 26.8749 37.3868C26.2853 37.2394 25.9659 36.7726 25.7202 36.2567C25.45 35.6916 25.2043 35.102 24.9832 34.5124C24.5656 33.3823 24.2953 32.2031 24.369 30.9993C24.4182 29.9675 24.7375 28.9848 25.3026 28.125C25.8431 27.3143 26.6538 26.5281 27.5136 26.0859C27.5628 26.0859 27.5136 26.0122 27.4645 26.0122Z" fill="#F8BAD1"/>
<path d="M23.0915 51.6605C22.9195 51.6851 22.7721 51.7097 22.6002 51.7097C22.551 51.7097 22.551 51.7834 22.6002 51.7834C22.7721 51.7834 22.9195 51.7588 23.0915 51.7588C23.1652 51.7588 23.1652 51.6605 23.0915 51.6605Z" fill="black"/>
<path d="M31.5671 65.4671C29.6755 63.7229 27.8084 61.8558 26.4572 59.6201C25.1797 57.5074 24.5655 55.0261 24.8357 52.5448C24.9832 51.1691 25.4008 49.8179 26.1624 48.6387C26.2361 48.5158 26.0395 48.3439 25.9413 48.4667C24.2216 50.4321 23.8039 53.0116 24.2216 55.542C24.6638 58.1461 26.1378 60.6028 27.9558 62.4945C29.0122 63.6 30.2159 64.6318 31.4689 65.5408C31.5426 65.6145 31.6163 65.5162 31.5671 65.4671Z" fill="#FDE2E2"/>
<defs>
<filter id="filter0_i_25_1709" x="5.26316" y="5.26318" width="89.4737" height="89.4736" filterUnits="userSpaceOnUse" color-interpolation-filters="sRGB">
<feFlood flood-opacity="0" result="BackgroundImageFix"/>
<feBlend mode="normal" in="SourceGraphic" in2="BackgroundImageFix" result="shape"/>
<feColorMatrix in="SourceAlpha" type="matrix" values="0 0 0 0 0 0 0 0 0 0 0 0 0 0 0 0 0 0 127 0" result="hardAlpha"/>
<feOffset/>
<feGaussianBlur stdDeviation="5.4"/>
<feComposite in2="hardAlpha" operator="arithmetic" k2="-1" k3="1"/>
<feColorMatrix type="matrix" values="0 0 0 0 0.0701736 0 0 0 0 0.23735 0 0 0 0 0.391667 0 0 0 1 0"/>
<feBlend mode="normal" in2="shape" result="effect1_innerShadow_25_1709"/>
</filter>
</defs>
</svg>
