<svg width="100" height="100" viewBox="0 0 100 100" fill="none" xmlns="http://www.w3.org/2000/svg">
<g clip-path="url(#clip0_25_834)">
<g clip-path="url(#clip1_25_834)">
<path d="M87.2867 34.2334H8.91543C6.98066 34.2334 5.4123 35.8018 5.4123 37.7365V47.1467H90.79V37.7365C90.7898 35.802 89.2215 34.2334 87.2867 34.2334Z" fill="#FFB125"/>
<path d="M58.8342 14.7787L51.7369 86.6273C51.5586 88.4322 49.951 89.7508 48.1461 89.5724L12.1852 86.0201C10.3803 85.8418 9.06172 84.2342 9.24004 82.4293L16.3373 10.5808C16.5156 8.77595 18.1232 7.4574 19.9281 7.63572L55.8891 11.1881C57.6937 11.3662 59.0123 12.9738 58.8342 14.7787Z" fill="#B6FA4C"/>
<path d="M55.8891 11.1879L19.9281 7.63554C18.1232 7.45722 16.5156 8.77577 16.3373 10.5807L15.7006 17.0267C16.2576 16.7424 16.8845 16.624 17.5068 16.6855L53.4678 20.2379C55.2727 20.4162 56.5912 22.0238 56.4129 23.8287L49.9523 89.2314C50.9182 88.7408 51.6225 87.7855 51.7367 86.6275L58.834 14.7789C59.0125 12.9738 57.6938 11.3662 55.8891 11.1879Z" fill="#A8E83A"/>
<path d="M20.1488 20.7688L14.9713 73.1842C14.8973 73.9344 15.2504 74.6656 15.8902 75.0645C17.6552 76.166 19.0159 77.8094 19.7688 79.7489C20.0385 80.4448 20.6826 80.9246 21.4252 80.9981L40.0672 82.8395C40.8098 82.9129 41.5355 82.5682 41.9359 81.9385C43.0538 80.1839 44.7097 78.8385 46.6561 78.1035C47.3615 77.8375 47.851 77.1897 47.925 76.4395L53.1025 24.024C53.1766 23.2739 52.8234 22.5426 52.1836 22.1438C50.4187 21.0423 49.0579 19.3988 48.3051 17.4594C48.0354 16.7637 47.3912 16.2836 46.6486 16.2102L28.0066 14.3688C27.2641 14.2953 26.5383 14.6401 26.1379 15.2698C25.0201 17.0244 23.3641 18.3698 21.4178 19.1047C20.7125 19.3707 20.223 20.0186 20.1488 20.7688Z" fill="#77DD00"/>
<path d="M52.184 22.1438C50.4191 21.0423 49.0583 19.3988 48.3055 17.4594C48.0357 16.7635 47.3916 16.2836 46.649 16.2102L28.007 14.3688C27.2644 14.2953 26.5387 14.6401 26.1381 15.2698C25.0203 17.0244 23.3643 18.3698 21.418 19.1047C20.7125 19.3707 20.223 20.0186 20.149 20.7688L19.952 22.7641L44.1068 25.0756C44.8494 25.149 45.4937 25.6289 45.7633 26.3248C46.5162 28.2642 47.8769 29.9077 49.6418 31.0092C50.2816 31.408 50.6348 32.1393 50.5607 32.8895L46.0701 78.3492C46.2628 78.261 46.4582 78.1791 46.6562 78.1037C47.3617 77.8377 47.8512 77.1899 47.9252 76.4397L53.1027 24.0242C53.1769 23.2739 52.8236 22.5426 52.184 22.1438Z" fill="#73CC00"/>
<path d="M89.3252 25.4832L48.6672 85.1449C47.6459 86.6436 45.6029 87.0307 44.1043 86.0094L14.243 65.6596C12.7443 64.6383 12.3572 62.5953 13.3785 61.0967L54.0367 1.43498C55.058 -0.0636548 57.101 -0.450764 58.5996 0.570525L88.4609 20.9203C89.9596 21.9416 90.3465 23.9844 89.3252 25.4832Z" fill="#B6FA4C"/>
<path d="M88.4609 20.9203L58.5996 0.570516C57.101 -0.450773 55.058 -0.063859 54.0367 1.43497L50.559 6.53829C50.8682 6.63483 51.1614 6.7766 51.4291 6.95899L81.2904 27.3088C82.7891 28.3301 83.1762 30.3731 82.1549 31.8717L44.9746 86.4303C46.3184 86.8506 47.8334 86.3689 48.6674 85.1451L89.3254 25.4832C90.3465 23.9844 89.9596 21.9416 88.4609 20.9203Z" fill="#A8E83A"/>
<path d="M52.5004 12.2035L22.8393 55.7284C22.4146 56.3514 22.3744 57.1623 22.7447 57.819C23.7661 59.6315 24.1729 61.726 23.9043 63.7891C23.8076 64.5289 24.143 65.259 24.7596 65.6791L40.2396 76.2283C40.8562 76.6487 41.6584 76.6938 42.3117 76.333C44.1336 75.3287 46.2318 74.9412 48.2922 75.2287C49.0389 75.3332 49.7789 74.9993 50.2035 74.3762L79.8646 30.8516C80.2893 30.2285 80.3295 29.4176 79.959 28.761C78.9376 26.9485 78.5308 24.854 78.7994 22.791C78.8961 22.0512 78.5607 21.3211 77.9441 20.901L62.4641 10.3516C61.8475 9.93128 61.0453 9.88616 60.392 10.2469C58.5701 11.2513 56.472 11.6387 54.4115 11.3512C53.665 11.2463 52.9248 11.5805 52.5004 12.2035Z" fill="#77DD00"/>
<path d="M79.959 28.761C78.9377 26.9485 78.5309 24.854 78.7994 22.791C78.8961 22.0512 78.5607 21.3211 77.9441 20.9008L62.4641 10.3516C61.8475 9.93147 61.0453 9.88616 60.392 10.2469C58.5701 11.2513 56.4719 11.6387 54.4115 11.351C53.6648 11.2465 52.9248 11.5805 52.5002 12.2035L51.2641 14.0174L70.6105 27.0584C71.2271 27.4787 71.5627 28.2086 71.4658 28.9485C71.1974 31.0114 71.6042 33.1059 72.6254 34.9184C72.9957 35.575 72.9555 36.3862 72.5309 37.009L46.541 75.1475C47.1261 75.1211 47.7123 75.1483 48.2924 75.2289C49.0391 75.3336 49.7791 74.9994 50.2037 74.3764L79.8647 30.8516C80.2893 30.2285 80.3295 29.4176 79.959 28.761Z" fill="#73CC00"/>
<path d="M55.8945 49.8809C61.7615 49.8809 66.5176 45.1248 66.5176 39.2578C66.5176 33.3909 61.7615 28.6348 55.8945 28.6348C50.0276 28.6348 45.2715 33.3909 45.2715 39.2578C45.2715 45.1248 50.0276 49.8809 55.8945 49.8809Z" fill="#B6FA4C"/>
<path d="M88.5004 100H6.66191C3.87168 100 1.60957 97.7381 1.60957 94.9476V44.949C1.60957 42.1588 3.87148 39.8967 6.66191 39.8967H88.5004C91.2906 39.8967 93.5527 42.1586 93.5527 44.949V94.9476C93.5527 97.7381 91.2908 100 88.5004 100Z" fill="#FFB125"/>
<path d="M88.5004 39.8967H79.309C82.0992 39.8967 84.3613 42.1588 84.3613 44.949V94.9476C84.3613 97.7379 82.0992 100 79.309 100H88.5004C91.2906 100 93.5527 97.7381 93.5527 94.9476V44.949C93.5527 42.1588 91.2906 39.8967 88.5004 39.8967Z" fill="#FF901D"/>
<path d="M96.56 60.2906H78.1404C72.8066 60.2906 68.4828 64.6145 68.4828 69.9483C68.4828 75.2821 72.8066 79.6059 78.1404 79.6059H96.56C96.8003 79.6059 97.0384 79.5585 97.2604 79.4665C97.4825 79.3746 97.6843 79.2397 97.8543 79.0698C98.0243 78.8998 98.1591 78.698 98.2511 78.4759C98.3431 78.2538 98.3904 78.0158 98.3904 77.7754V62.1211C98.3904 61.6357 98.1975 61.1701 97.8542 60.8268C97.511 60.4836 97.0454 60.2907 96.56 60.2906Z" fill="#FF6D3A"/>
<path d="M96.56 60.2906H87.3359C87.8214 60.2906 88.287 60.4835 88.6303 60.8268C88.9736 61.1701 89.1664 61.6356 89.1664 62.1211V75.3069C89.1664 76.385 88.2924 77.259 87.2143 77.259H78.1402C73.2039 77.259 69.1354 73.5547 68.5561 68.7746C68.508 69.1639 68.4834 69.5558 68.4826 69.9481C68.4826 75.2819 72.8064 79.6057 78.1402 79.6057H96.5598C97.0452 79.6057 97.5108 79.4128 97.8541 79.0696C98.1974 78.7263 98.3902 78.2607 98.3902 77.7752V62.1211C98.3904 61.1104 97.5709 60.2906 96.56 60.2906Z" fill="#ED5729"/>
<path d="M88.5004 39.8967H6.66191C3.87168 39.8967 1.60957 42.1588 1.60957 44.949V50.4857H93.5527V44.949C93.5527 42.1588 91.2908 39.8967 88.5004 39.8967Z" fill="#FF6D3A"/>
<path d="M92.6898 42.1242C92.5085 41.8559 92.3019 41.6056 92.0728 41.3766L92.0646 41.3688C91.7802 41.0853 91.463 40.8367 91.1199 40.6281C91.0161 40.5657 90.9101 40.5069 90.8021 40.452C90.09 40.0863 89.3008 39.8958 88.5002 39.8965H79.3094C82.0994 39.8967 84.3611 42.1586 84.3611 44.9488V50.4853H93.5525V44.9488C93.5541 43.9422 93.2536 42.9582 92.6898 42.1242Z" fill="#ED5729"/>
<path d="M6.66191 100H88.5004C91.2906 100 93.5527 97.7379 93.5527 94.9477V89.4109H1.60957V94.9477C1.60957 97.7379 3.87148 100 6.66191 100Z" fill="#FF6D3A"/>
<path d="M84.3613 89.4109V94.9563C84.3605 95.4229 83.9699 95.7953 83.5033 95.7953H6.66191C3.87168 95.7953 1.60957 93.5332 1.60957 90.743V94.9475C1.60957 97.7381 3.87148 100 6.66191 100H88.5006C88.6004 100 88.6992 99.9963 88.7975 99.9906C88.8281 99.9889 88.8586 99.9859 88.8891 99.9836C89.0587 99.9708 89.2275 99.9494 89.3949 99.9195C89.4244 99.9143 89.4541 99.9096 89.4834 99.9037C89.5773 99.8852 89.6707 99.8649 89.7627 99.841H89.7631C89.8035 99.8307 89.843 99.8184 89.883 99.807C90.0817 99.7511 90.2768 99.683 90.4672 99.6031C90.6178 99.5395 90.7651 99.4685 90.9088 99.3904L90.909 99.3902C91.052 99.3125 91.1908 99.2281 91.3252 99.1375L91.3254 99.1373L91.3256 99.1371C91.44 99.0598 91.5502 98.9772 91.6574 98.891L91.6727 98.8789C91.9093 98.6874 92.1283 98.4751 92.3271 98.2445V98.2443C92.4956 98.0491 92.649 97.8412 92.7859 97.6227L92.7973 97.6051C92.8477 97.5236 92.8965 97.4412 92.9424 97.3569L92.9428 97.3561V97.3559C93.0655 97.1295 93.1706 96.8941 93.2572 96.6516C93.2672 96.6238 93.2762 96.5955 93.2857 96.5676C93.3177 96.4733 93.3468 96.3782 93.3732 96.2822C93.3906 96.2186 93.4066 96.1543 93.4215 96.0895C93.4283 96.06 93.4357 96.0305 93.442 96.0008C93.4617 95.9076 93.4797 95.8137 93.4941 95.7188L93.4943 95.7172V95.7164C93.5113 95.6055 93.5232 95.4928 93.5328 95.3795L93.5395 95.2934C93.5473 95.1791 93.5525 95.0641 93.5525 94.9477V89.4111L84.3613 89.4109Z" fill="#ED5729"/>
<path d="M78.4844 74.4334C80.9609 74.4334 82.9686 72.4258 82.9686 69.9492C82.9686 67.4727 80.9609 65.465 78.4844 65.465C76.0078 65.465 74.0002 67.4727 74.0002 69.9492C74.0002 72.4258 76.0078 74.4334 78.4844 74.4334Z" fill="#F2F2F2"/>
</g>
</g>
<defs>
<clipPath id="clip0_25_834">
<rect width="100" height="100" fill="white"/>
</clipPath>
<clipPath id="clip1_25_834">
<rect width="100" height="100" fill="white"/>
</clipPath>
</defs>
</svg>
